<mxfile host="app.diagrams.net" modified="2023-03-09T06:32:59.077Z" agent="5.0 (Windows NT 10.0; Win64; x64) AppleWebKit/537.36 (KHTML, like Gecko) Chrome/111.0.0.0 Safari/537.36 Edg/111.0.1661.27" etag="o8xE5dKefziKUh6sJNgT" version="21.0.4" type="github">
  <diagram name="第 1 页" id="CE7ggPgM5_GOIXw8tlPK">
    <mxGraphModel dx="935" dy="547" grid="1" gridSize="10" guides="1" tooltips="1" connect="1" arrows="1" fold="1" page="1" pageScale="1" pageWidth="827" pageHeight="1169" math="0" shadow="0">
      <root>
        <mxCell id="0" />
        <mxCell id="1" parent="0" />
        <mxCell id="FahEBECpcgJHgk5-wvUg-1" value="" style="shape=image;aspect=fixed;image=data:image/png,iVBORw0KGgoAAAANSUhEUgAAAggAAAIICAYAAAAL/BZjAAAAAXNSR0IArs4c6QAAIABJREFUeF7snQd8VFXaxp97p6cnpEAgEAi99yICKqKCWMHexbbq2j7bWtFde1/Lruja1g6oawG7qNRQgoC0hBpIAullkqn3fL9zbmYyk8xkZsKkzns0JJk59X9u5j73nPd9jwRKRIAIEAEiQASIABFoREAiIkSACBABIkAEiAARaEyABAJdE0SACBABIkAEiEATAiQQ6KIgAkSACBABIkAESCDQNUAEiAARIAJEgAgEJkArCIEZUQ4iQASIABEgAhFHgARCxE05DZgIEAEiQASIQGACJBACM6IcRIAIEAEiQAQijgAJhIibchowESACRIAIEIHABEggBGZEOYgAESACRIAIRBwBEggRN+U0YCJABIgAESACgQmQQAjMiHIQASJABIgAEYg4AiQQIm7KacBEgAgQASJABAITIIEQmBHlIAJEgAgQASIQcQRIIETclNOAiQARIAJEgAgEJkACITAjykEEiAARIAJEIOIIkECIuCmnARMBIkAEiAARCEyABEJgRpSDCBABIkAEiEDEESCBEHFTTgMmAkSACBABIhCYAAmEwIwoBxEgAkSACBCBiCNAAiHippwGTASIABEgAkQgMAESCIEZUQ4iQASIABEgAhFHgARCxE05DZgIEAEiQASIQGACJBACM6IcRIAIEAEiQAQijgAJhIibchowESACRIAIEIHABEggBGZEOYgAESACRIAIRBwBEggRN+U0YCJABIgAESACgQmQQAjMiHIQASJABIgAEYg4AiQQIm7KacBEgAgQASJABAITIIEQmBHlIAJEgAgQASIQcQRIIETclNOAiQARIAJEgAgEJkACITAjykEEiAARIAJEIOIIkECIuCmnARMBIkAEiAARCEyABEJgRpSDCBABIkAEiEDEESCBEHFTTgMmAkSACBABIhCYAAmEwIwoBxEgAkSACBCBiCNAAiHippwGTASIABEgAkQgMAESCIEZUQ4iQASIABEgAhFHgARCxE05DZgIEAEiQASIQGACJBACM6IcRIAIEAEiQAQijgAJhIibchowESACRIAIEIHABEggBGZEOYhAuxFIGzkyWqrVREFriIaDRUFWoqGwaMiaKPFdYtFgiIIk8e/RkKQaMMUsybL4DiaZJY1cIylOs+SUzRaDo0axa81leb3NwGJnuw2MGiYCRKDDEyCB0OGniDrYVQmMGzdOd6RC30eRHZlgUh9IUh/GWB9IyAQD/96nlcdeBaAUQAkklILxn6VSJr6jVJbV12RF3ndoz5q8Vu4LVU8EiEAHI0ACoYNNCHWn6xHoNWxKktPunAFIExlTMgGpD8D6SJDSO9NoGZAnMSmXSSxPBnIVScnTOnW5JB460yxSX4lA8ARIIATPinISgaAIpPadlCZrlBmyjOlg0jQGjAyqYCfOJAFbGLCVfweTd0Lj2FWwa8OuTjwk6joRiHgCJBAi/hIgAMdKID1rQgZk6XiF4ThJwhQA4461Tv/lFTCl/gsKUP8z4ARTmCgmib9qSf2Bf/GXxWuy93sMkDRayLIGkOTW6HIZmLQDkvKtRpa/PLRr3ZbWaITqJAJEoHUIkEBoHa5Uaxcn0H3g+NkS5FlgOA7ApGMeLlOgOO1gigOK0wEwxU+VMiS5/gsyUP8zoIEkq3/OTOgEpv7Av/jL4jXF+z0wMMUJRXH6b0+ShYCQZA1kjQ6Qtccy1O8hYXHh7uw3j6USKksEiEDbECCB0DacqZUuQICLAjB5NoDZEtA/1CGJm7/DDsaFAGvkQMBvxBodJFkLWaNtrSf6ULsshAMXEMzpgKLYAS4m6pMkyZA0ekgandrn4NNvjOGVorzsxcEXoZxEgAi0NQESCG1NnNrrVAR6Dpww08mks0IWBfzG6rCqgsAlBiQZGp1B3FAlSeOXA2P8SV+BxBgY30bgT//8Z7E0wL/4FoNncXVrQU3B/0mLrQjxT/3WA99mkCTw/5j47vG6j97ycQmx47Srqx71SeaiQWsIRjQsUUyWK49s2WLuVBcFdZYIRAiB4D9NIgQIDZMIpA+cMphBOQcMZwNsYrBEFKcNzGkTokB9ulafrPlTduPEl/bdX0IMqKKAf4mbtKRx2wswfst22RWI23f9joGrUsagOCyQdcaQBAIkvgXBK+GCg4sR5i1KPDtdLxxcggKyBJkLCr79wMcqbBi4wOCLDDYodosYn5AsfFVEZ1S3KBolieFnjUZ3Wf6uVQXBcqZ8RIAItA0BEghtw5la6QQEMoZOvcFht58C4Jxgu8sUO5w2fjN0iJu6rFOfntXbuJrEjV9xuAUB+M/1BoLcSFC9waqiwNNY0KjXQ6tRjQdlWYZJr4dTUVBTZ4HFZmuoX1HgsFRCF5XgJRBiTEZEG7logCjnWcZmd8DmaHjq9z1eVTi47BlcqxnCSFIYSHJJ4RSGkq7EbRWEWBCCQRI8xPYEFwxMESJBY4hp3FwOIF9SmLt2R7DcKR8RIAKtT4AEQuszphY6MIH0geOSF1x/46Ktq1ae9WfeHpnffINJfJVAsZnFU7eGPx3rTN7FGL9v2sAcNmF8yG+Wqn0BN/jTCe8BnvhNXKfRQq/TIi46BiaTEXB62yfoDHokdktx13+04DDMVhv2HD6sCpBGAoELi8we3RFtMiE1vafIY7fZUFNdhdrqat/D06hbHnV1FtgddtRZre58dTYbFA8R0JiRugjhVFc/xFaIKhq4eGBOBbKW2ynoxWqKw1ItxJLWGCM4uBIDvirKzT4zGPaUhwgQgbYhQAKhbThTKx2MAA9h/JcFd7x13LSp5yanpGj/ds312FtYKJ7Om0t8+dxpVbfMNQYe8dh7+6DBEFF9wle3GfTCC0Cv04kn+miTEUkJCW4hkJCcjPRePZHeuzcSkrshsVs3GE0mpPfO8NmV8tJSvPbYk9hz4CCOlJc3EQhDM/tg6KiRuPDaBTBFRfkdTsHBfFjq6lRhUFuLovxD7rzlpSUoKy6FuUYdKxclPpOs2i04nU4hLvgqhcmgR01dHfgqRVVNJWzWWmGjIHO7BL1JrK7Ya8uFqOLiypUkxv5WkLf+yQ52qVB3iEDEEiCBELFTH7EDlx979b/vTjxuygXdkpPdj7CBBAK/8fOnX560xlixGuBKYguBrygoVnGzVr0RuDDQISbKhLioaCQnJoin6qjYWAwZORw9emWgR+8M9Bs0sEUT8WfOZrz/r9exJW+Pl0DgbQ3onYG/PftUs+KgRY3WF+JiotBLTJSiooRHZ1bTj19+hYRuSTBX14iVCy4g9h3OR1l5sdh+0HCRIOuESGgksrh/58zC3PW/HUv/qCwRIALhIUACITwcqZZOQODOx15+ePqJJ9zdKyOjyWO1f4HAYK+rFEvnGn20WC5vUAYKnMJTwSZiE4iVAo0OsVFRSIiJQbf4eGg0GvQbPAgjJ4wXYoCvDoQj7d21G2888xy27N3nJRDSEpMwdswY3PzAveFopkV13HftDZh+2qk4bd454Ksdm1atwZoVK1BaUoKde3bD6XRAozNB1hmESPASXBK+LdydzV1JKREBItDOBEggtPMEUPOtT+CS6x4ccdwJkz6cMu344f5a8yUQnGJp3AqN1iiWxl1JBBdyWsHsNmFLwI0StToDUuLjkNatG7QaDYaNGY0RE8aL762RmhMIkydNxHV3/19rNBtUnQ/ffBt69emNa++6wyv/T19+LVYXduzdjdraGvcWAxcJOlOi20OTSbiiaHf2e0E1RpmIABFoNQIkEFoNLVXcEQg88a8P3p520omXR0VF+Y0lzJfMH73ldrcNAjc8dNRWiOVwrSneSxgwpxVOLgx4ZEGtEUajCT1TUhBrMiKlR3fMmH0aho4e1WrL+67OdGSB8Ox9D8JgNOCvDz3Q5BLg/X7npZexa18uystLodHzk6olOKxm6KISXfk3FuZmj+8I1w/1gQhEMgESCJE8+1147Dfe+/RpJ5128nv9svo1mP/7GC831Hv9qWdQWV2DPQUFsFvNwiVP1kWJoEYiMQanvU4EPhKeCFoDjMYotzAYOGI4Zpx2aovtCVoyDR1ZILzxzPM4dOAgHnnlRZ9D48xffvQfyD24H1VVZWLrRhUJNW6RwCR2Z9Hu9c+1hA2VIQJEIDwESCCEhyPV0oEIPLPok0WTpx9/TXR0dLPX98bVa7DkrXdQUlmFgtJSsR/O17nVeAJq4qLAabeI+ECy1uQlDEZNnIBT550TNruCUBB2ZIHw7dLPserHn/D3f73id0irfvgJy5YsxR+7tsNmMauxESRJiDOtGich32C3jdy/f3NFKFwoLxEgAuEjQAIhfCyppnYmkLOvPGHL9m2/jxg5wq+tgauLX3/8CVb9+DMOFZeguKwYir2u3nBOdbsTdgZ81cBpF8Z0Gq0JyQnx6JWail6ZmTjrkov8uiG2BYaOLBC4OPj640/xxJuvN4vi1ceews4d25F3YB+cdiu0xmhx9gOPq8ANPhnwdFFu9j1twZPaIAJEoCkBEgh0VXQJAo+8/PZ5x08/4d3EpMRGEYu8h8ftDT558y3s2roNu/MPobryqNhC8DSS48KA37AkjUaIBpMxCv3Se4ggRhdcs6DVDA9DmYiOLBDKS0rx9L334fp770Jmf/9nWnEPh6fvuU/YflRWlgpvDI0+BorTUh8fQbI4mXP40byNe0JhQ3mJABEIDwESCOHhSLW0I4HXPl7+3uSpUy4L1AW+9/3R62/g6JEj2LlvD+rMlcLQkPvl86SeIWAVT7Hi7ACtAcnxcchIS8XwsWNx1qUXt7rxYaAxuN7vyAKB95F7hcy98HxMPXlms0Ping0/fPW1iOfgtNUIw1DO3lFXLbZ6JEhvF+SuuzpYLpSPCBCB8BEggRA+llRTOxD48Lu1GwYPHTwuUNPCev6fL6Osshp79+2Gw2mHjnsoiDMDILYTuK2BOG2RiwaNFn3S0pAUH4cLru0YqwaeY+zoAuHBG27CmCmTce4Vzes2vqLz3P0PYu/BQygqLYbDUgMNP8tCoxHbO9yAUYE8+Uju2nWB5pjeJwJEILwESCCElyfV1kYEuL3B0bKS3SmpKc16KfDuuIwRj5RX4NDhvWJ/m0fw44lHQXTa6sAPXdLookQgJH4w0sBePdEjPR0L/u+2djFCDISxowuEhTffhp4+YiH4GhePCvnhvxdh+779sFjMcNpqxVYDnxMeZ0Kj0X9TkJs9NxATep8IEIHwEiCBEF6eVFsbEHhz8fcz+w4a+GViYoL/gwbq+7Hk7XeQs2YdDhQV4ejRQ17ui8xph9Ney09VqA//qx5Y1Dc9HZm9M3DTA3/rMFsKjbF2dIHAXR0ry8pw5xP/COqKePull7ElZzN2H8wXAsG9emAzi1gUTJJOL9q9bllQlVEmIkAEwkKABEJYMFIlbUXggitue3v+5ZdcnjVwgN/AR7wvfOl60dPPouDQYeQe2Ieaau+Qvk6HBYqtTtgZ8GA9rqTXajG4d4YI8uPvsKS2Gmtz7XQGgXBo/wE88upLQeHiBovPP/Aw8vIPobLWDKelWgSj4mc2cCGnMcRkF+aumxRUZZSJCBCBsBAggRAWjFRJWxDoN3bOK+mJMTclRBmatQvgxog8Wl9paSl27t0Nu83iEaVPgdOqui9yYeB1tgIgjBJHDR+GO/7+SFsMqcVtdHSBwF0dv/l0CR5f9K+gxyhCMX/9Dbbt3SfOuHDw+Ah6o3A55UJO0uguL9y97r9BV0gZiQAROCYCJBCOCR8VbisCWePmvKQ1RN3C24vTS0gyyJh55lxhJe860pivGvAb02/ffo+yqmrk7tkpPBK09YGP+I3GaTOLmP/c3sDzREbXONISEzFn7mzMv+rKthpai9rpDAIhmFgIjQf/2B13uY+x5h4lTkcttPoYOGy10BnjDxTmZWe2CBgVIgJEIGQCJBBCRkYF2ppAv/Fzntfpo273bNeokZAapYEMhtSePcWxwuXFxSIaX0FJCQoLDwgDN60hVhTjBm8Oay1kbvSmi3YfDNR4LFwgnHjiDFx2841tPcyQ2uvoAoEPhrs6XnjdNeARJ4NNrnHtPJgPm8MBp9UMxpgIVgWxkmC8ozAv+4Vg66N8RIAItJwACYSWs6OSbUAga/zcp7V6412+muIhemGtRoxJjX5osdlQXWuGo67KKyoiP46ZrxyoRwyref2lpNhYDOybiQdf7NjHAHQWgRBMLITGc/HobXeIVQQeAlt4mVirIct68bOs1VmdSkVm8f79RW1w+VETRCCiCZBAiOjp79iDT8sc+WFcauZFje0EeK+5OLBUl3oNwC0EDLFipYAnHhFRsdcKt0bu3hgocRfH4X0zMff88zB1VvNBfgLV1Zrv+xMISbFxGDF0CO4O0nugNfv40E23YsDQwbjspr+E1MxT996PXbl5OFLOz8ZQA1jxlQQ+h9ywlAdT0hhjrQAcAOziO4MDUv3P/Dv/vf49CbAzNW8tAzssQT7MmFIgQ3OYaZQCu+w8XLJjY2FInaTMRCACCJBAiIBJ7oxD7Nl/4hRFYqvttRWITx8Mbf3Jivwp0lZbDWttpdewhGucw1p/0JJ6WXNh4LTboTXGCIv4YFNcVBQyu6dh/tVXYtxxU4It1qb5+FkSP3/3A3YdOChCFDsslWLseq0OQ/tm4uIbrmv3kNCP/9/dSOneHdfedUfQbFwnPe4+dFisCLmSiFXB7JAkDZjT4XUMd9CVN5+RHwFxGGAFgHSYMRyWgL0KpDVHepk2YMUKLjAoEYGIIkACIaKmu3MMtsegieOhYL3oLVNgr6uEPjYVGo0Mh40/OHonvgStOB0engqAw1oNftoPFwd+DQ6awcG3GnqlJKNP/yxMmDYNSSndOgy8jStXi+BPrpuop0DgY3X1na+ADBszut36/fVHn6K8rAyX3XRDUH0oKy7FFx98gOKycuQfLfYqw+/eTksNIDH+P19BCKrOMGVSwKQ1kqSsUWSs19rlnEN71+WGqW6qhgh0WAIkEDrs1ERmx9SVA6z2HD1fNXDUVXodqOR6n9sbcK8ErTHOXcReVyH2rDWGgHGUmoXMYyIkx8cjOSkBcCodY0IkCVaHAwcKi9xP2I0FAu8ot8vomZoKg1YrDqPqDMnJGEoqKt1bC437LAxNLTWQJQ00pob5bqex7ZOYELGbACmnIG/dj3zRqp36Qs0SgVYhQAKhVbBSpS0hkJ414TgmS6t8lWXMCUWE4I11Lwg46ioAWQdtfdhkXs5eW+51AFNL+tHZyvgSCJ1tDMH2V6wMKU5oTQnBFmmrfHsl4Dsw6Tu9w/Td/v0rLG3VMLVDBFqLAAmE1iJL9YZEIDPzBKNVV1vXXCEuEvhetNYQowoBnan+WGC1VKcUB/zpnq+Z8//Fk776s/s1sUHCxEse/6gD5ll5WYVBcbiPSAar/6vmbwk1JX6QxEKC5P6L5z+4VhZ4nnryHnmY+0XX22oZtbaGeutfqK/AVa9aofjN3ZRahpcVQ3X1U81VP1J17KJ+jzziFQbwCJjgQa7adoshpGuZ2zIwIRbYd1ZF+a5870Zvg5lQa6P8RKCdCJBAaCfw1Kw3gR4DJh4A0DsQFx7syGGpEiJB0ujc2dtdHDB+41TAFH5XU8RNm/8Oha86M/Xmz/MIMVAvAtw3aD+jlvhNURI32IY/VM9fGl5likOcgChuyryMS0G4b77ue7BLWai3enHPbhALop9CRdTLAyFC3GrEW1QE6n+gyQzxfWOMagdit/EDnawN4oNzchPinZUgyXxg/FWN+p3/Dg0kPrYGlRRiD1qUvRiS9J3C2CdHcrO/blENVIgItBMBEgjtBJ6abSDQo/+EZZCk2cEw4UKAu7txtzddVKJ6w2jNbQV+U2cObivJzeTUm7z4Uupv9ErDk79rAPwIaUmCLI6SlgBZrn/idv25yeo9Svxaf6SE+8bVcKsLhoe4dXt4MbTEIDPYdvzmqxcRLlnievIXAoS5xuNaIahftajXIa48YrmgflGiwWLCtYSgvhKdmA6t3ojKI3kA4yGy6sWWW6jUr7TUizRVlNXPjzqBInE3SeHVImmEO6yIqNkGooEBXzFgEQmFY77iqII2IkACoY1AUzO+CaQPmPg0A3wGQvIuwcBdHl2igD8xOyzVIousNYrTGI8puYUAXwVwipsuFwYuAz/1yZPfzPnNhf/ZyIAsQebf6wUBv/G0xY2m8TjbXSAcE/jgC0fFp0GrN6CKCwQ5cEwLr5rFoo1TFXN8VYfPsRAPXPwpqmjQ8MOhVMGgusW2zscjCYXg55xyti+B1vkLaN8xUeudhED6gIkXM+CDgN1VFNiFn7+6YuBKx7JywAUG96fn7pGeQkA87Uv8RsGXoxu+t9K9IuDQg8nQWCD89YYLmy1WXFKOj5d8F0zVHSrPMQmEZkeirggxJxeGdvBrg28Rga8u8GtAq4PMVxnCnEgohBkoVRd2AiQQwo6UKgyGQI8Bk4cAyu8Amg0woCgOKBYztFHxIYsDWdbw0LzQaHTiXAZ+0+evcRHAXeV44vWrKwbqqoHTaYfTYRenPXYW98DGAmHtiv8iKdGblye8U+ZcidzcPe6XtIY4t/1CMHPXXnl4sCw+L9wgM+QVhBA7LVaQ6sWC4rBD4teMrIOk5ddRg+1LiNX6yc4W6ayGew8eXKmGjqREBDoIARIIHWQiIq0bPQZM/BXA9ObG7boZuA5ccuV11FZC0unF2QqeSdZwl8coaHU6EVbZFW65JWyFqaE4w6EOdkutEA4dNbVEIOTtzXcPR6M1dgqBIASdwwrmsLWpF4MqFmxQHFxMcrHAV5b4NaYKzzCljRLYvQW563k8BUpEoEMQIIHQIaYhsjqRPnDSq4yxZo9LZE7+gWyDxsAjITYkHlKYG5dxLwZX0upN0BmjoBOBkVrnkrZbzUIoOGzNemK2y0Q2FgiD+vcJ2I9dedxppPOl9hAInpTE1hRfYVJsYsWJC1FJZwjbFoTEcG9BXvZTnW9mqMddkUDrfJp2RVI0prAQ6D5gwlUSpLeaq8y/OOBGiUxETeS28TpjtPjS1J/TEJYOBqjEVlcNCz8HQrgvdowUKUaKnHZ7CwS+RcXda4Whar3Bo1hR0OrVeBV8tUG4tXL3UdWDgq8+8S2soJOExQpj9x7JXb836DKUkQi0AgESCK0Alar0TSC1/7gsjaT5BUCGP0Z+xYHVzO8O0EYnQm+IUYWBNtx7wcHNHF/ZsJgrO8xqAgmE4OYt1FxceGp0fKtKJ641bs/C/VZakoR9i8Pqtm8Rp4w6mz3/aZckKwsKdm3wGVm0JX2gMkQgVAIkEEIlRvlbTKDHgInvA7jEXwX8WF8uEDR6720FfiojtzA3JfaEPiombMu5LR5IfUFrTQWs/CyIdk4kEMIzAVwAaPXchkUVBsJttRUT365y2CxCaPoRCyWMKecV5W1Y0YrdoKqJgF8CJBDo4mgVAtnZ2d2ZVtvLVfl9Dz97zvadeff5FQfc+ExxQKOP9sqi2HkIYQOiEntAow3R971VRuZdKV9JsDU6eroNmvVqggTCsRHntivcuFW1YWmfZOdiwVIDu7WpjQtjyokkEtpnXiK9VRIIkX4FhHn8W7duTbPaHP+GhLNdVecfLsL9jz6H8grfT9tiX9mHOOD7toboOLhC7Ia5q2GrzlJTDm6b0F6JBELLyPNtKr0pBhqtoWUVtEIpvvVgt5hh40dbeyQSCa0Am6oMSIAEQkBElCEUAhs3bf6Rgc30LPPUi4uwcs1Gn9UIccCc0Oi8n974h7fBFCf2fTtDMlccAf9wb49EAiE06lqDCXpjrAjb3FGTw26B1VzpfU05tJmF+1Z3TveTjgqa+tUsARIIdIGEjUB2Ts4EmSHbs8JvvvsF/37rY59t3KnVYMmwE32+V1ddCv7VWRLfQ66rKhZGaG2dSCAET9wQHQ9Do6BbwZdu45yMwVpbAWute3WqujA3O66Ne0HNRTABEggRPPnhHvqmTX9cpMCZnpCQkJacnDyxtKQ8+sQzLh5qt9mbbO5erNiRHBWHLwdN9dkNvsRaU1YQ7i7y4xOg4V/qUQrCW9HJAIfr3J9jaJEbm9VWFh9DDS0rSgIhMDe+EmWMTgCPmdHZkt1ai7qqErXbTHqjMG/ddZ1tDNTfzkmABELnnLcO3WvG2IcALnr82Vc3vbLovbGNOzvYYcUTeh0+iktDdp9RPsfisNahqrQh2l9LB6yRGKL1EoywwaCVodf5j3xntdlQa7XD4tSgDsYWHWbcHvYIJBCavzq4OIiKSxbuip0xjchwIDFOg5XrC1BhdvJYYP9XuDv7+c44Fupz5yJAAqFzzVeH7y1j7GQAPxQUHdk5fvqZgxt3WLFb8bBOg7GyjBe6D8LBFN9R/45VIETpgFitAzGGloXC5YFuquqsqHYaYA0hxg1fkqipPCqiQLZVIoHgn7RWp0dUQvewTAX/sDRqAa3csArFV6O0kroK5fqyOIC6ZkMchNadGcMkbC0fgNSoGlQXbMKOAzYowBl0bHRoHCl36ARIIITOjEo0Q4AxJs5YuOzaO/b+9Ouqfp5ZuTjgfo+vGtQnufsHTkOtwfeSL99eaGzJHQx4gwZI0DkQwz/JPZLBoMfgIVno06cn0ronIy4+Fga9HhaLBeXl1SgqPIp9+w5h5468Js1U1tpQYdfBwYL7c7HVVcFSUxFMd8OShwSCb4x8xSAmqccxMebbUCYtEK0D0hKjMGhQX/TJ7InU1GTEx8dAr9fDZrOjqqoaRUXF2L/vMLb/mQuLzQ6zHaixHbtYcAkEPpBLh2fj8xVHse2w8aui3Owzj2lwVJgIBCAQ3CceYSQCQRBgjF0B4J31OVs2n3XBtaO9xIFwZXRinsGEKySGckh4dMQsn7XWVBTBVht6AKJ4rQ3JMd6xEo6fNh5Tj5+AseOGBTECwGq1YcP6LVj523ps2vSnu4xTUVBaC1Q7AgfP4eOsKSsURwi3RSKB0JSyJElP1qphAAAgAElEQVSITuzR4gO7+MpAogmI0QKzZh2H46aOxYiRTRbEfE4vX33KXrcZv61Yhw0btgqhUG2D+N6S5CkQFoxeh/MGb8C8V/pg62EjrSK0BCiVCZoACYSgUVHGQAQYY/zxO2vqyfNq9h085A6HqEZItIsgSE9KCgZJwDatEf8Z0vQwx5aKgxS9BXFRDW5rJ540BWedMws9eqQG6rbf93N378Pnn32HjRu2ufOU1VhQ7gjsHteWtggkEJpOoSm2mwjH3ZIUp1fFwdzTZ+Css2YhqVtCS6oRZfg1tGTxcmzO2S62HfiKQlWIu0+NBQIXCYfK9Jjw9/60itDimaGCwRAggRAMJcoTkABjjEdJfOzVRW+VLXz0ySR/Bf4TFYs0WcaPcWn4ppGBYkvEgSQBaXorok1qsJuUlCRcfc35GDtueMA+B5vh559W481Fn8DpVI0RKmstKLE1LxIcVjNqyw4H28Qx5eMHAnG/eZ3w6+/af9LcnZSv0DR3QJfWFIuohNC3Fvj2VJIJGNQvHVcvOA9Dhw04pnnxLPzt8t/w9n8+FS/x1YTiWicYNEHV70sg8ILPfBWDZ75Lvq94/7YngqqIMhGBEAl07U+TEGFQ9pYRYIxxK7C91TU1dQOGTUhy3Uh91bY0JgEGMLyf2g8b0/q7s/A9+9qqoyF3IM1gQYxJvVmPGDkIf731SsTHx4ZcT6AC+/bm458vvYuCw0Uia4XZglK7f5HAAJiP7g10IE+gZoN6nwRCAyZ+fkJ0cgbkEKMjcjuD1CiGqceNxV9vvRw6Xfg9HnZsz8NLL7yN8vJK2BSgoMIKpxw4iiP3YjjsHCoGOa33Xjx10tfi56o6Gac8lZa/bkNu76AuFMpEBEIkQAIhRGCUvSkBxtgrAG76v789XPvefz/yG9A+Li0Lr9ZVIFFx4Lneo3EoXl3+50Z9NeXqjTeUlKy3IL5+W2H8hJG4657WdQ/nH+xPPv4v7N93SHSzpKoWlYr/+P11lUdgb4NzGkggNFw1hthkGGL8LmD5vLy4x0tqFHDSiZNw482XhXIJhpz30KEiPPX4v3D0qBoEbN/RKij65mMfpSc5YTEOEfnHpB3Gq7OXutvlqwhPr0gdXLJry66QO0MFiEAAAiQQ6BI5JgKMMR7nQMRRTuk10G9dMd0yxAf3TdXFmGgz455hM2GTNS0WB7GSGanx6h4zXwp++JFbgx4Hv6EWH62A3W4H925ITgl+j/no0TI88vCLKCkuE+0V1iio9WO4aLdUo668MOh+tTQjCQSVHD+JMaqb+3ywoHDylYP0GGDCxFG48+5rgyrDM9msNpSVVoEbrxqNenRLDv4a2rcvHwsffEl40PC0+8BhaOJ7Ntv2oP7pKK6NwYCkYrx75kfuvPmlWkx4MP3TIwe3XxB05ykjEQiSAAmEIEFFYrYNm3KOSJB+BnO+O27cuG99MWCM8ce1By649Jrrfl7xm0+rMFN8mtsXfZalCpeay3D7iFOEG2NLoiXKtgr0TVU/kOMTYvHEk3ejW3Jis1NUUlqJnA1/Ytu2PBw8UIhzzp2NtO4p2L49F6tXrkO/rAwMGz4AEyeNhNHY/PIyd2N75OGXRHs2ux2HzDqfQZW4F0PN0X1iz7w1EwkEla4psQd0xtC2l7g4yOqdhsefuhumejsWf3N16PBRbMz+E9u356GosASXXDZPbGdt2rhFGCH2y+qFkaMGYPKUUeBeFM2ltWtz8MKz/xFZzOYa7D18BFGpWX6LTB9hxLZSdSdh9ZX/9Mo3/8WUqqU/7otvzWuM6o5MAiQQInPegxr1xk05fzJA3fwE3h0/dsyVvgqmZg5fqNitD/t6j68a8NUDV0pT7LjIUo23MsegpvgQFBbazdNRV41Ukx2JCeoy8m13XIUpx41r/sN4zZ9ITEzC558tR2HBEZF33vzT3QJhxc+rxGtDhg4QLpGWulpMmKQu6fpLny/9Dh9/9JV4u9TM4yT4Poq6rqIQ9lY+6ZEEAiDr9IhJzgzqunZlSjAA3UzAAw/d3KwLo83mwPp1O5CckoyPP/wCZWVqjAtPgbB2zSbx2pixIzBqNP+TcWDMWP8rajzv2/9ZjG+X87AhQH7+AVRYnIhK8Qod4h6Ppx3C0vlvo0dMw+mhz3wVi+d+TBlxZM+WBnebkEhQZiLgmwAJBLoy/BJoJBC4gfyV48eMebdxgdSMISWK4ujW+HWdMQbc7qBxOs9Wi6WG2JDFgTj5sTIfA7NU48bJU0bj9v+7xm//Kyqq8eH7X2PmySeIPHz/98sv1IWQxgJBo5Fx/V8ud9e1dk02rrjqrGavjrvvfAIH9h8W8Q72V0lQfARSstVWwlKpipLWSiQQAENsNxhimlyCfpFzjwW+enDKKcfj2usv9JuvsLAYiz/5HqeedpLIsydvP777doX4ubFAiI6OwhVXne+ua3POH7jgotP81l1XZ8HNf3kINTW1sNls2Lp1E3TR3RDd3bf3hGub4cmTvsb03nvd9a7ZE4Wzn0974eiBrXe01jVG9UYmARIIkTnvQY26iUAAasaPHeO1hpvaZ/idisP6TOMKuRtaXGo/yNqmT9bRTIFZChxwqHGdNYW70Cs1Cd26pYi3HnvyLvTv7ztUc3W1Ga/+8yPwD/jhIwZh+owposzPP67Ezp15mH/eXKSmJWPHjlz88tMqTJo8FuPGjxR5vvrfd8jPL8SwYVm47i8NH/iN+7Py9/V4+SVVLxVX21DlbDpWfgS0uaR1T+glgQBEp2RC4+Na83ehp5iAOAPw8muPIDXVt7A4UlSK1175CFxojp8wChMnjRHVLfvmJ+zfl4/LrpiP2NgYscXAVxBOOHEKhg4bJPJ8+slXKCkuxbjxQ3H5lf6FpudK1P79e1BaWgxdVDyiezRdwZoySMGu6sE4f8hm3DbpN6+hpd6UuaH4wLYJjce7cdNmdR/DIzkZ+33iuDHvBPUhQJkimgAJhIie/uYH70MgQKeR00aNGuX2R0zpNfgIY07vaESShLjUviHvBzfXG0t5PqzlBRgzZgK4Kxtfxr3vgRv9Fvl86S9Y8cta9/vz5s9BWvdUWC1WsUScnp6m2g1IQMGhIqT3VOP179q5Bz/9+Lu73NnnnooTT2py3pT7ff4EWFxcBovVhsN1vrcZqo/saVU7hEgXCNzugNsfBJv46kGvWOD4aRPw11t58M+miTP96P1vsW7dZvebl1x6LuIT4lBTY4bZXIe0tGTxHjc3OJxfhPRe6jX0x+Y/sWrlene5Cy6ai+OmjvDZTlVVDa69+l7xXlVVJXJzd4if/a0kjBqcAoeiBd9m8EwTH+pVt37TziYuNRtyct4HwyWeeRWGq0ggBHu1RHY+EgiRPf/Njt6XQGBOecSECaPEXmdq5vC/KHbra40riU7qCWOs+uEZjuSorURN4Q4kJCQiK0t9Qrvhxktx4kmTfVa/PnsH4uISkJ9/GOuz/xDnLEycOAbjJzacHMkvfJdA8LQw/HbZCuzdux99+/XGhImjkZycBKdixdChvve3P/jvF/jyfz+KfhyodMLBmga/4QGTeOCk1kqRLhCM8WnQRwVvo+daPbj73hswbrzvgFprVv+JpKQk7N17QFxDpSVlmD7jOAwfodoV8HDKLjtE/p3/zpOiKPhsyXIcPVqMAQP7YdYparRQrcaJrAG+PSyeffoN0QZPmzdvgNOpnvRkTOgBYzfvFbIB3R2wGPrjtdlLhUeDK83/ZzqW2tJ1WLHC65goEgit9VcXGfWSQIiMeQ56lI8++ug0RVEW8JDJM0+eNdoUFeUOmcwrWfX776vLy8tq+M/5h4tmMuZ9Rywqt2BPYRhvhtwToGAHHJZq9OqVibQ09Snt9TceR0JiU/9xfrPctjUfen2DJwJfDu7bNwPCRKD+g9wNpNFr3PWxsOAoevdpcDurrKzCxEmqMGmctm3bjb8vVK3KC8uqUCs37ZO1ugTWGtUtsjVSpAiEqKRe4GOtqyhouCMDiE7u02xkRU/mMpzom6CBVqvBfz98AbLcdKurpqYOhw95H7bFr6HMTH6DlxqCVbpUQqNrqLa2DqWl5cjISHc3XVZajilTXfa+3lfBjz+swhuvq66Le/bsQkVFuTsDN1rUx3kv0PGthqw0hgeO/8Gdb8FbvbBsiym1KC+nQTUAIIHQGn9xkVMnCYTImeuAI124cCHfhFcfZQCccOJJiIn1dhv79ZdfUF3t+yCl0sparNh4ADZHaJ4JzXWsrvQgrPyGAGDgwKGIjY1Des80vPDSgz6L5WzagXfe+gIjRg4RKwBGY0OkOs+nPhGRmIuF+u/8PX6vcD0J8sp5YKT12ZuRl7sP99x3DdLTVdsHz2S3OXDpxbeJl0rLK1AhNfWHd1jMqC1vvbDLkSMQMqA1mFBVlOueKEnWINaHIay/aypa40D3WC0GD87CI/+43We233/bhCWffoex40aK+AgajboqpK4U+FKZ/q/g4uJSZK/LwYH9h/DQwr/4jJeQn1+AO29/XFRSWHgIBQVqIC7RpiwLewRtI/dNLhIeP3WN25vhhR/S8OTnhsuOHtz+vmdvSCA09+lC7wUiQAIhEKEIen/hwoULAbjdFUMRCPwm9cvGAziiLi6EJdlry2EubAgQN2LEWHG87oSJI3Hn3b6jJn784TKsWa1qHL1Bj5knH4++fT0j0TZ8wLv0Ac/LIEHyWF7I2fQn1qxu2Ec++9yZOPGkiT7Hddstj4pVh6rqShy1x4DftDyT026BueRgWJj4qiSSBYJGH4XoEIIjpUUxxOglzJw1Fdddf5HPOXnj9SXYtjVXvBcTE4WTZ01Dek9vGwe3tvTcahBXkLpExa+y1as2ICenwfPwwotnY8pxXoecutu/+IJb4HQqKC0twf793keOc3EQ3WNwk+vqxAFlGN6jDPHRRvxZmIhD5vSl/ftmrPYc1PHTp1+SkJDoZURDNgit9qfY5SomgdDlprTlA3rkkUf+xhhTH2UAHDf1eCR187bw9reCkLOrCDsPlLS88UYleXAhc8F2r737sWMniQA0p82egasWnOezreeefgf5+Q1hm088aSoGD+Gult6XOq+H31jdn+burQdVKqxevQGbcxqOe544aQQuvvR0n23+/ZF/YtvW3airq8XBciu0Ud5BmxSHDTXF+8PGpnFFkSQQNDo9qo/uda8g6GO6wRgbnHsjd5MdkKyuKJ1/4VzMm+/bBfGRh15DeXnDKtmcuTPRp0+vhhWn+gnwXEvgwoBfN57p559WCqNXV5o+YxzOne/7iPNbb16IoqISVFdXYvdu1VDRMxni02BK7uv9mk6Dkyf2Q1y0//Mcxowbh549vW0fSCC02p9il6uYBEKXm9KWD+gf//hHH6fTuZExJj5x+2X1x9Bhw7wq9CUQ9hVUYO22hmXRlvegoaS5KBd2sxqvnidZ1ggPBp7OnXcqLrjoDJ/NcPsDnU7bwi74Xz6urKjCxMm+7RBcRmZ2uxW7DhQ0+SBnTod6U2ulFCkCgeNrfJqjKaE7dKbmzzJwYXfWlmFguhpg66qr5+O0OWp8DM/kdDLk5QZ3LojPq8XTYrFR3c3ZIdz/t2eRl7sftbVm7Nix1eeVwgUCFwquNDwrFSOymj/OnARCK/3RRUi1JBAiZKKDHebChQt5KDceMai70WjUn3zKqdwPzG3J9fuvv/9v1dp1Z7oeyR1Ohr1HHbA6lGCbCJivsTjgBXggo9Gj1SX+efNn4/wLfT/NNycQ3FsKjLlD4fLXfD39Ne5kRUUlJk0e7LPvngLhz527EZvh7dLGAylVF3kvGweEEEKGSBYI0d0yoNGbgqJlrziMwZmq8SlfgeIrUY0TtynZu9fLzs8rC//A5Fd6wwenKhOCuYZKS8tw3FRvwe2q/OEHXsDOnXuaFQh864pvNbjsESYMTUf/Xs0fTEUCIahLgzL5IUACgS6NZglsyMm5AgzuoCoPPPLskg0bsue7CkUnpsMY19R4ryVYnVYzLOUFXisHrnr4lgDfYuBp7pkzcdnl5/hs4v33loEHSXKlkaOGus9p4PETPK0QxYe651aD+OBX95HzDxQgL2+fu55eGd1xxpnTfLbp2mKwWOqwfed2xGc2Df1cut9t+9kSNFTGD4HEjGGQNcGtGFmO7sawgaqbor8tBkVheOvN/4mDvFxpytTxwthV/bD0/shUd6Z8u8bwqIsHDzQYp/bt1wunzVYDdjVOd97xOPIPFqCmphq7djVsbTXOpzXFIyZdDaLUKzUO00Y3f9IzCQT60zkWAiQQjoVehJR96aWXrktN6/56jx49sPCx57Dtz+1i5P5CKYeKhQsDW9VRWKuaD0k8atQE4Z42bfoE3HyL7wA3by5aiq1bdru7cNzx4zFm9HD/3o38s52vj3h8xnOB8PNPq7BrR8NT/6xTj8PcM5o+cfKGbr/17yg4fMT94Z7Qb1KDk3x9T0oP/AGn3RYqGsofgEBKv3HC0j+YVLV/I0aPGitE4ck8xPJ1vkMsv/Dce9i/r+HGzo0UBw7MaqwNAjTJ8OX/vseh/IbTPM848wScfIpvgbDgyrtFyOWKijLs2dNw/fpqxJTcB4Z41WhyUJ9u6N+rG6L5sZSM1Wo0GqtnmTHjxkX37NnLK4IX2SAEc7VQHk6ABAJdBwEJPPTQQ+fJsvxpeWUVPvhUPaCIJx5KWWcK7fQ8V1luMOaorYC9rgr2mgZbg+Y6M2TICERFRWPgwL74++P/5zPrLz9n44vPfgKPi8/dHIcOa3xgjrok7PZydK8g1Ee78fiL2LhhK9Zn54jgN9ffeAGGDm16kI7T6cTFF6hHTZeVlWDfvjzE9R4NWWf06l/Zoe3g7o6UwksgsefgoK5BW3Uxao/uwbBho2A0mpo9IvzL//2Cn35YK6ImTpw0GgMGNMy7XH+9uPSkpyeM2222fojcK4G7yfJQzDzdctulyOrfcHCZi0R5WSVuuO5+8euRI4U4dKj50NyyVoeY9GHua0wPdbVDqSl7My466hdPwmefM/vGmSfPmOr5GgmE8F6DXbk2EghdeXbDNDaXQPjpt2zs2KW6f/FIiTxiYrCJCwKntVZ4JTjM5XDaQr9ZZmZmiXMYtFot3v/oBZ9H6paVVuKrL3/H5CkNy/wOh0OU8Yp+5yuSotenfcPI1q7ZiCuumutzqLt37cWD9z8v3jt8+CCKigoQkz4U2kaGcxUFu8EPbqIUXgKxKX1gim/eUI+3aC7cAXttJfr2HYCkpG7iaOd3/vucz84cOFCIVb//gXHjGyJvWq02GAz8QTxQHATfF1Fz19CG9VvwzFOLRF9c5zEEosSDJ7lOfkxCld8nvbPOmbNq5kwSCIF40vu+CZBAoCsjIAGXQPh+RTZq62rBoIFDNngty9v40zG/A4tHK6V+r5//roA5reK7Z5o/72yLTqezeL72+qK3GkLI+ehV97Tuml490sWma3NH9K5auQ3JyarrG3dV5E9x3N2x/4CGcMnuj3keGM/VbQAbN2wRBzjxADmDBqmnRlaUl2PSFN9R8JYuWY5PP/5G5Mvbu6+gqqbaYohLiTcm9HD73jnslvKqw7neofl4AYm37JHUKDwtTy2tr3E5Vw+OtT8tH0nQJTUGoy42JTNR1uqi/RWyVBaVWSuPCHWWmpIc16tHTzE3Dz9yG4YOU+e4cVq96k9066YaAPIwyBvWb8bcM2d5REdsEAoifoZYWaiPf7B6Aw4cOCwOd+rXT7UR4O6L4yf4NnL1PPZ5+64d+2vr6rhxTL15Q/01wX/3mI+Y2Bj5kiuuTpdkvU4HEV3Z+dO3Pz5htXovU82aNX30mWfPaThQgv91MqmIzmII+hKL6IzH9oEU0egiZ/AugRDOEY8bP35Fj/Sebj8zScJr48aMuam5NmbPPjtLkrTCMOCUU6dhwbUX+MxeUlKFkuIaLOYn6pWoIY5nnDAZw4a7PqA9wiI1eiBctTIbf2xWbSx4qNwTTpqK8RN830R4nnvvehr79okgSGXLli0RN57Bk+efwGRwl4tbJLBPHPG19+UtX+61NxxOlpFeV/9p5w2VnexTCWjkIiAVSHDev3P1Z24j2zlzLhgIOEX0rTmnn4ArrnLb23phPHigEHV1wAf/XYrKymrx3qmzT0BWVtMzORp7Nv70I49/oNqv8CBdU6aO8+sBw/PceMODKC0R2njXsmVLfKuIRpO8YcOGeMgaL9FZXVlhOvHEE71Ed6RfGzT+YyNAAuHY+EVE6YULF/L19cDruCHQmDhpytmpaanuYAaM4dUJ48bcHKiKOXPmr+D3e77c+/qbT4ilYl9pc85OvP2fz8Vb3bun4tz5c8TPW/7Yju1/7sbpc09GbFwMCguP4Ifvf8OME6aIYDg2mx3vv7cUFosFWq2MW++4Ar17q+c/NE7bt+fikYdecr38+rJlS24I1H96v3UIDJp6Zqzk1I+DjHFMYmYwqVDWKNk7fv+swUqwvuk5c+av4nHAeJTERf95UrjQ+kqrVubg04+/FW9lZmaAB0ziKXvdJuzfdwhnnn2q8G7Yv/8gVvy8GrNPn4m0tBRUV1fj/fc+E4G4YmOjcNsdlyM5xTt4lqu9tWs244Xn3hS/MsYeW7586QPBEPIlELolJpj69u1LAiEYgJQnKAIkEILCRJnCTWDTpk3pCqRsAMKQQZGl4RNHj/bv31XfgdNOm3eFLEviiZDHQuAxEfyldWu24MMPvsEZfGm4d09YLFbxRMj3k+fNPx1p3VPAb/Irfl6F1LRkzD9PtTPYumUn1qzOxnU3XIBBg32f4sjzeZ7Cx5gyZfnyzxrOlw43MKovbARmz553rSRJYtP/0svPxhlnnuy37l9+XocvPvsZN958pchTUVGFD9//TPx8yWXzEB8fK4wQ167ZJK4xfq3xxLcldu7YhWtvOB99+vg/inrhgy9iR723DGOa/suXf9IQejHAiDfm5DzPGOoPlJCeGj92tHpuNCUiECYCJBDCBJKqCZ3A2rV/9NIZlBs0kvTe6NGjm/ft8qh+zpz5XEgM5U9+L/zzYaSl+Q+1u3PnAdRU2cRqwe+/ZWPrFnX7oLFA4K9Nmz5JHPJUXl6B3r2Tkd7Tf3yHDeu34pmnXq/vlfTFsmWLfQdmCB0LlWgDAnPmzOc34n5RUSa8+M+HEJ/g3xtn65Y94GERuGfMD9//itzdanyMxgKBv8aPd+bHPPOoiYMGZyCpm/96f12xDq+98t/60bL/LFu29JpQh75p8+bLFMac48eM+TDUspSfCAQiQAIhECF6v8MRmDNn3kWAJD4Qx40fgbvvvT5gH9dn78CP368U8e79CYRBg/vhuKljMHpMY9dI7+r5NsQ9dz6BgoKjrg/3CcuWLd0QsBOUocMQOP308xYwxsTafnNxNVwdttRZsXnzHiz/5mdUVKg2Cb4EwugxQzF+wnCMGMnP//CfuGvjXXc+juoq4c3j1GikAV99tbghMleHIUUdiWQCJBAiefY78dhnz57/kSRBRLrhh+7wyHjBpMLCEuQfLIQEHRwOJ7Q6DTQahszMdCR1iw+mCrz80jtY+btbD/xj2bIlvs+eDqo2ytReBObMmc+DeogL59LLz8EZZ6o2BoHSvr2HcPjwUWi1RmFnoNNqoNMDmX17ii2HYNITj72GzTnqahbA7li2bOkLwZSjPESgLQmQQGhL2tRW2Aiceup5SRoN4+cxiyg2V149H7N9HL4TtgbrK3rv3aX45itXLBrpx2XLFvs+ni/cDVN9YSdw2mkXZsqyg19Dybzym/56GabPUMN5t2b692sf4Jef17iaWLxs2ZLzW7M9qpsItJQACYSWkqNy7U5g9uxzp0qSvNLVEX4+Az+nobXSu28vwbJvuBOFSLlarfaEL7/8uKC12qN6W5/AaafNmyPLkhrIAsB1N1yMmScf12oNv/bqf/HrL+vq65fWR0djxuLFi+tarUGqmAgcAwESCMcAj4q2P4E5c+bzJWJ3/OdTT5uOq68J7wMZP/zpjdc/wrq17ngzhwBpzrJli32fy9v+WKgHIRA4/fR5lzImuawFcc65p+LCi30fJx5CtV5Zi4vLsOhfH2LLlp0ucbDN4dDM+f77j/NbWieVIwKtTYAEQmsTpvpbncDpp887lTHpEwDCiKBPn57iA37suOHH3Da3Nfjg/S9QVqrGpJEk/Kko0vnLly92bSAfcxtUQfsTmDNn3vmAuIZEGjp0AC669Exx7sexpp9+WCWuIbNZXShgDGs0Gum8r79e3HAi1LE2QuWJQCsQIIHQClCpyrYncMYZ84YpivQGY3Aflzdm7DBxat/48SNC7hD3Y/922a/Yts3L+/Izvd6x4IsvvmgaNjnkFqhARyNQv2XFPRvc0QxnnDAJs06ZhgED/cfD8DcOLi6/Xd7gFlkvDt6NiZEWLF682NnRxk/9IQKNCZBAoGuiSxGYPXvePyRJUo/Gq0/duiVg9JhhGDI0C5mZvdC9Rwp0Op37fX5a45GiUuzfn4/tf+Zi08atKCnxjmIrSbj/m2+WvNylYNFgmhCYMuU8U2Ii46dveUXF7Ns3A6PHDsXgwVno3Zt7vCR4leWnehYWFmPfXvUa4ieBukI012csAnDfsmVL3ibsRKCzECCB0FlmivoZNIEzzpg32OnEnYC0wF8hHiCHh2u22+2oqan1k03iJ1C9qtHonvnqq4/UAAqUIoLAnDnnTgfku1xukI0HrdFoEB1tAv9us9nc2weN8zGGUknCK9HR0lNkjBgRl06XGiQJhC41nTQYTwKzZp2ZrtXqL5Ik6UyATQ+GDmOwy7L0g6IoX2i1tg+++uorf+ohmOooTycncOqp546VZdl1DTUfQathrGZJwveMSZ8vW7b4fdfJ4p0cBXU/AgmQQIjASY/EIZ9wwnkxMTFsPGMYyhj6SBKSFQVRkoQaxqQjksT2M6bZNmnSkOyFCxd6n00dicBozE0InH76uf0kSTOWMWUQYxHz7hwAACAASURBVFI6Y4iXJMiMsWpZlo4whn0A20pRNeni6SoESCB0lZmkcRABIkAEiAARCCMBEghhhElVEQEiQASIABHoKgRIIHSVmaRxEAEiQASIABEIIwESCGGESVURASJABIgAEegqBEggdJWZpHEQASJABIgAEQgjARIIYYRJVREBIkAEiAAR6CoESCB0lZmkcRABIkAEiAARCCMBEghhhElVEQEiQASIABHoKgRIIHSVmaRxEAEiQASIABEIIwESCGGESVURASJABIgAEegqBEggdJWZpHEQASJABIgAEQgjARIIYYRJVREBIkAEiAAR6CoESCB0lZmkcRABIkAEiAARCCMBEghhhElVEQEiQASIABHoKgRIIHSVmaRxEAEiQASIABEIIwESCGGESVURASJABIgAEegqBEggdJWZpHEQASJABIgAEQgjARIIYYRJVREBIkAEiAAR6CoESCB0lZmkcRABIkAEiAARCCMBEghhhElVEYH2ILDn5H7xWoummyw5kp2SlKyVWDdFkZIZkCBB0jIwrQRomcS/S1oJTMsgacG/GNMxQCtJ0AINXyI/Y74/HyRps8Lk/2b+nrepPcZLbRIBItA2BEggtA1naoUIhESgcFr/lDo4e2gldGeQu8sSuiuM9ZAkdIfCukOSkgF0A8C/60KqPEyZJWAzmPShAumbPr/nbQ9TtVQNESACHYQACYQOMhHUjcgikH/SwJ4Om22AVpL6K5AGSBL6A+gNoAeA7gA0nYuI9J3ElCUZv+97s3P1m3pLBIiAPwIkEOjaIAKtRKDolJHRdbVVEzxFgAT0Z8AAAKZWarZdq91m12z6yW746bkN2+5u145Q40SACBwzARIIx4yQKiACwIZx43TdYyrHO8EmQMF4ScJ4gA3pKGzsDLBAgg0S7EyCBAYTGIwSgz5MnwJ5Dg3uqIlBDZNw/1mnHZ7cM/WFIX+57bmOwoD6QQSIQGgEwvTREFqjlJsIdHYCHz/97L3LP353kiRJAx6NqnFAwqjWHpMDQJkio1yRUM4kVDEZlYqEKkioUmRxY65mwB6nRogALgrskKAE6Bj/EDCAwSABfbVOJEkM3WQFKbKCNElBukZBhqxALzG/NX1n0+Mpc5R4/4aTjsdJdz4qfjas/3ln1OI3buj70fJfW5sP1U8EiEB4CZBACC9Pqq2LEti+ZMkAqa7qL46YpNOUHr3711VW6C69806ca7ThZlNtWEZtYRIOOGUcVDQoUGQcFV8SihUZxYoGdf7vz2FpP1Al/TVOTNDZcZzOjmFap1f226tj8IdDiz6pKXjmnU+83pNrKmH4+YslQ2669bxAbdD7RIAIdBwCJBA6zlxQTzoYgV2L/nWZIybmApacPsHeZ2Aqi4p199C2fRO4QJhrsOOOKHPIPa9gEnY5NMh1apFj1yJf0aBECe3PUavVQavTQqPVQqfVwvU7/67R6qDT8de0kCQZDrsddocddrsdDrsNdrsDDptNvCbes9tDGsMYnQMPRZsR77GqwFcQ+EpCcpQJz91zD0wTpnvVqdu6ttC09ocF/R99bnlIjVFmIkAE2oVAaJ9I7dJFapQItA2BDRs2JBu3b7tVik883ZGWMcTZs5/RV8vFR44gZ9lneHPxYgzROPFqXHVQHdzk0OJ3mw78e77Tv5OCKSoKSd2SG76Sk5GYpP7ejf9c/15QjYaQqbqqElWVlaiuqkBVRSWq+O9VldiXl4u9ubtQfPSIV23DtQ4sMFkwSss3P9TkudXwys03IHXO+U16YPzl84+HXn7VRSF0jbISASLQDgRIILQDdGqy4xDY/Pu6gXLZ0TulhMSTHT369mGmaNlX7w4d3I+tOZuwZfNGbMnZACgKRsCKs4w2TNPZmh3Qt1Y9Xqk1oRbef24ajQa9+/ZD78x+6NO3H/pk9kPvvlmIT0joOIA8elJYcAh5u3bi2y8/R+6uHRikcWKXU4Nbo+pwlsHqzrnZrsWD5miYmYT/O+9cTLrq5ibj0e3YkG/atPLC/vcuXN0hB0udIgJEoNEnFgEhAhFAYNe/nu/piE++R0nNmGvPGpYJrW87/rzdO4Uo2Lp5I7b9kYPEaBPmRANzrEfQQw5k+qeCfNgcLVYNXKn/oMEYM34SRo4ZJ4QBXy3obGnVip/x0tP/EN3mHAoVWQgELhRciXs0PFUbJQwmL5wxFfPueBBMp28yVOMvn/976OVX/aWlDPqPHLvQISsv7t+8uaKldVA5IkAEfBOgFQS6MiKCAA9HbJt/6wPO9H5n2fsNy2LxST5XCv7cstm9UpC3awcyEuMxW1eHObZixHnstx9RZBQpMrI0TsQ0Y91/TkU8KusjFl91w82Yfea5XYL3+XNOEuMYrXVgs4NHaYbYarg7utYtnrhXxYM10cJ4ccbg/rjxzvshpfdpMn7DlrXbotZ/PK3vwndCvslnjRh3tsSkirxtG1Z0CbA0CCLQgQiQQOhAk0FdCT+BHS8/d6eze8YlzszBw53de6t3Mo/kcNixZdNGsXXwx4ZsHD6Uj8Gp3TBbqcDpzlJ4qgh+o1tp02EDM+KATXUp4BsSH8VV+hUJZ1bEC/fD9F4ZeHHRu+EfYDvV+NoLT2PFD98Kd8hSRcaI0WOxdfMmYbTIRcIUXYPRo8t4sUd8HJ69917oRk1u0mtN+VGLbu0P9w697qaXQhlS5ujRCVpFvi1vy6aFoZSjvESACAQmQAIhMCPK0ckI7Hr+sQsd3TOvc2ZkTXJkDm6yhl9TU42tmzaKrYP1a1ejsqIc49PTMMdSiBNYlXu0/Ma+yq7DRqceq2061CoMqWk9YOreE0npGdBHxWD7D1/ickcR5nnswXviuqU6BtscWvTNGoCnXn69k5H03939e/Jw91+vExmGah3Y7tDizgcexb9eeBpmcw2uNVlwkdHirsDTePG1O25B8sln+6zcsOa7b4adf8HcUEANGDHmndytOVeGUobyEgEiEJgACYTAjChHJyCw7cF7J8hZA+509sqaaR80mh9i5JVKS0qEIMjZsA7rV6+CRpIwuUc3zK3ci3Fyg4Ed3zvnomCFYhKrBNEmI2J7ZiI2pbsQBY1TUd4OYMdGvB1d7pPS87VR+NqqR1x8At786LNOQDL4Lv716ktwpKgQgzVO7OS2BpdfhSnTTgRfXdi1fRtm6W24K7pWHBHJk6fx4oOXXIARl1zvszH99vUHDUv+PWfAG0v/DKY3JBCCoUR5iEDoBEgghM6MSnQQAsKuYN4tDzvT+53jGDgqU4mJ9+pZwaF8IQo2rF2NPzZtQFJcHKYkxeD00l0YXB/oh68S/OHQYKVNj98dBrFKwN0JY3tlIi45DVEJSc2O1lZbg5zln+Oj+Cqk+TBc/Mmmx2P1EQYXfbAUCYmJHYTesXfjy6Wf4P3/qKsiPOqilNITr7z9gfj99ZeexU/fLQMPrsS3HPh3njyNF2+adQJm3P6Qz45oDu21mn77/LaB9/z934F6OmDE2CsZk/eTHUIgUvQ+EQiNAAmE0HhR7g5AYOfTf79V6dP/cnvfoSOdPfp42RVwn/2cjdlYv2YV9uzeiYzUFEyN02NO8Q70qr+B85vUFqcWvziN+NMqQa/RIL5XHySk90ZcShq0Pqztmxt2c9sMPDTy/Mo4UfzSBTfgzHlN4wJ0AKQt6gIPrnTJWaeKsi5jxdv/9jCmTJshXvvmiyV4d9FrYgWBi4ST9ao7qKfx4swRQ3HDnfeDpfBDLL2TZLPC+OMnrw+5/pYbmuvg4NGjMx2KfCXZIbRoGqkQEfBLgAQCXRydgsDuB26aa+836mZn5qDjHQNGRXt2euefW7Fx7Wpkr1kF7qs/OKMnjjcxzDm6Awn1Hgar7Fps5lsHThNKHQriY2MRk9EXST0yAq4SBAIUaJvhiqpYERiJuzg+/sJrgarrVO8/+cj92LRuDVJlRYSGHj1uAu77+1PuMfCVG77lUF5agouNFlxjarBLcBkv9k5NxpP33AvtkLE+x2747ctfhl1yueo24SfRNkOnumyos52EAAmETjJRkdjN/DPH9q855ZL7Hb0Hz7GPmZrqYqA4ndi8cT02rF0lREFVZQXG9euD47U2zC3eAR6jkLshugwM11g1YpWA2xBEp6UjIT0j5FWC5vgH2mZ4r86IdyxqUMZnXn0DffpmdZnp3JS9Fk8uvE+MZ7DWgZ0OLZ555Q306dcwxtKSo0Ik8JgS/ByHu6JqES+rXiAu40XuKvrs3XcjacZsn2z029YfGD57ViYJhC5z6dBAOgEBEgidYJIiqYts3Dhd7kVn3WPvPehS+/BJA5XYBHGN1taasXHdGqxfsxLr16yGVqvB5L4ZmKZU46TiXQIRX7peajG4DQz5KoEprScS67cOWpNjc9sMuU4Nrq9Sz3E47+IrcN6lV7RmV9q87qsvPBs1VVVub4bZZ52Lq65vGj3x7X+/guVffiZOh7w7qhYj60M0exovPnbV5Rhwnm+HBM3hfWa574CsEWkx3jGfAZAdQptPOzUYAQRIIETAJHeGIe5cePd8Z9bQvzoGjp7sTM8UIfdKS4rdqwRbczYiKSERU3qmYpqtGBNL9noNi4uDv9Ym4KjWhPSho4UtAXdDbKsUaJvh6so47FfkLrnN8P5bi/Dlko8F6kRJQa0hGv/5+HPo9U0jJ/6w/Gu88fLzIu9tUXU4s9491NN48a9zTsG0m+/1OXVyZZmi3bnp7OHz53/lmYHsENrqSqd2IokACYRImu0ONtYd114w8LekjFdj+g2epPTq7z4qcdeObcIVcU/uLmT06IGpKQmYZj6EIWX5fkew1GrAOywRg2edFdbtg2CRBdpmeNdixLt16jbDo8/8E4OHDQ+26g6f70hhIf664BLRTx5NkQeUWnDjrTh17lk++77jz6349wvPCHuRsw1W3FIfotnTePG08aNx9Z33A3FNPFbFORjG1csfGnrRJX/3bIDsEDr8pUId7GQESCB0sgnr7N1lgPzEddd9sL2mbu7WvQdieFCdxmlo376YnGDEjLJ9yKgqCmrID9bEYP+Aseg1ZFRQ+VsjU3PbDAedGlxZv81wxrwLcNkC3zEAWqNfbVHnQ3fdCm4smi4rKFBk9Os/AE/+039gqJrqahFUaf3aVRitcwi7BNf5Fi7jxeG90nHf3X+Dtv8wn0MwrVr2wZALL77U9SYJhLaYaWojkgiQQIik2W7Hse47PnOSVpbPhoRzGMOgcHeFP6H/LzoDg2acFu6qg64v0DbDjVUx2OnUIjEpCf9+71NIss/jIIJuryNlXPHjd3jtedV7YaDGid1ODR58/BmMGD2u2W5+9O6b+PyTD4W3CQ+q5ArR7DJeTNBpRHjmuCkzfdZT+es3G0+89JLx/E2yQ+hIVwT1pSsQIIHQFWaxg44h/4Ss/mCYDcbOYoDvT/gw9Z17LVxVHY/kQSPRc+jIMNUaWjVlBfk4tO5XfBPvO6riNzYDnjObRKU8LPHE444PrYEOnvvCubOgKE4M1zpEeOmpM2bi1nvuD9jr33/+Aa+98AycTgeuM9XhQqMa2XKlXQe+msCPjX7++gXodZa6jeGZin7+GotefHrzFzlbxpAdQkDUlIEIhESABEJIuChzIAIuUcAY4/5qvn3WAlXSwve5odvf6uJQ6lBd6NojXWGy4AqPMwg8+2BnwKkVCeKlcROn4J6Fj7VHF1utzUUvv4Afl6u2g/zkyyom4bV3P0ZyittD1W/b+/bkClfIA3v3YJbBJrwcuLsqn9MHa6NxxCnj9nPOwJRrb/eqo3b197jyH09ihNax5fOcLaOyho99cc+2Tbe12iCpYiIQQQRIIETQZLfWUA/O6DsNwDQwTAckNbReOyZ+U+EGb22duC9///oQzv7a5isIfCWBp64WevmmKy9G8VHVZsRlrHjeJVeAfwWTuNHiPbdcD0ttHQZonMIugfPkc3l7dQz2ODWYf9xEnHNJvRukVod3/v1P/JCzVVTfV+ss3GuX/7dnW85fgmmP8hABItA8gbb/FKUZaRMCh6ZnneQAM2okycAUGGQJhh3myrOzomNX6iRZZgz8LsXN6g2SpBjAYFAAowQYIEkGqf53GTAwCeJ9d37+Gs9XX75NBtRFGvGMiXDBpVdh3sWXdYmR/frjd3i13gaBDyhDoyDfKaNbSgouvHxBUGP84ZsvsXvndndenQQhElwhml3Gi74qi5YYbo6qwyydVQFgkSWpVgLq+M8M4OEb3V/8dwmSeE+CIl5XmOR+XwPUKSK/ZIGEOvD3JKean8ECSS1rhWSJkjV15dBahqZsr5MWQz1wghIR6CIESCB0kYn0HMa+4zNP0MjyL42HtrayFJPjfbiNdUEGHXlIz1RrsUcxQhcTg8vuf7wjdzXovi158QmU168e8EL8aT+r/oCmoCvxk3Gy3o4F9ds23J11pU0HLRh0UFAHDWIk4ApjXcDVm2PtRxDl+WETFqlelEgS6oQ44aKCsTpJkswMkhmMmSFJZgmsxvU7kyUzY8wsM7mGaRSzhslmpjjNzKkxG0zOGslpMqes2G6WgPbbPwsCAGXpWgRIIHSt+RSjOTi935cAzvAcWrXDAbPiQHe96otPqf0IHLFZEafVwiTzXXZKLSHgYAqKbFb0MqhGnxGUagGYGcDFAvcR5t/F75D4z1INFyCMSWYmsSowVsYglUGWyhSnUqbIclmMsaas+/dHzBHEjIbaQgIkEFoIrqMWO3RCv7mKAq8oc7yv++vM6Gk0QSd1Hde6jjoHgfpV5XQAjCFOqwuUld5vhsDeuhr0MzUfLdPmPLYHbklikHv39OqF5lBhV5gX7ipSBgllYCgDWBmYVAaJfyllUKQyJjEhLGxO+Y8Bv+cVd4VB0xhCI0ACITReHT63r9UD3mnaXug4U2djDBV2G1L1qrFijdOBMrt6FLKvpJUkpEfek3LACdtbZ0Y/k9fBnk3KmB1OlFjsAevylyE9Sg92zflwTB6tZqm1/D971wEeVZW233unpvcKBAKh10AAQUBBRRAb2MuqYF0bllVX3d/eO7Z1LehaV7G7KuqqqIBSQpHeIYQSSC/T597/+c6dmsxkJpNJMpk5nw9myqnvOXPve7/zFcTf9FDI7XXXirKMbYKAZTKElYIgr+klFKwVliyxddf58HEHhwAnCMHh1C1K+dMeVFktoIVO17SMjd8tJhaFgyw3G5l63CbLWF1fHXCGeVo9ege4GQZsJMoKBEsQmmxktxiapGlVjCDISW4iolvw79Aai6JaAlApASsEWXi34LddSiIOLlGHACcIUbSk/rQH2w0NGBDvSnUQRTPuvlPZZWhEP0cyqT/qiCC0rgrvpY9HD65F8FpwOjYj0sQvYl37OxAgr5UF4V2bWn6v7497WmTa7NrR8d7bgwD/bbUHvQiqu39K31Nk4OvmQ6In1P1mAwr1ratiI2gqMTGUzU31GJKQzOZqpyMHm381OJkypnLtT4t9cchsQppGAz039oyU38xeyML9Bb/teitSBsTH0T4EOEFoH34RU3v/lL6vy0ALh/MKswlxajWSVeqIGSsfCOCp1aHXJFzL07adQXYbKkFACjf2bBtwHV1awFsFv+ye29Hd8PY7HgFOEDoe4w7vYe/k3nmCoNosAEocXw/hxokdDn9IHew3GUB2BWpRhMGuxNeJV3G3x7aA2WS3odFuR47D2LMtdXnZ9iMgaGSIFF7Nh1gb0bfPr/v2tL8X3kJXIsAJQleiH6a+y6YUXgcILzZvzmi3o8pmiUVf8TAh23HNHLWaESeokKjmmp1QUabjs4NmIwr08aE2weu1A4H4wSZknFbvu4X0xnhhIotkyaUbI8AJQjdePOfQy6YU/gcQzms+FXpKzdLooOdPphG3yg12KyyShAyN4urIJTQEPI09Q2uB1woVgeRjDEiZQrGavMVWJ1o0F9XzjR0qsBFUjxOECFqMUIdSNqXfAUDOb16fHy+EimjH16NIgEesZuRrYy4SYFjBDcbVMawd8sZcCKTPrEfCcEph4S3m/Zr9+r/WFHCouj8CnCB08zUsn1Q4UhKFdc2nwUIr223I1fHQypG6xHRzK4xT1OMyBAqu6HJ3VJweZeUzCsAvux0hZXrjCspPZQRHGWctpTxFAaTv6GuqQz92dmLsrM/qOfrw6JnKCI5+JZf3pVKOJcmUZciCOyuA7HDRpKLK2JTv6HNHM5CUDxz1PZ06nbWVsVG/EutDqe+AAbJjLmwSsqzMgxIf2O2IU6kgQmDdioIAihUqCvSJDJH+Y/AIrr9k6SGwckodlbOuo4z7c5F9zy+Svn9B2RfUQNerpfeNYafuh4SbqqZH6u+Ojyt4BPjeDx6riCx59JKC+yS7fG/zwW3ZZ0SBkASKwsclMhEora+BVQ49iE9kzio6R+UkGJ5ERJAV0kGfMRJCpIPxIydJoVpgnhb0VxSV7xl5cRATz/pK24JCWBjJUdqhzyJR8q+tgiqxZQLLxk36B5PuqLwnEsfMx9Q2BCJz57VtDjFduunJjGXxg80Tm4NQvywBdct47INI3hxrG2pgljhBiOQ1irSxuTQhjEi4NSGeWhCVh8aEkRcn8XCSGE/yAcFBYJqRHfY5aU+cGhhvJMiDoefNvtMzGLclTIi/teKPSMOOj6ftCHCC0HbMIqpG/QuptUmFtpTmg9r9rR4Hf4/u0MrsOUsQYBNEqGW7ot7uQKFnJSlMT3OkSq+TjLDIyhOYTlBBy54XFfW7uxu3Kt9Dq+/UtCvqb9ev2FlWdmr5lXKORtlrl8pcqUTjcH/mBs95tOHrAuFs0/md8xihuTLeVc5xROJsnVT/TlHmqhyv+OzLUdfzO1d/goAmyYoEQUl65fyc2ndiyP46jme82nA81Xv268LKgZGzrjJWZdTKunjsM8+2PY4jnGNR2vdzTuFoxrmuVE4WlaMRQZbgVC557wePDe4chud4HcdVNETn3nDNy/O3QUdOzXJHs/49tpPn6+Y/q4QcO4qva5kQUrIKUM1u4PeVDrwOdWbTfCE7E+0O6KvxlRRjQk97C0ODDQvjUbc3ulzoJFGNclU81onJKIMe+wXvaWsgo79kQJFgQD+pCRmSGVrJFlbi0MRuLO3/2ahlGUbJDIPsPsPNUcWxM3MuwSNQJ1mQInZDIiyKaBJ1KBd02CokYbegx2HB2/BfJ0voI5iQbzdijFyPLMkESC1V+sGjFb6SGYNsGHwhZZ72lqaDKinxqjoe0CN8UHdpS+2/0nXp8Hnnja+kmBN62ltcIVc/mwRTTfdfXptag81iCpaJqdiL0AwuZ0sVGGFvQILdFCDjQeD91CRLEMT2Ey86i4ZsQY1EWXcVSRf1TJPAJXgEuhNBkEUVylUJWKJKx0a0nqbaHwLFciNK5Fr0tzVA7kKy0GOiGYUz3HvXOd6aTZq69DtqWgRsC35FeclIQqD730EiCc0uGEvDP1Msib3sio7VQ5beo8T5765C2oI16jQsEnPCNoUiyYCzpAqk21qqRtvSSZUkIS4Moas1khVVkpu0pIg6xAvtJx9tmUt3L9stCIKownJ1Br4Qs8MGd4psxyXSARTYGiB18NGar0H3O82EvLEtU5QfWa5fl/NIZXHYJsob6lIEOEHoUvjb33nDKynmxGYahKbDKqx9uXsaKNJ59EZNKt4We/gEJyEhAXFxcdDp9NBotNBo1BBFUsvLsNlssFptMJvNMBqNMBgMsPlIgnSGdAQTbVUhq2uP2m1IULdfra2V7KiWjLA79BqJggZJ3VFd3v5tHHILkU4QqtUJeE3VC9V+iB/t4YSEeOj1cdBqaT9roFYz80PY7XbY7TZYLFaYzSa2n+mfpwyRDTjDfgipts4NWjjsUgNS+9larNvhn/TP5D1TeWvIC8orRhQCnCBE1HK0fTCNr6QaEnravKLt1O1VYcPC7kcQzCotFmnysaGZ+jUuLh4pKSlITk52kIHgcTIaDairq0Ntba1XpXTZhmukfUixtv3CSjf0Crsdqe0kCXpZQpVkBAVNIiHtAWkRuASPQKQSBEEQsUybhS+ErBaTIRKcmpqG5OQk0N5uixBpqK+vR319HSPBTjlXrkCJpTKs9jatjWvSA75DLFdu0w/MurVye1vmxMtGLgKcIETu2gQ1sroXUmuTm3kxlP2sA/3rTrJPk4yXVd7B1+ipKjMzE4mJoZ3Xes7farWiqqoKtbU1XrBcjMMYbqpsM1QHbBYka3TMZz1UIaPKGpsBdkfYH7I/IDsELsEjEIkEwaDS4SlNPzT5MDhNT09HRkYmVGEIf97Q0IDKykqmXWAEU7bjXvtOoJXU4cEj23pJbVJL91z6JYz75XDoP4hwDY63EzYE+GKGDcquaejQ7Zm7cqeY+nr23t1cHNfoMvGhkOsFYFZWFruQhltIRVtRUeG6qDrbf9y0sU1dmWQZdNTQnlwKasiotxth9XB15AShTcuASCMINep4PKb2+jmyCRHZzc3NYX/DLZWVRxlRcMrttt3IsLX0MAh3v83b04pC0/jVB9rP5jt6oLz9oBHgBCFoqCKz4L4LC8ZknVC3Mi7H7vKP604ujtu1aXjDw95ApVIjPz8fZGvQcSLj4MFDTE3rlGFSA/5i2demLsusZqRodNAIobkm0kmz0W6EUVbOcrkGoU3ws8KRRBDsohp3aQe1mERKShry8rwJcNtn2nqNxsZGHDx4AJIj8NbDlq1QSy1tBPy2IrbfeyZOLW5pePStEVOnTm1Dx+FGgrcXTgQ4QQgnml3UVtmVOQ/mnWz4h1qvRE7pLi6OzY8VyEirZ89ezFirM4Q0CTU11a6uTpEqcZzlcNBdG2Q7DtusyNW27RzZ2QH9+Gx2MxpZLASZE4SgkXcXrJcsSI4Ew05RhUe1/VELby+UjIwMZGWFz3uhNYhMJhPKy/czY90M2YLbLTuUvButiDi8BJrZl0As6BcC+q1Usdu2lowdOzi8jfLWOhsBThA6G/EOJnMDGwAAIABJREFU6q/i9qxfsqcYp1Dz3cHF0ajW4T51fxcaarUGBQUFnUYOnB1XVBxGTY3bLuFaexl6W/3kuPexdtstRuRo40LWIgiSBQ2yFXZZ4gShjb8NuvU1RAhBWKzJw8+qDK8ZdCY5cHZMJKGsrAySZMcMqQpTLYf8o6pWI+7pd4GEpDYiH1xxGfhl7Oji44MrzUtFIgKcIETiqoQ4pupHMg5qs215ke7iSJvuI31vrIb7wlRQ0Bvx8cE/iet0WmRkpiMpKRHJyYkwmy2orKxGY0Mj6utb5qhvDdLy8nI0NjawImQ4+KB1GwR7cFrSGrsdR+wW9NKFdiSikm2ot5thAycIbd32lCGySbYiSegcjZO/8R3QJOF5VW+vr5OTU9hRWVskMyudEeQePZTjCNrHDQ2NOHggeK0W1WtqasT+/ftZG3+z70GW1XfcD3HAcOhuf6wtQ2xr2fqS0cUtwsC3tRFevusQ4ASh67DvkJ4r7s0wbv8qsnM8N7+g5uTkIC0tPSg8CvsWYNCgItBff0IX1m1bd+LP9ZsZcQgk5Dq2Z88eV8yEs6UKjLX4TkTjq61NpkZ2zBBK8CSNLKGODBUhsRtdotgi5lWg4cfs90QQKFR1YhcSBF92B1qtDn36FLLsjYGEiO6IkUMwcFARI7r+ZM/uMqxfvzloskAeO0ePHkG2bMXfLDsg+8gaKmTmQP/YwkBDDP17Wd5VMmZ0UegN8JpdjUDgHdzVI+T9txmB5WPyJbvcDv+7NvcYfAUKN/ugtj+aHGe1iYlJ6NmzZ8AG6Olq0qRxyHc8XXlWOHDgEHr0yGvRBpEDIgmrVq4L2D75lpORl1MetG6H1h6YXFD5I3Yrauw25Ovi2+z2qJaBeqmJpX3OUsVBzXMxBFwrZwFyDzVK9i4lVUt1OfiqWawDsqMJxjV37LhRjBwQSfAUOiYwGk1IS2sZsZi0CUuXrkTlUbftjD/Aysr2scBKf5EOYpjFd3nNWZdCPfPcoDFvS0EZ8tljR4/+pC11eNnIQoAThMhaj7CMZuPYXmNr7PaVYWkszI3s0qbiVdFNCOhJS69v3fd/0OAiHDtpnOtCumvnHvzxx2rs3LELVVXecQ1GjByKESOGYtz4Ma6Rb92yE8uWrgyoTSADL7IGJzlNPopJ5oqgZ/+nqdEr5K1Tm6ClTJOO1IxxjhwOKkGAzmE1rpJl1NkNiBdVXfokHPREI6ggBZgyw+7K5tjZQ7OotPg/zQCvbimYV36+7yigzoJECKadMMmlBTOZLfhj+Ur8+ecm7Nyx26u9jIw0tp/HTxiL/Hzl6IGI77ff/BRQm0DkgEgCycO2bVD7iY9g7VkAa14P2ENIhpo4cTriR4zzBf3bJaOLL+3sNeH9hRcBThDCi2fEtFZaUnCTQbI9GzEDcqT1fUo7AEcc6XkpOmJeXuvntEQO6GJKQk9VFRVHsHdPGT795Cu/U+vZqweuvmYuKiur0K9fH1aOnrw+/2xxq3B4XlCpYFu0COTRYJfafoXVq1RolCxIFXWRqfKJpA3UbCwUP8IKucvyV/jSHgQivEQOzjhzBkgjRrJ3bxmysjLx7NMv4cgR/wG7LrjwLOTl5yE3Nxt6vRIEjUgCHT20JgcOlIMCKl0mHcBgizeZbl7P6W4b7JKrCvoh5d6XfRWvUwnoU1xc7B2+NNiGebmIQYAThIhZivAPZPW4nncYbVKHWiG1ZdRHNQl4SlXoqhLIMJEuonQxpYsqHSO8/uq/kZmVieuuvwJPPP48yve7jwQ8x3Hl1ZfAaDDj3Xc+xJyzTsPxUxWCQZqEn35c2uqQ9+3b6wphe0NJX5TcwMPKt2WNY6WseesGXPXoK17TTUhIRK9evVqF4IQTJzF7A5LPPvkKP/+8FJdf8ReWQ+Ttf3/gs26/foWYf/M1jERYrDZc/Jdz2ZEaaRK++Hxxq8cNToPFHrIZN5p3hHV5dLc9BnHg8BZtCjJuHjOm+LmwdsYb6xIEOEHoEtg7r9OVY3s+arZLf++8Hv339KGuN9YIiueCTqdDYWHLiHOetf9y6dnMS4E0B/fd85jrxv2XS85HQkIcdmzfhSHDBqN3715oamrCpo1bUV9Xj1NOnY77730cVVXKuStdUJ1HDqRFaM0qnOIiUHwEpzxbpAs5qVOwmJtgZ7YLGm5/ECxkrBwZdpLORtsFuFWq4/Hwdm93WNKGkVbMn5Bh7cxTprGvl/y81KUFo5v9HXfehK+++BaZWRkYPHgg4hPisGdPGTZt3MKOGA4fPoKPPvyM1e3RMx/zb7qaHc0FoxnbuXMnM8C937oDenvLFM1tAt1RWFU8Adrr/uGr6r6S0cWK2o5Lt0eAE4Ruv4SBJ7BqbK9nTXb7TYFLdmAJUcQd2iGuDjIy0pGV5T+Vs+fRwvML/uV1Nnv6GTNw4klT/Q6WjiFeeXmhl33CfQ/cifT01IAXVIvFgt27d7naXnDxTKSedGoHAsOb7o4IbH7rVTz+83qvoRcV9Yda7T9dt5Pwkp0B7Wmn5ORm45prLgP9JuCwV2mOyZdffIv//bDE9THZ2lxx5SXsfaCjhsOHD7FkZedKFRjTBu+c1tZF//ibEDJaBoCSBUwdW1zsHmh3XFw+ZhcCnCDEyGZYO67XM002+81tPyUPD0CUqfEeD4OuQJbe555/OjIz0xkx8LyYzjzlJMw85UR2HW0tSNyRI0fxyEPPuELPFvXvixvnX80m89GHX7aqlt21awdT+ZL8fdJgDL7y+vCAwFuJGgQ+evBBfL3THZ+A0o8XFrqPz5pP1FN74El4KXX5nXffjNTUlpoHWZZBmR+d8vlnX+OnH391vaf9TPs6kBahrq4ehw4dwHA04GJT28KJ+1ow9ekXQXP6hb6++qJkdPGZUbPIfCLcLiqW9sCf43tdZ7BLT1glOfiIRGEC6IgmEU+r3JrHfv2KoNH49vknf/CLLzmb9fz6a2/jz/Wb2Ous7Ez83z23sddEdOjSWV5ejfpaI7Q6NXJyU5CU5PaI+P67n/Dfr75zzcCpRSDXx6W/+Xfy8PRmuGBADsbZqsKEgu9maC4U8CfRYbzZoZ1FUePkwUBHM53uGiqq8Pf95E3gVtcHCozktD0gW5rHH3Ufz885+zQcf7xiI0Obur7BiIrDdbBY7EhLi0N+D+/4IP9390Ooq1OCeo0/pgQXXXwOe/3Ga+/79dIxmczYu3c34mQ77jNvadcOEOIToHvsTdDf5qISUFhcXLy3XR3wyhGFANcgRNRydPxgdk3qO6DaYv7QLglDrJLUaSHo1msz8b6ouGnRU9HAgS2T2jhnP3LkEBw7WXGduvH6O1ygnDn7VEw7YTJ7L0kySlftQW2td9a64SN6ITfP/TQ2/4Y7XJoGp8FioCcuzxwNY3tl4/qH7u34hQlTD/aqI2FqqfObUflQWXf+KAL3aNm8Hlc+/qpXQUpLnpmZ5bfyFVddBK1W42V7EBenx+NP3u+qU76/Bls2exveZmQkYnSJm1h/+80P+Pab/7E6pH14/Mn72OvWjhkoSNK2bdtYucfMmyAEyM/QGgLaebdANfGEFkVkGfePHVOsDIZL1CDACULULGXrE1m9Zs2NAO4EvPIqB590IDSckp3Vnnn6JeaeSELntHRe608ogAz9a3688PSzD7m0Drt2HsHuXS1vhnq9FpOPc/umv/avf2PDhs2sq6lTJ2H2Waex1y+/+Jbf/quqKnH0qBJJkULfPjEg/Cl6m3ceMUmHQlvnLqllkuzQiiLETlaE2kQ1/vant1YpJycXaWlpfnG49vrL2HeexwslY4txyaXnu+os+WkLrFZ7izYGDMxF7z5K6vP6+gb8466HXGWcWjEKBtZaQDAiCEQUHrRshbYtWR49RkMeC+S54EP2qQSM4m6NXfIz6NBOOUHoUHgjo/GVpaUzREH8titH40kQ6Emqb1//EVid6thDhypQV6ekZGakor/b62H1ij2oqfEdY37CsUVIdBw1VFVW4+hRxb+ccj0UFChBmlojCNXV1ThyxO3J8LhpY4dDVyOZoBHUHrc6xVqEfqBOuxF68HP+YJ2fsfc+fsWe37f6wMjqui1TnEc37FPHx57Ne37f4aAE6IC8PzLFjidvzYdRq47Do2rv7Ie5uXlITW0Z+ZDqkpvu5VcqZ/ZlZeUsuiFJTk420tKVOrSXaU/7ksysJBSPced62L5tp8u2Jikpibk8BiIIO3ZsB4UUP89+CKOt5N3Tdmsk3exLTMLA4V5WmEJ8QhV69L6mpLj4867eD7z/8CPACUL4MY24FleWrr1SFOCtE+3kUXoSBLI9IBsEfzJp8jgWgpYIwupVaxwEQcOME52ypnQvqip9J2U6dlJ/xCcowWS2bNnm8oAgK/GJx45nn7euQVDi2DulMwiCSVaMIgUILvsK5b3vSzkz0qTvfVznvW7ynbzOndldo2RFhqr1KJwdMR5fyZny8vKQkuKbINAYnBqE5ctWuNxvBw8ZgKIihWjU1xux4ne394znuHNzUzB8pDu+wn+/WgwyYCQZPWZUkARhB+yOBGQDYMBF1nLogwwlTv3EqVUflKzc79MysSMw5m1GBgKcIETGOnT4KFatWfOBAMGtz+zwHr07eOP1dz//c/0G9liuUmk0RUVF8/wNwXnEcKD8IB5/bIGr2N9uuwEFvRUNgK/zWvo8JTUe48a7NQ3PPftP7N6l2E05PSAsFitef/U9vwjU1dWsOHz4sCuBw+OmTVfKsix2MmS8u1YQMMt2FtraGb66M8H6RZuLb0RF5e+UQAnHnAThvXcXYcUfq1m1IUMH4Zq/znW18cfynWhoMLWYyoiRBcjJVU7rSHvw4guvuco88dT9LB5CIA3Ctm1bXaTCWXmq3fuYRAd7RYFs+t9IqUEZoIcUrz7AAx915iaLkL44QYiQheiMYaxYs2aCaBe65EYnilLFmDFjdjrnOW/ejdWA4PPQ1jMGwh233ecKkDTthCk4c/YsF1TbthxCWZn7IpeQqAMZKTo9GSi4zCMPPe0q7wyYFMhIURBw0RtvLHjfWbF0XM93DTbpos5YI95HcAg0SBbECxpQXovOFJNKi3ub5V+g/tPTM5Cd3TIugHNsTrfdlStK8e47H7mG/PyLj7te19YasWnDfhgM7iRhvftkYMBAdyKyD//zKZYtXcHqUJ6Ge+9XYqC1FgCMjhboiKEVIeOgx5cv/95n3OTOxJf3FVkIdO6vK7LmzkfThQjMmzd/GYCJvobgeWbr+cRFdghPPPUA1GpyblNU7E2NZqae1enUSM/wTpf7nw8+wfJlbndGshgny/Flv61kqXP9iSjKJa+//nyp5/erxvZcYrHLUyTI/DfThfvG2XWtZGb5KzpT4tSqLfM1g57x1WdWVnZxenrmtf7G4zw2q66uYVFBnTJ12mTMnuMdiKuyspHF4UhJiUd8vNvRyNBkwN/vcHs9OI1uA2nEbDbbrl27tvsNub5s2Q+vdyaOvK/ugwC/2HWftYqqkc6bN5/ODsizwqdQSFoKLkPZGu+/131tG1NSjEsvC3xSQp4L5MHgFOfxAr1/9+2PUV/v234BgGXhwgV0sN3idP+cY6acN0eovCBdMheqZKlz704RvPpNENOMgtr/43MYxy7KsiUd1j0muzFVr4rrlGRAmYKdIgMuHbWi7F1/U7n88lt7y7LNbwwAyity7nmns+qepJfeX3fDlRg40I9NjocRymv/ehsbNigxQcjF8Y475yM9PY0lbCI3R/8iv7Rw4fM82lcY92GsNMUJQqysdITNc968G2cDwqf+hpXfIxdnzp7BvnYmtXGWPX7aZMyhpy6fFnwCsxR/6onnXU3TxfS+B+5gF9VtW3fix/+1mrDpu4ULFygdN5MJE6afKgjwn0YywjDmw2k/ArKMb3///ftTgmlp3rz5FIXIb4AP2s+0r0mL8PijC1xHZ9T2nXffgrw8H6HHHRan77+7iKU4d4on4Q0UGVQQcO4bbyxYFMwceBmOgCcCnCDw/dAlCJxzzn3apKQa8mH0a4buvKDSAD39x2+65RqU7TuA0tXrMHTYYBQU9EBtbR12bN+NI0crcdvtNzBDLjLoIlJw4/yrWIIbkgDaA/ILuH7hwudeaoUg3NwlgEV2p/T4W9CJQ/wFQMuAAR0wAFmGOViCcPnlNz0uy/Lt/obhqUXwjPExfMQQXHnVpXj04WdAqcr79++LxKQklO3bj00bN2PylAnMQ+KfL7/BmvbMwxAE4bU2NIgpixY9a+wAeHiTUY4AJwhRvsCRPL158+bT2efl/sZItghk3KVkdDQy1WxSYiLOu2AOPI0Xm9d3RkykMp7kgFI9U8rn1sRms2W+/fZLHRtbOZIXJYSxTZgwrYcgqH8AMDiE6m2qIsu46/ffv3+0TZU6qfC8eTeMBESX94uvbj0NcIkkvPbq2ywa4neLf8LX/3WHBfesm5aWgvsfvIulg1ap1CyFOdnSVFZW44vPFvsNsUxtCIKw8I03nvP7G+skaHg33RQBThC66cJFw7Avv/yGcbIsKibZfoSeus6cPZOFqSUpK9uPdWs24n//858wjrQG111/BZJTkpGaqriHBcq/oFxM8c833ljg19AsGjDvyDkcc8z000RR9h8MoJ2dC4K4Ztmy75RD+AiVefPmU07mVhMWOQOB0RTq6uuZPczTT7zgCn7ka2pnnHkK+hX1RZ8+SjwEMkz86D9ftGZLw8pJEsa99daCVREKFx9WhCPACUKEL1C0D2/u3PnvCQJaDcBCyZtmnDKNZXckIW0CHSf8+ecmdp5bU12DtHTFY3L4iKEYMWIocwFzSjCaA6Ws2G/hwmd3RzvmfH4dh8C8eTdNAOTlgXrwzDdCZSnmx/Ydu7HhT4X/OPc0GSHSfqZjBacEozlwlH174cIFlwYaC/+eI+APAU4Q+N7oUgSuuuqGfjabSMZdvlM7OkZHxw0UXXHkqKEubUKggVO8g6VLV7aa2tndhnDPwoXPPRioTf49RyAQAnPn3vScIMjzA5Ujg8Vx40Yxw8VghLQG69dtYtows9kdK8FP3SarVR7yzjvPKwlQuHAEQkCAE4QQQONVwovA3Lk3/VUQ5KCCtBBRGDSoCAMHF7k0Cp6jaWhoZG5fu3eXgQhCMCLLWPLmmwumBlOWl+EIBIPAvHnzKUZ4cTBliSAMHlzEiALZ2zQX2s+0l7du3RkMMWDVZVme9+abz78ZTP+8DEfAHwKcIPC9EREIzJs3nzwH2nz+T4QhIzMdFoslSE1B8+nKh+12edK///2C70D4EYEOH0R3Q+Cyy24aJYr4FZCT2jp2sruhLKKUaCwITUGL5gVBeOqNN567ra398vIcgeYIcILA90TEIDBv3o0fAsK5nTgggyRJM95664XfOrFP3lWMIDB37vyTBQGLO3m6by5cuMBvnpNOHgvvrpsjwAlCN1/AaBv+vHk3vgsInZH3oFKWpbPffPMF8qnnwhHoEAQuv/zGGbIsfAwgoUM68G70tYULF1zVCf3wLmIEAU4QYmShu9M058698RFBEO7sqDELAv4QBGHe668/R8aRXDgCHYrA3Lk3jRYEaSEgjOy4juR7Fi58nhvZdhzAMdkyJwgxueyRP+m5c288QxTFJ2RZHhDm0T65cOECv9HuwtwXb44jwBC47777xLKymmdbyz8SGlTyBlkWbnvzzQW+oyyF1iivxRFgCHCCwDdCRCNw+eU33SnL8k0A2pkMSPhIFKUnmmdpjOjJ88FFHQJz5944URAEMiBsNZhSEBMvB4RnFy58zmd2ySDq8yIcgYAIcIIQECJeIBIQmDfvpssA+WwAMymiUTBjkmVsEgR8IcvSe2+++YL//M7BNMbLcATCiACFZRYE1YWyLJ8BYGCQTVsEQfhWlrFo4cLn3guyDi/GEQgZAU4QQoaOV+wKBCjJU0pK7US7XR4hCOgHCLmAnCwIglmW5UpZRhkgbJZlrH7rref8pt/tirHzPjkCvhC49NIb+omiWCIIwmBApqRXGYCsFQShTpZxSJaxS5al9U1Nh5cvWrSoU5JU8ZXiCBACnCDwfcAR4AhwBDgCHAGOQAsEOEHgm4IjwBHgCHAEOAIcAU4Q+B7gCHAEOAIcAY4ARyAwAlyDEBgjXoIjwBHgCHAEOAIxhwAnCDG35HzCHAGOAEeAI8ARCIwAJwiBMeIlOAIcAY4AR4AjEHMIcIIQc0vOJ8wR4AhwBDgCHIHACHCCEBgjXoIjwBHgCHAEOAIxhwAnCDG35HzCHAGOAEeAI8ARCIwAJwiBMeIlOAIcAY4AR4AjEHMIcIIQc0vOJ8wR4AhwBDgCHIHACHCCEBgjXoIjwBHgCHAEOAIxhwAnCDG35HzCHAGOAEeAI8ARCIwAJwiBMeIlOAIcAY4AR4AjEHMIcIIQc0vOJ8wR4AhwBDgCHIHACHCCEBgjXoIjwBHgCHAEOAIxhwAnCDG35HzCHAGOAEeAI8ARCIwAJwiBMeIlOAIcAY4AR4AjEHMIcIIQc0vOJ8wR4AhwBDgCHIHACHCCEBgjXoIjwBHgCHAEOAIxhwAnCDG35HzCHAGOAEeAI8ARCIwAJwiBMeIlOAIcAY4AR4AjEHMIcIIQc0vOJ8wR4AhwBDgCHIHACHCCEBgjXoIjwBHgCHAEOAIxhwAnCDG35HzC3RWBIefcp01qTM+22uUcUSVmS7ItR5TFbAjIAZANGTkQhHhA0gGCFoAOgL+/ZkC2AIJZAMyyADNkWGSAvQdgAVAH4DAEoUKWUSEKUoUsyxWSDRXxOt3hpV9fW9NdseTj5ghwBAIjwAlCYIx4CY5ApyEw4Zxn4swNYn8VxCJZlosEAf1lCEUypP4ChB6dNpDgOjIA2Kb8k7YB4lYIwjZZrdtW+tXV9B0XjgBHoBsjwAlCN148PvTuj8D4mc8nW2VpgiiIUyBL0wGhpPvPimYgrwHwI2RhmaBSr1j1zXWHo2NefBYcgdhBgBOE2FlrPtMIQWDs9AUTZVGaLkB1jAx5quMYIOTRybIESbLBbjXAbjVCkqwht+VdUYAg0D8RoH9QXrPPRDVE+qfSsn+BRfhdkOVvJai+Lv3ueiIPXDgCHIEIR4AThAhfID686EBgzMznp0OWTxKA6QBGtHVWkt0KWbLCbrcoZMBmAGRHK4IKarUeKrUOolrPbtxOMRuOQhef1dbuHOVlyDL9kwD6B+U1+0yysXFINB47mSu4RVTroFbHQaWJgyhqfPX9CyB8rRLw9Ypvb9wc4uB4NY4AR6CDEeAEoYMB5s3HLgIlJz8/ThbkMwVgNoBBbUHCbjPBZjPCbjFAlu0QVRr2pK5SaWE2VcJqroHdXA+z4QjMpqOQbGbQjTm37xmIS+yJ+qpNqDqwhH0eilAb/kSf1MvrK118NkSR7CEBXVwWZEiwWZpgsypmCGpNAnTxGT6bEyB8J0P+dPXi+a+GMk5ehyPAEeg4BDhB6DhsecsxisDYkxfMlQVcBOCEYCEgDQFpBeimSq/pyVutTYBKEw+z4TCMDfthatgPY2N5q01qtMkoGHYFyja+DqulHiPHjPEq39jQgF3btwc7rJDKiWotElOKkJgxjJEVQ+MhyHYrdHEZbE6+xNR0cIup4dCLO9e9/XJInfJKHAGOQNgR4AQh7JDyBmMVgZLpC4ZBxN0Azg8WA5ulARZzHWRJYk/aRAjUmjg01e6CoW4nGut2ttAC0E2/aMAg9B04CLn5+Rg1RrFrPGHMSPa33+hbsGvNM+z1j6Xrgx1Ki3KHDx3E4YMHfdb/c/Vqr8/Xla5k7zeuXw+7zeb6LjljKDJ6HM+0G011ZdDoUqDVp7i+Jw1H7dE1qDn0O/QJucZDe1bEhzxgXpEjwBEIKwKcIIQVTt5YrCIwZsaCWwQwcpAeDAYWUy2s5npAUEEXnwa1Op498dcfWYP66k1epKDfgAGYdPwJGFFS4iIDvvoIN0EIZh7Ny8w9azbK9u7GxZdfhc8+fB9NjY0grUZO3zOYLYTJUEmmjuzIgcjB/q3vwGapR6/CEbj9vnvQZNKsuHr2qGNC6ZvX4QhwBMKLACcI4cWTtxZjCIyd/twUWRSIGJDxYUAhTYGhoZwZEuoTspk3ABGD2kO/M7sBpxApOPm0M3Hs1KnIzcsP2C4ViCSCsPj3lTCbLbjn1vlYX1rKDCjzis5lJIHZJ9iM0MdnMs1B9aHf0avvCLy16B02zx9/2nbDbZeOfzGoSfNCHAGOQIchwAlCh0HLG452BMacvOAKQcBrwc6TrP2NjYehT8yBSqVjT9BO9Tq1kZCYiBmnnYE5F10cNCnw7DvSCIJGqxguPnHfP/DdV195kQSzsZp5RBBJKN/yDszGo7joqr9j3tUXoLy8xnD6hELfxgrBgs3LcQQ4Au1GgBOEdkPIG4hFBEpOfu4uCMLDwc6d4hOYDEeRkFLAqpD7YcXuL5j2gOTSq/6KORdehMSkpGCbbFEuUgmCP5JgbDwEQdRAgIzyre9ApdbjzU++Qo+e2Vi1as+vV88pPi5kMHhFjgBHoN0IcILQbgh5A7GGQMmMZ+8DxHuDnbfV3AibtQFxiXmsSu2RNagqX8Jek8HhtbfegaKBA4Ntzm+5SCYIniSBbBJ6DvqLy3BRq09FU91OhkmPPsPx9ifvsjn++OPWebdddsyb7QaGN8AR4AiEhAAnCCHBxivFKgJtJQdkjEhCN0GSI/sWo6FKiQ1EWoNLrr4mbFBGOkGgid5y1Txmk0Duj/kDzgUgoamuHHGJuTi8+3MYG8ox/YzLcMc9N2P//ur6Myb2dbs8hA0p3hBHgCMQDAKcIASDEi/DEQAwZsaCSwXgrWDBsFoaINus0ManM3uDgzs/YkcLZGvwwDMLWvVICLYPz3LdgSBQHIarLjgHFYcOITVrNDJ6Hc9CRJN3gzYuldkjCALw9GvvYPiIgVi9es/3V80uPjkUPHgdjgBHoH0IcILQPvx47RhBYPT0BWNEEd7O/60NBTVxAAAgAElEQVTM3WZtgt1mhi7OmxyQd8Lt9z0UliOF5t13B4JAY965bRuuvpC0B2BaBNImWIw1sNvNsJqrcHTfd8jM6YcPv/mUlfn5523n3nrJ+EUxstX4NDkCEYMAJwgRsxR8IJGKQNHM53WpsmwKdnxEDmwWA/QJWV6aAyIHz7y6sF2GiK2NobsQBJrDJ++/h5effoLZIfQecgX7a6g/AI0uCVXlP6OpbhemzfoL7n7gbyjbV1Vz5qR+QcWXCHaNeDmOAEcgMAKcIATGiJeIcQRKZjxfC8hBnYUTObCaySAxt1PJAS1RdyIINN57bpmPZb8sQUJqP5ZDgpI/GRsOIi4hB/s2vU7JI3HP4y9g8vHjsbp035dXnTnyjBjfinz6HIFORYAThE6Fm3fW3RAombFgGYCJwYybyIHFUI34lF6dTg66I0Ege4QLT53Boi0SQSCiYDXXsUBKECQc3P4RklPz8NmPixn8y5btOOWG88d+G8xa8DIcAY5A+xHgBKH9GPIWohCBcTOenSBB/AqA7zSEzeZMRojGpiNISFEyHTq9FTr6WMFzGN1Ng0BjX7rkZ9x7603siKFwxHVsOpSzQReXhrqKUhZI6pjjZuPhZ+7Dnr2VR8+aXJQdhduNT4kjEJEIcIIQkcvCB9WVCLTVlZHGamw4xPILUEpm8lSgwD/krfDqfxaFFBUxlPl3R4JA8ySvBsow6TRYlCU7DA0H2FGDM1fDv97/iBl2lq7e+9GVs0edFwo+vA5HgCPQNgQ4QWgbXrx0FCNQMuPZ4wHVvYB8fFumaWo6CrVGD7VWiYJIKZlJPX7sccczd8bOkq4mCH/89gtefPJJHDqwH5SLwRlqOdD8yaOBPBucBIHKmw1VoNDUokrNyFZiSh7e+2IRM/BctWrv5KvnjFoaqF3+PUeAI9A+BDhBaB9+vHYUIDB+5vND7LL93LZER3RO22ysgSxZoE/IcSFB4ZMPbH2HuTnSU29iYujhk9sC77rS1VBrk9F72BXYs/4lSHZz2GMt+BuPyWTEjm3boFKpYDGbMXL0aAiCGHD4lE6a0ko7x+1ZgY4a4pLyUFexmiV0ckpyWn71vm2/B3X0E3AAvABHgCPgFwFOEPjmiFkExsx47hwB4jmAfE4oINhtRpD2wJlfwbMNysxIoYPpJt2ZktX7ZCRnDGWZISmeQHcQIgdkpEiZHj2F8LWa6qCnKIu7voAkubGMS+rzcEr2uM8g2OsEbUItDqKutPRqa3eYLx8jR6C7IMAJQndZKT7OdiOgHCHgeEAcTYERKU5PexptqtvvMkr01w4dN3SW6PRZzNjPKWQ4aTYd7azuQ+pHFHUtiIFnQ0yLkJjLbDsCiCQAdRJQZzPXaQVBU6nWxu8D5DpAqDM2VUxVaxJ+tVsb+4rahF8ks6GnEBf/s1ZI2SCqxdoEQ3ztkiVzg451EWgw/HuOQDQgwAlCNKwin4MXAqOm3jNLksTjZNk+GpD6qTVJUGni+oQTJvLXF9X6Zk3KPrrw/ROjcMJgxZvXCf0nKUl2yJItnNP035YgQJadY/cxb1lmM6NMjS1m2WLeSln6nwKLd3uiqEF8cnBcTrJbYbcZoNF5h60wNByELi4DpqYKppEwNR5mxxfUtocYKJcWBNQJMhixkCDXCfQZEQ0ZtYKAWkkUamGX6gRRXStIQq0oSnUNRlXt5iXXNXYO+LwXjkDnIBD61ahzxsd74Qj4RWDE9L8lyEb9SYKMUyUB4yTJMkCW7K5HaLpJaOlGEeZdTrkDZLrDO26QAnXgeMtu/M47InvtZAJhHoQPVOjmGI1CeGvj0yCKAbUIMBuroNOnAc3sH0gTQXYiAQhCe+GjBaiEgCrIQiVkuQqCXMleC7LymeM7Qa2ulMz1VaX/+3tdMJ3WN1WcKYgY6Sory6MAKBnAghBBFvZaLdqb09LSlOxhXDgCQSDQ8VetIAbBi3AEgkFg8MS/DRNE7dkCpBmyJA2RZbtP6z+1JgFaXTIEldfTYTBdBF3GmaVRqeDJCjyb8Pe5r27aX5Y0CCSiqPLooPlPXIbgYDEuBYDjid2l1PA1PCrsUnsobIg95xM3Yg15PPu7yBNRJ08NgqOcrIxBaUEGZEfPTnblUiAoKgVZkiDLEjtqaE0oyJJKHQ/Rx7rbrAaIoppFayStgSRZ2bEFfdbFEpBUTJ7QI+XC2UNeSEnWITlJg4T4wETJzw67OTE+97kuni/vvhshwAlCN1qsWBtq0fgbkrUq/RxAvBiCPF6W7ImtYaDRJkGtS2yuNg47bGQ8RzcspjmIIHFqEHzdICNomCENxWSoatXew9/RQkidRXglnU6FvOxE5OcmIj8nAXn0l/6xzxKgVvv2HpEFeW5yXF7Q2UgjHAY+vE5AILKucJ0wYd5FZCMw5Ng7CgRRfZ0sWc+TJXvvQKMVRBU0umSoNYmuJ+NAddrzPREDU2MFO7+ONCG3ShKVh6FipI0x1PHQEYEvbxHP9igjpDYuLdQuoqZedmYc8nOTcMyYPAwflIkhAzNJ43N/UkLefVEzST6RTkGAE4ROgZl30hoCReNv76nTqm+RJfv5smQLeOelG6BKHQeVJj50FbGsqK2ZoR39hfO1HZIsKSp0518Pozl6UiVSEoyPf2evOqniSQTR/QSpnAooNhJ0Li8wLb/zZy+4SRX7TFR0Iqws6fY9vlcaVtoXSHfCCjmacrQXRNyDUDHhBCFU5ACtRtxvsUqfr148/8bQW+E1YxEBThBicdUjZM7Djr3zclmQb5Ts1hG+hsRuROycWAuVSgdRrWlxfCDLiuW+ZLdDlm2gML10zux8zW7yPhsX2U1eOY93vBbpBkk3U+d3IrtRRtpRgr/l83XEoJgHEAkioiA5jvvd3gcuTwRWkIiSw7GC2RwQSfLwKHBgSZ857QeUrx1l/GEdxH5zGno62ImbeBD+gsiCTtEeUBiMm6hQzyKtoSCC9gIVINsCpT36v7KGyprSe5UXgQpiaFFTRII0d83im/kRQ9SsaMdPhBOEjseY9+CBwIAJN/fQqOMfluyW8yBLbj9BgYzrdFARIVATKdBAIGMyuwWS3QS6+Sk3f6vyZO8QQVAxLYKgoqd6NXu6Z+8dryPxSb+jNkR3PmJghMPNThwOIjJUei1UCfGo27sZ+sQcRxll/Ymo0AVMcmiBiADZbEZGJJT26P+KNoiRI/aeCKUf0uibpXqQRgdZdJBKRkCcZJIMQwWiI4p2if0jTY7gaTDaUSsfXLsysNemtk9a/99bDgRXg5eKdQQ4QYj1HdBJ8x827e6JsOJJu83EUiczC3IVaQYUDQE9rdqJBNgssNvNjAjQBZd9T9oDeipkN39NRKr3OwnGVrtpThBslgZYzA1eoRboKVujTYA2Lj0ShhxwDKo4HTQpyajaVhrQBoEaY3YIenJtDRzmOWDnCgtxkA0nwVCIB2lbnMdQ7KiKeZCQxoU0WfRechxVKZ4lwYnIPFAEUe36S6/ZvheIMLd/TjLwaOni+XcFNx5eKtYR4AQh1ndAB89/xPGP95Rtde9D1BSr1NpEdmQgqFgwG5vVBPIIoMdARXuggaB2HCd4B7Dp4FFGR/OeBMFuM8HUdMTvxFiMCH0KK0O2HBptqw4iXQZQWwkCYUDkMlLn0zqQEpzBrpx/6fiMac5k0qD51nwQqXCSaLU2AaRV8y9ygyypxpV+f8PWLltU3nG3QYAThG6zVN1voCUnL7gOkK+DgME2qxHki84IAQC1Oh5qbTwzNuQSHgTaShA0+mQY6g9Co42HloILRbAEY6ToHH6seTMQmaCcH/TPam5i2g2KBULpx/3IS6sXz78+gpebDy1CEOAEIUIWIpqGUTLz2ZmCLN5pMddPJjU3XcDIroAuWmpNHLMP4BJ+BJofMVgtDbCaGhQjRYeQ+pvdPLrJEYNz3G0mCOE8Zgj/UnV4i+amo7BLVsQn+Q5RLYqqgSu/uX57hw+Ed9CtEeAEoVsvX2QNfuwpL+VaTHUv2Sz1c8iokNwR1RS8SBMfWQON0tF0ZyPFQEvSFoLAgibZzd30mCEQEsF/T8a9xsYjiEvMYUcQniIDt5Yunv9M8K3xkrGIACcIsbjqHTDnkVMfeNxiqrudmiYDuPCcATv88EWHy5rofO9wP6TPAwkZi9HZrSSzfxL7S2e5vhIrBWossr/nBMG9Ph1xzEBGgoLK4TbpyL/hETjClW1KcZ1V9iwzaHTElVACTzuMHCVnnA3mhuGIx+H0tlCMI8MllKgqngX28vq9/Lx68fxp4eqDtxOdCARxhY3OifNZhQeBQRNuHi4KquWyLCfqE7LaZFMg0A2f3MNUIgQ1eSg4Xqvotcg+7yhh8f1tdsh2OySrDaC/Nhtkextc4DpqcCG2ywmCN0FQ65LaFkiL3BbVaghqESL9dRACcqEFvXYFmApxgdpUTSbPTOaeybwlHK+Ziy8RCtqnMhFe5/cKuSDyS9xCLQrQ69SI04vQaVVQi01ITs6AXq9CnF6NOJ0aE8fmLMxOizPJIpJFGcmji4tnCwK5Z3DhCCgIcILAd0KbEFi9Zs01JaNHv0KVhoy/dZIsCL9o4lJESo7UmtBFVtTQxZf+krcCxS7oOALQpkl5FGbuaSYz7CYLJIsl1Ga6pB4nCG7YKViW3WqERucznxcrSCRA1GvZXhTVKvY3WiQ3Q4eCnDj0ydVj4rDABqgaqb56RMWsZMjCWcKpDV9GCw58Hu1DgBOE9uEXU7VXr149GqKqVIDwr4uvf3eJqNK+GJeQ48dUWoAqXg9Rq1GIAT2FdTNh2gWzBXazhf2NdOEEwXuFWOrnOO/tyYgqBV/SaiHqQsuKGOn7oPn4emXrMWlkGsYP9p8dmhGEw7OU4BiGRp1wLiJ/w3e3heiG4+UEoRsuWlcNefWatSsAjKP+/71o62L8unzGnwm90CS6DaBIKyDG6aHW65m2IFrEbjTBZjBCpuOICBVOELwXxmpugEoTp0TW1GigToiDSucM1xyhi9iBwxrVPxmXzezhswcvggCpRDjVUNqBQ+FNdxMEOEHoJgvV1cNcVbrmBUEQmO/00tWHv9v1729Ovqjyd5RpM/BqzlTU6ZOgjtMzckC2BdEqtiYD7EQUItBWgRME713nPGbQp2RCk0pHDdG7L4P9vY0bkooLT2yZD40ThGARjK1y/BcTW+sd0mxL1627WJbkd6jyzr2165Y9/ekoIgdO+SlrFL7pN9UjS2BI3XSbSpLNDmtNHTNwjCThBKHlaghaFXTp3SOsdGftpRnjMzFjfJZXd5wgdBb63asfThC613p1+mjXrVs3wCbJawAk1Dda9n5217t9LjrqJgfr04rwzqDTO31cXd2hZLXCWl3nne2wiwfFCYL3Augy0iBoosfwMJzb69bzC0G2CU7hBCGc6EZPW5wgRM9adshMVq9Z9yMgT5NlWL7+v3elGbt+cV1VyhNy8OKw82Ej98QYFDJctNTURczMOUFwL4U+O4O5JnLxjQB5Npw7LZcTBL5BWkWAEwS+QfwisHrz5jyYLGsAObf0qf8cHFn6oytuq0Gtx4vDzsORZlbisQanraEJZJcQCcIJgrIK2oxU5krLpXUEPLUIXIPAd4svBDhB4PuiVQRKS9fNLnvz06fzfvim0FnQqNLj/f4zsSXN9VHMoihb7TBXVUfE/DlBALSpyRD13mGFI2JxInAQnloEThAicIEiYEicIETAIkTyEBaMmvOv8cayq5xj/DO9CF/0mYY6XSJOHJ8LvS42jxcIj//+eoDBYjh6CLbGhi5fRkqKRcIiUkaZUOIpjdZ/0COari41A7o0d9yDof1SUdgjIcqQCH46KzZW4mi1udUKTi0CJwjB4xpLJTlBiKXVbuNclw8Ye4IkCN+rIYmyIODzPlOxLHcUa6WwRyJevpuFRIhZefSNjfi19AishiYYKxSy0JUSywRBpdUhIa8A8HCx/dc941GQG7sE4aeVh/HkW5tb3ZLnTs3DxOGp4IGSuvKXG7l9c4IQuWvT5SMbPe2x03oZD315Tf06vD70HFTEe7uLDS9KhVodu4Zga7e6jxaaDpbBbjZ16ZrFMkGIy86DJsFbw5CVpkPPnNglCOu2VQfM+UTkgEgCD7XcpT/diO2cE4SIXZquH9ioaQ+vgCiMS8jt2a3i1NutZsg2Uq1S8h0NRJVGSQrVgWKpq4Wp+kgH9hC46VglCEQMiCBwaTsC2alqnD4uBYOLsn4cN3b0dJ6sqe0YRnMNThCieXWbze3LL78sgKi63/Pj00+dNdcfBCOOf8gUl5Wla/5kFgmQ2a0mGCq3wVy3H1ZjLWymOthMyl9fIqp1iEvrDV1Kb+hTeyMha0BYp0FBkxrL94CSPXWVxCpBSMgvgErn9unvKvzb0q/d3AhzwyFINhMkqxG0n2XJBpWGQpTrWYhotT4ZumTfoZHb0ldrZSk7ZMPenZS56uw/f/7HJ+Fql7cTHQhwghAd6xjULBwEYZ+rsIBfTp8163hflUdPe/QyMU73pj7L7SsdVCcdWMhcfxDG6l1oqtwBw9Gtrp4oNbRWq4OatAWiAEmSYbfbYLFY2F9fok3KRWL2ECTmDg/bRdhYcRBWQ2MHItB607FIENT6eMTn9ewyzIPt2NJYAUPlDpjry2GsLYe16QhUKhU0Gi3UlE1SFGG322G1WmGxuA0LBVEDXUpPxKX2RHzmAMRnDgy2y6DKZaXooDUeQWZa/PuXnjf81bSkpD/69+/fumVjUC3zQtGAACcI0bCKQc6hLQRh5PEPLY7LyTlZHdf1Z7im+gOo3b0EDYfWs5nShTU1NR1JSclISEiCXu//6dFms6KpqQlNTQ2oq6uFwdDkjZagQlrhJKT2mQS1LiVIJH0Xs9TXwFR1tF1ttKdyLBIEfUY2tMn+sxS2B8/21rUaq1FfXgpj1U4Ya/ZAr49DSkoqEhNp3yYwcuBLZFmG0Whke7ahoR51dTWQHJopbUImIwnJPUvCQmz75MbhpnP7KMOQsbZkTPHo9s6b148eBDhBiJ61DDiTthCEMTOfqorLye/SIPay3Yrq3UtQs2cJ6HV8fAKys3ORkeEdRz7gxD0KGI0GVFYexdGjh73CJGsTc5BXfDHob6giWcxoPOBW0ITaTqj1Yo0gCKKIxJ6FEZdKnDRd9eWrUH9gNSSbme3XzMxsJCa27qbpb92JMFRXV+Lo0Qo0Nbk1VCm9xiOl4Jh2EQVPgiAIuH9McfF9oe4/Xi/6EOAEIfrW1O+M2kIQxs35p6xNbt8TdXugJZVsxfr/gLQH9KTVo0cvn8Qgv0cO+vTpidzcLKSkJEGr04JMtw1GE2qqa3HwQAV27tyH+npv1T+pcg8fPoAjRw57DbPXhOuhTy0Ieehkh0B5GrpCYo0gqBOSEB9hxol1ZctRuf07ZleQnp6JvLyeLTRcer0O/Qf0QY8eucjITENCQjw7GqM9WV/fhCMVldi79wD27S1vsY1qaqpw8GA5TCaj67usIXOQ2vuYkLaclwZBJY4pGTmS8q5w4QgwBDhBiKGNECxBGH3CE5Pje+T/2lWx7IkcHFr7LugvPX316tWHHSs4pU9hLxx33FiUjBuJbIq5H4Ts2L4Hf/y+Fkt+/gONje7QyKTC3b9/L0iz4JScEechuceYIFptWcRUWQFLQ9fkZ4g1ghBJxwuWpkpU7/iOHYORLUxBQR+keQRtEgQB006YiAkTR2P4iODsCOpqG1BaugG//boamzdt99ps5eX7UFFxyPVZWt+pyBw4s8171pMglIwu5veDNiMY3RX4hoju9fWanSdBMJvNkCX7ij/Xr7/AWWjz9u29Nm3duj+pz3lP6dML53QFNJ7koGfP3sjJcbuvFfYtwJyzpmPceCVYUyhis9nx9X9/wscffcuMGElIhbt3705UV1e5mswbfRkSc4a0uQtrUyOMRw62uV44KsQaQUjs0RuituvDKteXr0bVju+YBw3ZFxQW9mNGs045/YwTcdrpJyA5JbQjBmpn06bt+PzT7/HnerdxLh077Nmz09WPPqUH8sdezTwhghW1SkBeXD0G59TaJLuxQpKkOx544IH3gq3Py0U3ApwgRPf6+iUI9OS8Y9s2r++/+n7J3rqG+j76tKH7U/vO7NUV0BxY+SoMVTtRWFjEVLROOfe8WTjrnLY/IfmbQ1VlLd7+98f44/d1riJlZXuZbQIJHTP0OuavgNC2+Ank5tiwz33R7kwMY4kgqLRaJPRwGNd1JsjN+qra8QOqd/7APk1LS0ffvm732cGDi3DZvLNAGq9wyQ/fL8WbbyxiHg8k9DvetWub6z191nP8tYhLDx6bZFRiXB8l6JckSRdzghCu1er+7XCC0P3XMOgZeGoQAhCEitS+M0O31gt6RN4Fa3YvQeW2b7zIQWJiAq6ffymKi9v+NB/MMD79ZDE+/OC/HiRhDzMGI0kvOgkZ/U8KphmvMo3leyFZFe1EZ0osEQRtSir06dmdCW+LvjzJQWpqGvr1cx8dnDxjCuZdcW6HjG/vnnK8+Pzb2L9f0VQ1NjZg+/bNXka3hVPvhlofnA1RqnwYJYX1nCB0yGp170Y5Qeje69em0TcnCLU1NfuOHjnytrORr75f8hemQUgZZkzMnRLXpsaDLKxOjPdZkiy/y1e8gh55Och2GJ5lZafjjjv/il69OjZK3o//W4ZXX/nANa7du7ejpqaaaQ9Ii9BWo0Xj0cOwNioX3M6UWCII8bk9oY7zvZc6A3NPchAfn4hBg4aC7AxIzj7nFJxz3ikdOgyDwYjHHnkF27buYv3QfqV96xS1PhWFU+8KagwZ8gEUFyruv801CF9++eUkWRSzzzj11E+DaowXiioEOEGIquVsfTKBjBSLho/ZBsgD9CnDTfGp44I/yGwDhtrMNJ+lK7d+BbF+K/r06ce+T05OxD33z+9wcuAczA/f/YbXX/uQvSX17datG2AymZgdAtkjtEW6Kh5CNBIETUIyg95Qc8CVzZElZurRuy1LEtaynuSASMHgwSMQF6fw6TlnnYzzLjgtrP35a4xIwv33Po+9e/azIocOHcDBg8prkvisQehRMi/gWLLlvRhRqGi8fBEEiKrfZFm46ozTTnktYGO8QFQhwAlCVC1n65MJliDEpY2oS+k7PTj9ZBjwI5ewg388j0H9+7pSFd/9f9dhxMjBAVu3Wm3YuGEndu/aD5Wa3CFJ2yBg86bNyM5JR1FRb/QfEJzb4ocffIVPP/mO9VlfX4sdOxSDsIJjb4QuOfhofXaTCU2HygKOPdwFopIgJCYhLisPVdtKXQRBl5oOXZrbPiXcOLbWXmPFJhxa829XkYKCQmRlKadxk6eMxfU3XhrUcHbt3I+tW/fgQHkFikeT0a2Mmuoa1NTUoE+ffAwdXoREP9o2zw4OHDiMu+98CkaDkihs27ZN7MjBKamFxyFr0KxWx5Qn78TQQiVEuD+CIADrTjt1VnFQk+OFogYBThCiZikDTyRYgkAahISMCR2iQdCkKU+EnlJX9jvim/50xTk4/4LTMPusk1udkMFgwvp1u5jrovMJavCQAZg6bSKrt/D1D2AyKRFjTzxpMnr0zMLoMYHdyx556CWsX7eF1du3bzcqK48gvd80ZAyYERhgZwlZRv3eHcGXD1PJWCEIztwLtoYm2Jrc7qkqve/IhMHCazd5243oc4mEuC+RlC/hwMpXQMdhJElJKRgwQCGx2dmZePKZu6APMIb1a3fAYpHx7jvutAeXX3kBdDod1q/biGVLV7P2UlKTMWPm8ejfPw901Naa/PbrKrz4vEJaiBwQSfCUHmMv9xuimYxqewo7MbhQqeGPINB3p586i98vgt1MUVKOL3iULGQw02gTQcia2DEEoZmrl2S3oHLtqygqyGdT6FfUG488dlur09m4YQckSQudTotDh47gs0++YeV9EQQKRHPe+Wew7+tq61A0IB/p6S1JirPDsn0Hcdutj7C35Aq6ceNaaBKy0HvyrRCE4FNbU0RFiqzYmRKtBEGfkYvqHWuYBkHj0CgQrk6CoIoPr7mM3aAEIWpOEI5u+Qq1e39zLWn//oOR7AgmdvOt83DMBP9Rim02CatXbUVamnLE9u03P2HPbkXL5IsgnHDSZAwc2I8ZHtbX12Dc+KGtbqXnnlmI35crMY52794BCqjkFH1aoeKR40Mod0ifuIOcIHTmD7Ub9cUJQjdarPYO1UkQKDEM/RNEYVV2RoZLJ3rRlX9l5vypWSOyewydkejZX0V1x1jlV+/6CUmWHS7twa23XYlx40f6neryZWvx4QeLMXrMcBwzQQlm9MvPv2PTpm0+CcKMU6ahb1/liGHRh1/BZrPgqr+ei/x8/xbwb7/1KYuVQOLUIuQVX4TEXP/jaj7grgiYFI0EgXBV5mWHSq0HaQ9EPzkM2vv7aK1+05HNOFj6lqsI5QEZMEDxrBk+YhD+cc/1fquTtuuVlz/E4UNVjAyQHD1ajUUffsleNycIvXrl47QzprPvKEDSkp+X4+SZk3DKrMl++9i39wBu/9uj7HtfWgTSgJEmLD1Zg7QkjasdS30teiQ3oGeOWKVRC41JycnvDhoyRPHbJFJdU9PXaDQthIC1p8+axfM0dOQmi8C2OUGIwEXpqCE5CYJGo0ZWVvAuYjV1Ztz11KqwDEuX5Y58SEGRDq58FSOGKU9HdCN/9Inb/fazds0WvLXwc9f3F1x4JtLSU2FoMuDr//6I4jHDUVSk+H//+ssfMJssOOnkKez9n+s3Y+lvK9nrtLQk3HLbXCQn+05EVXm0Gtf99R6vi21yz3HIGX520BiYa6thrqkMunw4CkYrQbBaGpj2QJeeBV2K8gRuqWuAZFTO3X0J5WkIJP5Sc1NdXbMInQdWvcayMTqFjGmdOUFuu+MqlIwd4be7l154H9u3KTk6RowcgkmTx7HXy5auQmNjI048aQqLFHr40BEsW7oSx04ah9y8bNhsNrz3zqdoclzE6CYAACAASURBVByjnDF7Kqad4D+k8oJnF2L5MkWLsGXLRhg8MotSuvOe46/B0CH9cf2c4A08zSbjuqrqmlGcIATaTdH5PScI0bmuPmcVKkHYub8Bz73nHeo1VNjU8W7XtMPrP4DWXO7yXLhs7tmY6Tv7NKqq6lFxqA4//PAbdu9SLrZFRYWYPuM4x1AEpo51eJp5DY8iJr791seuyImjx4zAgAF9MOFY/2rbZ59+3RVEaePGdZA1KeyYIVihcMukRehMiUaCQORArYmHOi4JCR5pnW2OY4COwlftcWxRf2ANKv78j1dXo0aNZTf17Ox0vPDyA36H8cfyzSgrO4hVK9fBYlFydJxz3qnIysp07FdBMXOQwfauLLub+n15Kdau2cA+yMvPwew5M6FW2dGvv2+D2bVrNuGxR/7Jyjf3aKDPUgomYuLJF3KC0FGbJgrb5QQhChfV35RCJQirttThvR/CGz7Y6SrmGTHxpVceRKYfN8hlSzcgM1OxXKezW7rg9ivqgzEl7ic3ura6N7T7nd1mw+LFS6DValAydiTS0pT0wCZzE0aOLPIJl6fhV1mZEjyJCEKw2R5tTY0wdHLI5WgjCMp8JIiiBgm5PaGKi4csS+xm2lHCYhk0Y5n7l78AU53bfdDTOPGUWcfj0rm+NUtl+4/A2KREPDQaTWzPktcBHR8kJnjEcPBFEARgy6YdWLliLcaOK8aQof1ZO1VV1ZjYCrGdd9ntaGo0sKyPW7du9IJJUGlRcOx8vHynolULRrgGIRiUorcMJwjRu7YtZhYqQfhuRSW+XXE0bEh5+pEPH17M4tYXFOQzK3BfQmGRP/v0Z0ye0lK9Sk9czuu5DBkCBHb/8NzY9Npmt3slfKJ+Vq1ci4sv8R3QpramHldfqYynquoo9u7dxY4Y6KghGLGbDGg61DIbXzB1Qy0TbQTBZmmEWpsIbXIa9I4U33aTGdbajgtCpc1Ig6hRu5aAki8dXuedmiAvrwfy85Xwybf//WqMKRnuc8m++vJXaDQ6FBa63WwpY6NGq4UgE88JzHQkSWaZHp2ycsU6jB03EIMG9/XZ59NPvg4qQ7J27UrySvAql9Z3Gt596eagtxgnCEFDFZUFOUGIymX1PalQCcIHPxzCii217UZKluyo2v4NavYoluAqlRqjRpWw18dPOwZ/vfZin3389OMKfPHZT0wDQE9TI0f5D7vseBhztSPJMkSPJ0I6z6UnOWd2vLv/72oWL8GX3HDtPThypBoGQxO2bNnAyEGwdgh2ixlNB5SjkM6SaCIIViIHmniotHp2tCColJu2ZLOT1WKHQSqoVBBUbvsFinlAsQ88pW/f/q5Mjf967RGk+nDdpfJ33fEcmpqM6Nu3N8aOG8VSO3uK9171pLXNdzFYxETat/X1DZgwcRTOv9B3XpLPP/seH7ynGD+SBoE0CZ6i1iXh6RdfRVFPLxtkv3hygtBhW61bNMwJQrdYpvAMMlSC8NKnZdhRroRiDVUaD/+J2n1LYaze62oiIYFC1A5j7y+6+EycfuaJPpt/9ZVF2LTRnQCJkuBMPWGSj7K0nenm4djWzVQJZIvw1sKPmPGXUy648BQcM9G3d8LDD77IsudRBsj161ex44Vg7RBkuw0NZbtDhSuketFCECTZzg7jRVENfVYutIn+3VJDAirISpLVgF3/u69FadqztHcpT8gbbz3us7X9+w/jqcff9PruoovnsPgGnuKpAfM3rLVrN+L3ZUp8BBIitERsfcmqlevx1BNKwEPK9EgZH5vLw8+8hlGDc4NCgROEoGCK2kKcIETt0racWKgEwW4V+44fP3JPe6AqGnHOEmPt1ik2c41rz3kmuLnxpstw7CRFm9BcXn/tM9TVuqPDDRrcX/FWaPmg5ThicKpuWxZYtmwVaqrd2pCRowbixJPG++z3pRfexq+/KJ4Pa9asYEZlQdshdEGwJCIIkl3x4e/OQqun0SRCk5CEOEdejq6Yj7F6F8pX/KtF18OGFbPARr379MATT93pc2hr12wDab6cQtqv6Scfr9hPNL/qNrdOdFRyFqVYH6Wr13v1c/38C6HTuo9CnF/u3lWGO+94gr09cGAfDh8+1GJ8l19/J+bMUgKKBRJOEAIhFN3fc4IQ3evrNbvQCIL8R8no0RPCAdOwCX+b3VSz6S1DzQb2GEVuYs7cC3f94zqMHOU7tPKGP/dBqw0cJU/xYnBuacfl1QeJ8JxLdVW1X28Gys1AORpISINAmoRg7RBkG2kQwuP5EQ7su2MbCfm9odL7dkXtjPn4IwgjR46BWq3BkKFFuPf+m3wOZdXKLUhOVoxhO0Jy85OR4sNN90hFJW64TtF6+PJkoM8HDivBM0/eG9SwOEEICqaoLcQJQtQubcuJMYKgUv2fXqtNT8/InBPM1GXIp4wdPfrbYMoGW2ZQyeU/GWo2TU3UmV0E4c67r8UoPymdAxMEhQUwdS0NwuEu5svlsfkYWyUIr/4HP3y/1IsgBGuHYK7bhZqdnwULCS/nA4H0AedBm6QYA3aFBCIIg4cU4b4H2kMQlH2rXITJuDaw0aITh7weKUhOapnNsqKiEjcGIAjUxi233oQTTjwhIKycIASEKKoLcIIQ1cvrf3Kla9Z9LEM+y18JAcJvkIVHxowZubgjIBpz0hPniMbSS7KS7adS+zfceCkmTRnrs6uXX/wQVZV1ru+GDhuIoUMHON673RgYQSD7MrrOelxrPbW6P/zwK2qq3W2NnzAC00/2HXyG4tuTuyPJroPqf8qApEnMSk8rmqCEw2tFGsqXoqnij0DF+PetINDlBKH24Pq63SuWNx9iUb79DFEU83sV5OMpP543dMTw3y9/cVXVaDWYPZvyeXi43Th3MHlWSr5UXcrOpTgKf/xe6mqLiO8dd18OjVrVAr1dO/fhrr8/yT5vaDK8dagmwe+Z09yLpo846YSSEaKIJH/LYDA0PVJbW8fceXguhtj7uXKCEHtr7prx72vXKmEHm4keqC0uLm6/20IAbGfNOmeMLMvM+uqCC0/HmXOU8LLNZeHrn2L9um2uj4eNGIQpxx3Twh/el8ujZ1sWsxX/+eAzNDa6E/xc9JdTMW68bze1B+9/Hhs3bCc3yqqvv/7YlT5w0mUffATI5/i9qB5di/qyH2N4Z4Vn6l1NEJa+daHP6+PMmWcvFwRMiI+Pw5tvKzfj5nLgQAWeeHSh62OKXnreBacjOdltpOgyPfDiBi2NFDas34rffnOTzby8LPz97it89rvij7V45qk32HeCgAu+/vpj7whPbVyaL7/8chKlewZQdvqps4IPwdjGfnjxyESAE4TIXJeYGNWJJ56TotXKjIhMPm4srr/Bd6rcX5asxqcf/4CUlCTmLjZgYL9m+CgXVTdB8H4aI7sEsk8gIb9wchcrXf0ne3/v/dciPcN3Zutrr/4HqqpoeMKqb75Z5BUAYdJl7/vUB1vr926t2vHxoJhYwA6eJBEEf6LSp25WaZKOdMgQBKxc+uaFd/hre9ass9+VZVxE37/8ykPIyPRta3DP3S+irq4BQ4YOwLjxxSBC4VOY840MCvHs3KfNjRn37Stn+5ZsDCZPGYOzz/VNpj/5+Ft89J+vHd3IY7/55hO3+0MIYDkJgizg0TNmzfIdqCSEdnmV7oEAJwjdY52idpSnnHI2WfL1z8/PwbPP/5/PedbXN+LLz39j5MApdKOnhFOeF1JPDYL3Q5kMi9XG4ih4ysYNm3HWOb7PYSsrq3HdNUo+BkB+45tvPmnxyDbpsvcpOw47nxAE1EOSnj+85plzZMC3D5qMzs8B3d13jgAlhGAzkWWcv2vjmg+7YnozZ559hyDgMer75luvwDET3PvSczzfL/4Dvft4P3QbjCbExemV4F7NnG18OTNQRlHymHDKxg1bMaq4P/oV+Q63/MRj/0LpaiU8c0KCoFu0aFG7sqwRQRBUqtNPmzXLf5KUrlgE3menIMAJQqfAzDvxh8App5xNeti59P2CF+5hSWp8iWeoZQpyRE9TRf0Lcewkt92CP59yk8mCb7/+EaJKZIGWnJkc7XYThgwt9NnfTz/+jn/9U4mgJwjy5V9//YlbX8yXM6YRmDXr7MmyjF8JhJOmT8YVV/nWdBw5XIWaWuX+XFNTC4pRQAmZzjjzZO94CA6y4EkQ6COKf0BHBuPGj0LxaOUYrPJoJY6d7PtIjL6/5KJbYDZbiIAs/frrj/2nf4zpFeSTDxYBThCCRYqX6xAEZv1/e+cBH1dx7f/f3K3Sqjf3bmM6yDYQeg/YBkIzKRCKgbw8QjAkL38gL8WElwQIIfQkFJsQiJPYdLCDIUASOja2Mc3dltV72b733vl/Zu7uaiXtSlul1erMB7Ft6nfWO2fOnDln8cXf4ByrROWXfvtrOO9rZ0Ztx+n0YNfOJqxb+0801Bua5QMPmo3Twg6TogVrMn55NU3H039eE7Y9ECpfEaJ3MJ/2d/76D/h4o+HLXlUDU9evf6HXGX9GSFClo4nAokVLWgBeUVJShD8+9quYXf/gvc/x5Zd78PFG40hLpG9degFKSosh3ShLr43S77LUKuihmziA9H0gBASRSkuL8c1LL4A9n2Ha1OhOjj54fzPuufuxUDM/Xbt2zf+NJqbU1+wjQAJC9s3JmOrRwoULbYw5OgDkTZ4yHr/93U9ijv+LL3bjDw8ZWmVxvHDZ5RdJb3binPeZ1a/g2OPm46CDDY30+lffgtfrw3lfO0u+/uLzHXjzjXfk8ylTxuOGm74NaxRHM+JzYWD2g2W3B/vBXl+7dnV0qWVMzRQNNpLAokUXi7CJ3xXvLbvpKhx3/PyYgB5/9Fl8ssUwshXBxY75yjz5/K0330VnR6cM3iTcjtfur5fvnXzqsZgyZZLM8/RTz6IrGHtCuFcWbpZjpd/c+Uds+Mg4XuCcHbJu3erPadaIQCoESEBIhR6VTQuBRYsufgjAdaKy62+4AifGuO4oPt/08Zd4YsVzOPor87AgGMnx9df+je3bduOggw/AqacZHuJWPLZKCginn3Ei5h5oGDU+/9w/AK7h2u9egrKy2O57H/3jKrz+miFMAOzStWtX/yUtA6VKcobAokUXHQMwebXggLkzcfsvfxBzbMLw8JHf/x01+5tw+RXG5ZeG+iY896zhXuTqa78p7Qy2bP4U77y9QR6zXXiREURsx47deO3Vf+OCi07HKafGDhS2Y/se/OTHvzW+sYy9+sorq8WdSkpEICUCJCCkhI8Kp4PAWWdddIjJxKQ+f9KkcbjnvujGiqG2du3Yj45OLwoLC7C/pg4vvfia/CiagFBUVIDLLjfC8bZ3dGD+vNmw2mJ7ZRSCxk//955QU1vXrl3TG086HYOlOnKGwMKFF7/AGM4TA/rudZfi1NMGdzj6/rufo7TMCNj04vPrUVtrhFDvLyCI904+5VgIfx9CyAUL4Igjotpqhlne8avfY9PHRlApzvl569Y981LOgKaBjBgBEhBGDD01HElg0aKLHwTwPfGesEMQ9ghDpQ8/+BwfffAJtm83wkREExDE+2edfRKmTp2AQw+PHiI3sh2xCxO7MZF0Hd/8xz9Su0c+1Bjo89FLIFKLIATRu357q7QVGCxt27YPHe1urHr6+XC2aAJCeXkJzjzrJBx+xEw4HDGuRwZrWP/q23j80bC7g3Vr166JHsN89KKmno8QARIQRgg8NduXwOLFi0s5zxNboAnikxt/sBTHHmec1Q6Vdu6owe5dtdC5gpLiYmnsVVdXi8qqMsyZMw3jJ4R9HA1a1YrHV+PVdWHvd39fu3ZN7Iv4Q3WKPh8TBBYtuugugP1IDHb+gsPw/26JfsO1P4ymxjZs374XdbVNmDFjhvR/4PX54HY7MX36BBnnIZ4UebQg8nPO561b94xh2UiJCKRIgASEFAFS8fQRWLhwycWM8dWiRpNJwc+W34gDDxp615+OHjz/3HqsevrFUFW1ZrNlwYsvrmpKR91UR24TWLToYmGwIo1fvnrWSbj62kuGZcDNzW24/bYHpPMkQzjA/6xbt8YwRKBEBNJAgASENECkKtJHYNGii0UoOhlqTnie+9HN38HBhwx+/ppq6y88vx5/eSosHEBRcMbLL68hX8mpgh0j5Rct+voBgCbcEUsnHgsXnYIrlxp2L5lK4qrv3b95BLX7G0NNrFy7ds3STLVH9Y5NAiQgjM15z+pRR9ojiI5+f9kVOOHE6IGcUh3In554FmtffiOiGrq1kCrTsVh+0aILTwKUVwHYxfiPO34Brrv+MogYDOlOn27dBhFIrKOjW1bNGF585ZU1QxvtpLsjVF/OEyABIeeneHQOcOHCi+9nDN8P9V7syi67/HyYzen5wd2zZz+efOJZfP5Zr/djznHZunVrDPeJlIhAggQWL77wVM6VZ4RfI1FU+PW44sqLcfgR6QvN8ewzr+JvqyIvKLBn1q5dnVl1RYIcKHvuECABIXfmMudGsnjxRf/LOQt7gyuvKMUFF56FM796QtJjFaGeX37pn3j5pV6tAWOo13VctW7dmvVJV0wFiQCARYuWHAbwPwGoDgE55dSv4JxzT8eUqdL+Nqn03rsf44Xn1mPPntrI8vevXbtmWVIVUiEiEAcBEhDigERZRo7AwoUXncsYuw9AOGhCWXmJdKa04KjDccAB0WMpRPbY7/djy+YvIVzR/uffH/YZDGNYo6r6Da+++mzDyI2SWs4lAkuWLDE5nfoDjLH/jhzXgqMOw1eOnYcjqw+SPjyGSjX76rFhw1bpPKl2f5+vZzvnuGndujVPDlUHfU4EUiFAAkIq9KjssBA45ZRT7Pn5lb8AuLxOFpmEIeP0GVPkVcbiokLYbFZ5Zczt8UBoC4Tb5D27o4VR4MIx06/Wrn1GxoGgRATSTWDRoiXCRfdPAH5S/7qnTJ0onYKJUNGO/HwZkyEQUCEilzY1tqJmXx06gy6WI8syxh9UFOttL720yri6QIkIZJAACQgZhEtVp5fAokUXTgMU4ZL5CgDjkqz9NYA9Qe6Tk6RHxRImcM45lyzSdf1qABcmXNgoUMcYngL0R1555dndSdZBxYhAwgRIQEgYGRXIBgKLF190lq6zMxjDMQAODRmG9eubD8A2zrFJhL9VVfOr69f/laIyZsMEjsE+nHXWkjKTCWcHNQrzOceBjGHAWQPnqGcMnzKGDxjDGy+/vOatMYiLhpwFBEhAyIJJoC6kTuD8888v8XgsFWazYtc0PaDrasf69c8ZcaEpEYEsJSCEBotFL+dct3HOehwOU/Pq1as9Wdpd6tYYI0ACwhibcBouESACRIAIEIF4CJCAEA8lykMEiAARIAJEYIwRIAFhjE04DZcIEAEiQASIQDwESECIhxLlIQJEgAgQASIwxgiQgDDGJpyGSwSIABEgAkQgHgIkIMRDifIQASJABIgAERhjBEhAGGMTTsMlAkSACBABIhAPARIQ4qFEeYgAESACRIAIjDECJCCMsQmn4RIBIkAEiAARiIcACQjxUKI8RIAIEAEiQATGGAESEMbYhNNwiQARIAJEgAjEQ4AEhHgoUR4iQASIABEgAmOMAAkIY2zCabhEgAgQASJABOIhQAJCPJQoDxEgAkSACBCBMUaABIQxNuE0XCJABIgAESAC8RAgASEeSpSHCBABIkAEiMAYI0ACwhibcBouESACRIAIEIF4CJCAEA8lykMEiAARIAJEYIwRIAFhjE04DZcIEAEiQASIQDwESECIhxLlIQJEgAgQASIwxgiQgDDGJpyGSwSIABEgAkQgHgIkIMRDifIQgVFKgHOeDyAPQORjrOehfKYkhusG4AEw1GM4D2MskEQ7VIQIEIFhIkACwjCBpmaIQLoJcM7HA5jS729yv9fpbjad9QkBIZpQId5rAlALoA5AK4A2AO3ir7W1VdtfV3fCvCOPXJHOzlBdRIAI9CVAAgJ9I4hAFhPgnM8GsADAEcGFP1IAsGRx1zPWtc+/3PaOx+M5HsBbJoYLqqurOzPWGFVMBMYwARIQxvDk09CziwDnfFpQGBACQeivJLt6ObK92bZ9xxanyyWEJZH+tGBe9ZUj2yNqnQjkLgESEHJ3bmlkWUyAcz4xijBQmcVdHvGu1Tc0oqGxMdQPEg5GfEaoA7lOgASEXJ9hGl/WEOCcnw5gcfDvgKzp2CjoSFt7O/buq5E9zctz6CUTJt88qST/7lHQdeoiERi1BEhAGLVTRx3PdgKc8woA5wA4G8CZAMqyvc/Z2L9I4cBmtyNQMA5gCsrzrR9OK88/Jhv7TH0iArlAgASEXJhFGkPWEOCci/NxIQycEfxL5spg2sbDOZd1hR7lc+ON3kfjDfEWIH4RuHw14FF+Lv7HWN/yEfWLdoIfh/P074N8HaUO2adg2wxM9sHvD6C1tQWapkEIB7xoPFTe+7PlsJq9+RbTtVPK8p5KGzSqiAgQAUmABAT6IhCBFAlwzqcDWALgIgDDsqMVC6aqanLhVDXjUdN16JouHzVNha4bwkG2JEN4YNB1PSy0SJmEc8h3dB1y7de58cgBp7NH5jeZTLBWTIFPj/6TVe6wrZ9WlndWtoyV+kEEcoEACQi5MIs0hhEhwDlfFBQMhHDgyEQnAgEVfr8f/kAA4rmqqlIAiNQIDNauEBI4N/LrcnvOwaXgIF4b74vX4jOxTHNdrNO9C7ihWTDyhOoQ9cm9hSgfehRVs2DdTJGfhbQUUhvADGFFPDf+Ez89DExhUpnAoBiPoc/Ek2ASwoGtfCK83Dwo4kKbuavAZv7mhGL7ukzMBdVJBMYaARIQxtqM03hTIhChLRBCwVEpVdavsBACDGFARSD4PHhCEN5x61JTILQGuvGn64YmQWoPVHBNg65r8tFYbMU6bPwzNxZn4xxBvKUoJihKcKFm4j2Rw1iljXJi+ReLe/BcQggK4fODvscW6eQg6rJZbfD5fVJzkF85CS4tvpMaMZyyfOvfppblfyPdfaL6iMBYI0ACwlibcRpvUgQampquG19VJQSCtGkLxI7c4/XC4/XB6/XJYwKu6/D5/HJx9Pt8UlCQxwditx7c2RsDYFDMZjCTCYyJRzOYeK2YjOcmM/J1D3wetxQCxFIvZQHxqCjBx6DgID7god28Im0TFGYIBsbOXr4TlDb6PxqChdQkhH5NmKhDtmjYOQj5QmgVpK2CIZwYOgqAdzWCl0wKfmbYRwhBh3U1GHYHNjsCRRMSnrMiu7mpwKqcP744//2EC1MBIkAEgr8yBIIIEIGoBDbt6SgpL7He0+PVv+5srsk//ICZsNvtKdESWgIhDHh9hlAgksvtgsftgdfrkQKBSCaLFSZrHpjVHl7wFSUoEAgBQBl6R+3QetDT3grHxNnwBLSU+p2pwnrrXuSPmw5vv+4VaG50twtvy0BR1UQ4uS3hLpgVhhKH9Q9TS/L+O+HCVIAIEAEyUqTvABHoT0AIBoUO6wpnQD1X142Db131Iz/QhYPmCM/HiSWvzw+PxwPxKASAgKrC43HD6/bA7XHLs31LngOmvEIo1nyYbHlgcpefWsrTPXC1NaJ4wnT0qNmpLNS7GlBUVgVnlCMEu6sZbrdLHjMo5VOgRdxeSIRMkd2yu7LQdHax3b4jkXKUlwiMdQLZ+asx1meFxj8iBIRgUOCwPuoKqOeHBIPIjvCeVhw8Y1JcWgRDCPDC7fFKuwKR3C4XnC4nXC4XTGYzTDYHlPxCWB3F8l5/upOFB+BrrUXJuEno1q3prj4t9TmUABDww2UaaONpYyo8zftlO4UlZXBZipNu02ZWeEme9TeTSuw3J10JFSQCY4wACQhjbMJpuAMJGIKB5Y+ugHZhNMEgVILrGqyeNhw6d05UjOL83O32SLsC8SiS0BgIgcDpdkMN+GHJL4K5oARme0HYeDBTcyL6y9tqUFJeiW6lIFPNpFRvvglwNdeAlU+NWk+B5kR3e4v8rKBqMtw8tfhUJfmWT2aU5Z/BGDMqpUQEiEBMAiQg0JdjTBPY0+b8XZdH+57O41t51K4WzJlciZLi3t2sz++XmgKhMRDXEEUSRwjdLjc8zh55ZGB2FMOSXwxmTm2BS3Sy9JY9KCwshsuenU4chZ2Av2k37ONnwq9F8dvAdZi6GhAQwpXFCi1o0Jgoh8j8dospUGK33jaxxPbLVOqhskQg1wmQgDDMM/z5zs3tJgaucfRwoN1d5FgDTa8tsVv3TWGmWi94e0nJtI5h7taYa662w31jp0f9uV/TE4qWKHblwsK++rBD4HS54XK75a0DkYTVvdAW9DidUnNgcRTD7CiCOa9wxPiaOutgMinwFyZ+E2C4Om1xt8BaWA6XFv2YxaGo6GkKHjWUVsBlTg/P0nzLe9PL8s9ijPUM11ipHSIwmgiQgDDMs7V57+a7893+H4aarSgvh9U6cFfp0nW1R9O8HnCXj/Mev653+Tnaf9XS+DQHOnTwDhN4B7dZ2p0OpeO9KccZOm1KgxJo6fae0+ZRH3L71eg67SH4CWNFvbMR4yvLDdfEALweL5xuF5xOJ0xWm6EtcBSDmYZXWxCt61Z3C7wuJ0xVM8L9zbavSL7uhsIUOFnsGyJ2TyvcTmMdz6ucAh8Gd5oU7xjzLIqr3GG9parQ/mC8ZSgfERgrBEhAGIGZ3rnjY1UPqPKemt1uQ1lpady9eLC9Ff90Rd3wiPtxrQA6wNEB8AbGWC1nqGU6q9PNrFZR9bq2gKN244IFxl26MZQ453P2tXue7PIGvqIl4YJYCAZaVwvsFhOKChzSl4DH7Uanswc+r1ceHxi2BRlxqJj0TNl8XfB0tyN/wix41ZD3gaSry0jBApMOX087AvkitlX0ZFEAtbVGamny8h3wOarS2pfyfOs/p5blLWKMGeogSkSACNA1x5H4DmzetWVjvs83L9R2VWUFzOb4dkQuXcc19fvhle5uk07NHKhljH/MNbbOpihvvnL4iTl5rME5L25z+R9o7PFd6lf1hK8KPp3PQQAAIABJREFUiCMFvacNZqgocuTDbLZECAY+WAvLYC0ql74KsjGZ/C4EuppRNH4anDFU+CPdb5uJwdO4G9ZxM6EOIrwVcA+6WxtldwvLqqLefEhlLA6rqb3cYbuxosD651TqobJEIFcIkAZhBGaysWbLod1O39ZQ03l2O0pL4z8KX+/qwe/bhbIgnYm9xcFfZQr7z2uHnvROOmseqbrcPvWSFqf/gTa3P6ntptbdBvicKCst7isYeLxSKBDCwXAbHSbKkgc84J2NKK6aiJ4knA0l2l6y+VlnLezlk+EZwp9TpG8Ec8VUBFKSkwf2VniQLHNYXppamn9esmOhckQgVwiQgDBCM/n5rs0dZp8/LBWMG1cJUxze8ULd/VlzA7b6vJnpPed1UJQ3GOdvg+O19UecvCczDWWmVs65tbnHt6qxx3dhMscJ3O+GuK1QXFgAIbzJo4QecZTggSWoMVDM2elXYABRLQC9vRbF5RXoUdJj3JeJWbMHumGy2uHig3O1Kxzupr2yC/kFhfDmxT6WSKWfhTZz47gi+7VFdvPLqdRDZYnAaCZAAsIIzd7GXVvuLfT5loWadzjyUVxUFHdv9gR8+EFjfdz5k87I4GUczzKFPfvqmjeew/Llad6zJd2zqAVdXvW8um7vCqdPLU+0Zs3vhdbVhII8GwoLCnsFA48blqDGQLEk7vI30X6kNb+I4ti6FwWFRXDbE0aS1q4MVlmBokL1uuC1Du0MyaH2oKfD0KAVVE6EG5mZE7NJ4eX5lr9OKsn71rCBoIaIQBYRIAFhBCdj+/aNIixf+Fx8/Lhxweh68XXqqc52PNPTFV/mNOTi4NuEsACFP/vaYaduSEOVaa2iscvzlyan/5uJag2EnYHW1QyrwlFcWCiNDoXGwON2yet34jhB3E4YrUmo7y3yquPErB1CvhlwNu6FUjE9rj6K65sh3wh6yQRwEUwqQ6kk31Izvsj6rXyLJSeO3jKEiarNQQIkIIzgpH68Y9PmgkDgiFAXChwOFBUlpgb+bsN+NAWd8wzrUBheFcKCzaY/+9LcU9NtEJHQUJzewJn13b6nnT61MqGCwndBdxtYwIXS4iLoOkdndxdcPT2wFpXBUlAmnRyN9mTqaUbA64JSOSNrh2JSGAJNu+GYMBMeNYrDpH49z2cqnEE3zAXFZXDHoXlIdvBW8c3wdO31OTuFFLKXM9x2VHX1W8nWR+WIwGghQALCCM5UTc3WWV6nZ2dkFyZOGJ9Qjz7wuHFHqxH1bkSSsFdgyv1Op/mB944bfl8MLT3eP9R3+76j6YlF8hHHCXC2oDA/HzarFV1dnejq6oIpzwFrURXMedl1XTGVuWWuNmjubtjHz4Jfy94TIr2jHkXl4+DUh45UKXjk+zrg7O6UaBzjpsITZ7l4Wdo0b7e/p71WC/gOHlCG4wmTgpuqq6uNDlAiAjlIgASEEZ7Uz3dt7jT7/OGD18LCAhQWJOY3/7dtzXjb7RrRkTCwTzjHA68dcdJjw9GRbnfg+HZP4Ml2t39mIu2FjhPE1Trhz8AtDBA7O6GDwVJSBWtB/LdJEml3JPNydye4qwOF46bBlfhNz2HruoN7wHUd7iiBm6J1wsQ49Lb90jeCCMOdDm+RZqZpiqe71tvTZQb4pP7tcqC7kWmffKKoeR8w/3wPuJ8BPg7uB5gPHH7GWPA1RDxvP2Pwebu7zU1fbJ019ejj3mVgfi7yijIMPqbDDwU+zo06jM+5H9yoRxGfadwPhfl06H6zifm4avJzs+LTofnNXs3PrYpPQ8CvqSZfoeb02+d7fKvZJdkZ43vYvlHUUKoESEBIlWCK5Tfs3nJfkdd3Q6gaxoAJ4xPTIrSrGq5pqMHQitkUOxtXcfYW1/kDrx958rNxZU8iU4vT+8MWZ+DX3oCWkKtCcTtB725FSVEhrFYr2tvbpebAJgSD4sq0hFhOYjgZL8K9TvCeFhRVTYQzi686Okw6elrqoJRNiZtJAfOju7lO5i8orYA7STfMVs3bGehpb9ICvrn9G9cZamug7fiP4i/6nAXmx925UEau44t/vIS5Zy6GEqe/k4TbiFaAQwMLCiIwhBUhkAghBkIYEYIMh18JCTQMPq7DEEgiBBQhsEjBhfMa3axsU2zK9vWzj29OSx+pkqwmQAJCFkzPzu0fa7qqhq2shB2CsEdIJL3U040VnW2JFMlsXo5nua4/8Hr1qWk9q93X7nqxzRU4N9HOa93NsEFHcVGhjJPQ0toKTddhLR0Pc378t0cSbTcb8vOAF7yzAUVlFXCaErNxGc7+W00M3sZBAjfF6IzN1SwNSk0mE6wVk+GLU0tigqaZvd01np4uG8D7WHAGwL/cygI7P1TUafuYelgqHOo2fYTK2QfCWpi97BMeH0cnGLaB8+1cYdsY59sVruzSAr5dry84c/gspxPuOBVIhAAJCInQylDeLXu2bMnz+A4PVc8UBRPGJe7b5+bmemz3iY1CFiXGHwPHfgamc8Z0xrnwlcflI2c6U0KPTOfivWAeHeAK13XOFZ0pTM9XFPNiVnAn46xQOLMR6hJFfHvFoxguY1CEHQIDTOJ/DFCEWQIDdL9PKXY49Dy7nftV3dLV1gKYLbAVlkP4MxDlRVwF8ciYrEJUByaqE/UEHY6KT2RehPIG80SU6+2b6CMP1sWgiELBuod9doK+EAoKi+HO0qiOISZ66z4UjpsKlxb/T5OV+12B9sYGWQdTLGCIS7WuqYE+x1Mu8H9tVALdHymBua3QDkjHPDV9+SkKKqrgqEj833M62h+hOmoM4QFCeNipgO3SGN9ltU7YtW7OnCz7gRohQqOk2fj/FY6SAY3Gbjbt3j2uyxv0IRscgAgnnJ+fmAX9lz4vbm02ficpZScBIYBA10UsBy6kFyHkMF3KIRHCSaQAJPIIQSMouASfGQJMpCATymPUCW487tq2FbPnHgpN5x4NWicUkyoFHsUQfGS7QVQmIcAEywXbkyKNrM8QiozXshwPf8ZgEnmYGJvCuRyiIow6DOHKeC1ycDCTlNkUMFGJBihSihOhmkR9ChSf1wKFK2ZLvlCHB4UzcYlRimZMCH+yD6IzUgDkLE/jSlVnZ01QTuRCghOmmEy0KBkJZxCSr5BNRXkZZ0tQ/qK9sWL9/m2TPm1vgnXiRJgs6XOA5enqlHNqLxrat0N2flvT3CvOdV3X2tr37g7fNpp29Fe+Yaso3/DGYafvSnNrVF0aCJCAkAaI6aji8x2bus2BQFgHaTaZUFWV8K09PNbRhlec3eno0oA6uPhZ1XUw4fGRvjkZYZzuSpu3f4GqAw5Kd7U5U58W6I3N5G5rRVdDHSYcGr55nDPjzNaBRAhkGxnwyPrDT34kW/s6FvtFP/NZMusb9m79TZHb8z+R3RFRHkW0x0SSxjmuaahFp6YmUmzQvDygQvP7wdVeza0wtlJsFrDhNLpK24jGTkXN2z9H1QEDb+mNHQKJjbR113bYiopRWDkusYKUOy0EOMPy1w87+ba0VEaVpEyABISUEaavgh3bN2o8wrOixWJBZUXi7nH/7Xbhd23pMTLWPF7o/tjRoRWrBaY8e/ogUE1pJdD05WcYd+Ahss5vFZfBHOe/+Cc729Paj5GszOMWXjGja9XKKvreZBTXYPd//CGmLjh2JLs8ptvWdWXuP488cfuYhpAlg4/z5yJLepvj3di0c/NWh99/aOQwy0tLYUtQiyDK/6q1CR953CkRE4KBEBCGSmZHHmkShoI0Qp83f/EZqg7qFRCWxHEe/oarBw+kPVroCAEAIASEhtqB641iMmP6rIHHCfKooX4/JhxWPXKdHsstc+Vbrx1x4qqxjCBbxk4CQrbMBIAdO94v4gGlzxUhq9WCivLEtQgNagDXNdSmNLpAV09c5RWzCSZHflx5KdPwEmj8/BOMP9i4ICM0CGNVQIhFPS8/+tXD1p3bjKOGqsR8kgzv7OZmaxzs+68fftKDuTm60TUqEhCybL4+276px6IG+rhSrKgogzUJ6+rV3Z34S1dHUiPkmg7V6UJA9cFkskg788GSubAALGTunlSLVCgTBBo/+wTjDxnbAkIyXMX1h5oP3sG0Y05IpjiVSYGASdNn/KP6VCOmN6URJUACwojiH9j4O7u3/LLS6/tx5Cd2mx1lZcm5AL6xqQ77/L2W2vEOVxwvqG436pp3wmrNQ1Xp4N7t6JghXrLDm6/x080Yf+iRslHbEEJeZM+ES72xntztbejYtxuTqo8a6yiGbfyM4Zn1h5188bA1SA0NSoAEhCz8guzcsUnTA4E+W/bKygpYkrgxsMXnwfLmxoRHKW4sqC43nO4umM1m2K2De3Y0Fzpy1lVxwvCyqEDDp5sxISggZFG3Rk1Xajd9iMnVR4+a/o7ujrIPzCrOXTfvpJbRPY7c6T0JCFk4lx/v3rypwOs3tn3BZM+zo6wkOS3CQx0teN3pTHik8dogiIotxTnkRjZhUtlboGHrJjK2S2F6xI2GKfNIQEgBYXxFGRq4hsWvH3nypvgKUK7hIEACwnBQTrANzrmy44uPBriLHVdVKf3NJ5rcXMc1dfvhSVBtrHl90H1DH0+Y8mxQrOnzQJfo+Ch/bAL1n3yMiYfPI0RJEqjd+AEmzz8mydJULF4CF/C8fx2tW+oWVFdfGm8Zypd5AiQgZJ5x3C2s2fHFG6HMc7nnOJuq9vGS5MjPR3FxcoGFXnP14OEkrq4FnC5Ai30eTTcY4p7eEclYt3kDJh25YETazoVGaz56D1OPyqxPBPEjLM4TzYxBuLsW7qSNR0Q8AmaRL/Q+WG9+6aRafB4sowQfQ6+ZkVfYEMu6g22JMqF2ZNvB18ILtmjLJOsJluXBvMzopywb7KcZXOYNvSf7EaxP9FfWxRie6mzHMz0D4zh9Tc/DV3QRmJX/fMG8eb/Ihe9NroyBBIQsmsnP9u3TCpiifKZ68IW/o+ZcnU3t370J48dJ/+7JJGGLIGwSEkscutcPLYomwWS3QbGR5iAxnsObW0QSHG1GduHFUS40oUVMLDRiEeJysTFHLIK9i6uRV0S5MBa84EI1YLFlMIsFTy5qvDevyB+qN1jG29qCooqq3vcjFt2+/TTakvX1bze88PaORYwrl5IMbiFCX3Bx/0OGvJBBzXRdx1afB2/09OBddaA28lRuw1c1Yx/EwS8+at68Z3KJy2gfS459TUf3dEQKCL9zNuBhWwHnWt+wdg5HPoqLktMi7A34cVNjXXKQRLwbVYPwNKeYTGBmsd+gr09yMOMvJXeMwQVP7tBCu7rgQhl6z8yj79o6du/AuFkH9Nn1hXaqvTs+UW9wcY3YGcrFObQzDe5u5QId3iH2LoqhnW94YQY3druhhTrY39ACLhf50OIvI3PSd2mwb4WMgSqjjupy4TUWYLEgG4/iSei5yGt8ZpSRn8mHYL5g9FJZlwibKiJZBRd0I0+o7t7yuqxf1iLb6ZuYccXZCGAqw26JOFoiXtdG6HjS64o6tGrdjEv0CP8punbQggULvoz/XwflzDQB+leZacIJ1N9fQLjJlt81W+MDQsGlokV4uqsDa7o7E+hV9mQVX9Y+C1FQZdq7CwypPUPq0OAuMmInGl4U5cJl7EaFStWo13gdWgANFWyE6ja84BkqYZlXLuDGTje88EaoY43Pg4tvcMENqW1DO85oKmVaMIf3e2csenpwkTUW097FMriABhdaYwE1FtfQgmksoH0XWhlUM3JBF0J2eAE28sqok8H3RXuijCELDFiF4wJiyFlGrE1ZS3DRFtsM0baI0KJBPHIEdB0B8cg5/FyHX9PgBYdP0+HlGjy6Co+qw8M1uLkKd0CFU9fgUsVjAD2aH66ACl9QYjDGK4OUykcjdmZoLMx4zxBnUGQrwMOTFkDE5g4m34J51eSzPa5ZHr5MJCAMH+shW+ovIACs/SGzvax/wcLCAhQW9PGlNGTdkRlu2b8nrKoNq2dlWF9joet9Tyx6Sp+FUzhMMs4qI9WlobNKY8dpEnmCdYUX0YiFV+wcjXPMiHPU8IIbLBt8bbRPO8yEJjgLM0fuPuXuNmjWIhfQsHraWMSMN3p3wMZbkarr4G5ZljWey4VVrKxM1B1cpOQaHNpdR+6ig+8PBycZFNsIMi0XawZoXJeCgbFQM6jCKZlYqKHDLxZrXYNf1yF8UXjFo1iodQ1eXYNb1+FWA3DrKpyaBreqwamJxVr8qfCkMUhbpvCYFBN+PeUYTDP1mlgxYOP8edVkLJMp6EnWSwJCkuAyUWyggADcYXeohaou7HzCSdggCC0CJSIQIhB5Biz3bHJdDC2gIfV0xIIZVk8DXA/tnEO7vgh1srHRjVAvi1csuAjz4KIsV2fxn7F7DC3UyW2CMzapYlMt9+jBXbboLmccmtjJM0DVOVRu7KrFIu4Xu2mPF36LWe6w5YKtiZ21Jh/dYmetGouySwvtrgPokYt3AN2B2EHOMjbIUVDxdycfiVOtpf17+uSCedVXjILuj6kukoCQRdMdTUA41WKtuZibBhgrCjsEYY9AaXgIRFNBGwtxaAds6IaNHbBxTiz/wrvZ0K7W+MRQSQd3vsHttKHSFkrYvrvqvmfHwZ20rNdQ247OxMCEDjq4sxbn1SLpwQVblepwsVCLnXVoV23ssn3BXbVXLNpaUAUe3D2LHbZL7qz9cOkqejRjh90lPIPKfXtiyV/bDOvkqsQKZSA3Y4o0TpZ/SvC50MGFnxt2AIYBsyn8PFxOukEf/OdeUwNQVT/UgA9qIGAcmaQ5LR43F5c7Jg6olXPcfNT86rvS3BxVlyIBEhBSBJjO4tEEBFH/QzbHgKuGOadF6HO+G9yZxlAzh8435TIcNtLqq4aWC3VIvRxcqIV6Vx7wivNYedDba3BlqKpD58LGQh06k07nHGdvXcbZkqEONwzMBF+BQSzWoYVanFerQgUeOrcWi7SuwadzqQ4X59UesasWanGuwalqcGsBOHVVnl0LNXhPwA+3PsDNR1ai8dc2wTp5+LV1DkcJHIUlsOcVwGzpc9t5WDgF/D60NO2F15O4g7VYHTyoeLxnmTKhtrS0dGCIWJ3fumBB9SvDMjhqJG4CJCDEjSrzGWMJCNfnOToPCugD3CgKnwjCN0I8KXSGy7jxwx/UQQfVx72qZ+Mc11AZS2tkaREtV1hjhxf+WC4fYetnUZ94RxomBc+Le42oxbmwqE+uPFKtK+o11uvRugOOh3pyeULXWA1DM4O/oC/+xGIdWrTFYh0QqnD5KBbp4O6aaxC7a68wJut2wu+wyrNqtx6AS55hq4YaPOBHj8ijiX05pWgEhltAsNryUF45BbGiTA7nLOm6hsa6nWkREspM+Vi8pVH8Npx42223vT2c46C2kidAAkLy7BIquWHTpvPBsWywQuY8+8mljgIm/CCIa44RqeEhc96E/mVNJgWKIkz4jIU60iJarunBxXf0qqETQpy5zEHVrhSQQgs2B4RluNhZa0ycXRt/hpGZOK/WpJW4MCwTi7VHWIgHH8Xu2qUF4Jbn2cHF2m8YmYk/YaSWrhSobYYlC1Tk6RrPcNfj398E65Th0SA4CspQUTUJJnNf3yKq3weh/hf/yG2uAKzuAEx+VUrr4gYEE1K7eK5r8rXxXNyyMD6XPw/iHqtZgddhg6fIDtVulndbxRGE8KAkfkeYyQxF/PW7clq/f1tKQkKe2Y6LNzfLqSMBYbi/wam1RwJCavziLv3Rxk3LGcPPhypgt9lQk2fuLyDgVzaHWqz1NVYcqq5c/HzgNS5xni8swo3FWyzYhkW4uMYl1OE6fKFza3lmbViDe8ROWlPhFYu1fC2MzHS4/GKXHVysVWMhH80pW87QRyvDwP4mWIZBQCgtn4TS8vFhTELj5mltgb7xS7AX3kZJSQnKyythsfSxV04aa3d3N1pbW+CPFun19AVQTpuPvPKKcP3JCgnCRuKc3R6UOH0kICQ9WyNXkASEYWK/ceOmGznD7+JpzmMxt/4C7X+KzHuSyXLK12GeH0/54csjjKKM1uRxRPj8mssrXMI63LjKBakCD+2uhVpcnFuLM2tx31os2mGLcLFI66pcvJ1igVYD6A7uuIU6XAgAlOInMNwq8vh7Njpy+vc3wjqld+FOd6/Fzr1y/HQ4CnpPEH0eF9T17wPr3peRVMeNG4/CwvQHQxOaxaamRnR2xvCL8r+XwzGlN8x7fe12eN09CSE4oV3BjPre+kmDkBC+Ec9MAsIwTcFHmzadwjjejLs5jueZgs2R+Yvy9eVci61+lmfX8r+QRTiTC6q4dS1KhSzDDXW4cY1LqMPFQm08qr1q8KD6W+yuhXGZ8Wgs1vLsWg9IC3JK2U2ABITU5sdf0wjr1MwICGazFZUTpiMvr3fx9zQ3AXf8Gbrbh7y8PEycOAkWi4hTkLnU3t6OZtFulGT+7Q2wOXr7J2wS3K6B8RSilT3Ea8W8na19PiIBIXPzmImaSUDIBNUodW7atGm6xrEnleYcdiVofS8MDQ2DQV1s08VuPcZa3ax6cXv9JohHSmOPwHCeoeciXf++BlinDTD/SXmoVns+Jk46QLotF0ncoHF/8gXw++fla4fDgcmTp4Y1dCk3OEQFXV2daGjoY/ckS9i/djJMC0+Qz6eowESNY4LKUTjE3sCsmFTDnLZvsjOTe5rVsTGZ8XCGzWbgturq6tHpCjaZQY9wGRIQhnECNny8SWgEjhjGJmVTb7Xtx70fv5VQs4ojz7jyJg30jKtvQkMRejQ+E+8pxmPQW5zMG/Qe15vfcFAT+VnotdB2GPX0lgt9JjsstSLG17RPm8GPwvfyyJd/1PnNtIo8oS/VKMycCQEhL78IEybPCdNQA3743vgAeO7f8j2hOZg6dfqwCQehjnR0dMgjh/7pqod+gRMLK+Hs7s6GGdy8YF51dTZ0ZCz0gQSEYZzlROwQ0tmtz13t+PG7r8Bcmv5zzHT2czTWJYWZoCCj5NvAsiy6pX9fI6zTMqMiH43zlWiffXsbYJuePg1CSfkElJX3Ogry+9wI/O014N1PZddMJhOmT5+R0LFCRWUZZswwfKlNmjQe3d1O9PQ45ePePTXwRYnEGotDS0sz2tra+nx8zn9fhktPPhVt7e0yOuNIJ8Zw1fzq6idGuh9joX0SEIZxljdt2lSicewFMCAAUya7sbpjL9Z0pHS6kcnuUd0ZJJCJHXAGu5t1Vfv31sM6faDnv2Q6Wl45GcWlvVcmfc5uqL9dBTT0ntNPmjQ5LoNEm82Kw484WP6J54OlPbtrsGXL56ivG6gdiFaupmYf3G53n4+eWvUYPG43PJ5Ew8UnQ2rwMpzjtqPmVy9Pf81UY38CJCAM83ci3uuO6erWXr8TN9d+lK7qqJ5RRoA0CKlNmH9vA6xp0CBUVE1FUUlluDPejnZot/6+T+eKi0swYcLQ2ooDD5qN4084uo9g0NHRibbW9nB94nhv1uwZfeoXgsIb/3x7SI2CEA6EkBCZfnLf7ZhbXoWOWDceUsOcUGnSICSEK6XMJCCkhC/xwsOtRfh/dR9hny997lITH3HqJcxmCyxWOxRFOHIxwSScuShK0KmLCSazcTdcU1XoXIOuqVIVqolHTYOuqwhI//L+1Dszymrw76uHdVp6dsCjbOhp6a5vbz1sKWoQqibMQEFhb1BWT0MD9NtWDOjf7NmzIb7rg6Wjjj4S4i+UPvv0C7z88nrU1dYPKCZsGQ4/4hCce95CFBUZ0V9bW9rxxhtvy8fBUmNjQ5/rj8efdTKuv+pyKSCoqri4PGJpn4nhSDJUHB7+JCAMD+c+rXy4adORCoewGszoUcOTrTvxSvf+ERhh8k3abHmwWPNgs+dDuJ0VfyZTeq55CaFBnPn6/R74fV753Od1jeKAR0NzpiOGoRkNlsO/pw7WGZOSrmT8pFnId/T6OHDv3gN+118G1FdaWoZx4wb32BgpHNTVNcBms6Giogw3XH9zzP4deOABuO76q/HG6//GaWecJPMJ24TVf3txUE2Cz+fDnj27+9S74qnfAyK8tNOVNI8UC3bpDKccXV3d5/p3inVS8UEIkIAwQl+PjZs2Xck5Vmaq+S88nVjesClT1ae13nxHEfIcxcjPL5KagmFNnMPt7oZwTuP1ueBxZYWldtoQpPMMPW2dGkUV+XbXwTYzOQFhwuQD+sRUcG35LHyNsT+CGTNmygU/VpoxcyoWLjpNfrz1k8/x1J//DocjDz9bfjNWPPYUNm/eKj+bOGkCnNJA0XBodNMPrsPevTV47tmXpTbhmmsvl+8LDcLf//bioDOxf38NXK5eYeCmO36MBVNnSGPFEUgkHIwAdBIQRgB6qMmgkHBvujUJbl2VdgfZ7PsgmlAg3MsGPG5AqDADKpiqQtF0MFVHSaEDRfY8mHSOPdt2wdPeBXh9KHM4cNoJx6Jx5z4cNnsWCqCggJlRCIZ/fbIVEw6djRfeeRf1bhdQlA97RSnKp02EnwEu4TDKpMBstcnjC5GEE5ierla4nLlx1TodKvIR/Ccy4k37dtfCNnNywv0YN3EmHAWl4XKuN98H/vbPqPXY7XmYPn16zDaEEeKSr58njwmE5uD+e/8YNhZcuOhMHH30POzZU4MFR/UePdTur0NrWzvmzJ6J25bfCa/XcHV8zFcW4NLLlsjnwh7hyy92xmy3s7MDjY29ho3Tpk/FHXf8fESOGXSGatIcJPw1TLkACQgpI0ytgkwcN9zdtBUfufp6MEutl+krLY4OhCV35Jms3+OCqbUD05/5MGpD4ofxsssvlp+tW/s61q19LZzvtNNPwvkXLI5aTsRBFJcQ176yHv9Y1/vjHPkj+fxz/5DW3XsvPAZ8YiWEdzuRXM4utLfUIhAY3Q6m/LvrYZ1JNgjJfoN9u+pgm5WYBqG/QaLr3x8Af3k9ZhfKyytQWdlrwNg/Y+TRwm0/vwNtbR0yi7DD+fo3L8Sxxx4djPU58Oc8EAjgySf+ii1bjGtEueh0AAAU5ElEQVSUIt2w7L8we87MIY8aRNldu/oKECNxzEBGicl+e1MvRwJC6gxTrkEYLqo6bmQMN6aqTfhXTyMebvki5T6luwJhfCUEg6KScWEHMD6PE4HN21H24vvS33ysdMKJR8vrXO3tnVj+s1+Hs82ffySuuOqbwQgQfb/K0gGTFBAMJ09/++tzeOft98Nll//iVpSVlWDblzvxz9eN6LOe8SWoWzQPtiLjzFiEu21u3Av3KNYmpKIiT/d3YDTW59tVC9us+DUIpeUTUVreexPBtelT4I8vDDr0yZOnoKDAMCKMlr59xcUoLCzAhx9slEcLofT1b1yA40/4Svi1dEwWjFUiHY9FhC355e2/RVOTEVGxvLwUP7/tFvl83do3IG43xEq7du1CIMK496a7f4qjJk1Daz9fCZmaWxIOMkU2vnpJQIiP07DkEoKCruNKznBloh4XxbHCmva9WWmUKALRiDvgZotxxhrweRHYsQf8wWfl6/Hjx6OkpFcd2x926AfyrTffxrPPvBT++P4H7+yTdc/uFjQ3d0uJoLyiALPn9DX6uvGGW4KuqoFTTz0BF1x0rjTUevzRvkZjOy49HvZKo6zX60R9zbZhmf9MNJLMDjgT/RiNdapdTsAXgLkq9nczclxFJVWoqOoNbuTctgPsd70LeiwGs2bNjukYSThBuuTr58mi99/3R+zcYRgOTps+BT/8n+vDVbrdfuzd04rODhfsdgvGjS/G5MmlUjgWacOGTVKTEEo333ojJk2a0EdAjta/2tr9cDp7b0EdMHcObrvtFohokL5okSCDlYiotFabTfpTSPbWA+O4af78anEES2mECJCAMELgh2pWxG5QgemKjiN1QG5pX/e0XNnpc03rX7ZV9eIjV4uMgphtKdJznCZcyu6vA3vwGRmMJpSmTJkChyP6DiryeCHyB/KIIw/F1dd8O1zHls01aG7qa2BYWubAgqN674Kv+ssavPeu4RNi0uSJuPmWZfJ56Jghkl3DuQugTTLUvszVA+Y0AtQIt9A7vaPHkDHRHXC2fX9Gsj/iBoi5shRK/tCGs47CUoybMDPcXfe+GvBf/3nI7oud/ty5B8XMd8QRB+P4E8URAvrcVojUHni9AXzw/i74fX3//c+YWYXZc6rCdf/sJ79CZ6fxPRa2CwsXnSGPGZ56ck3M9puamtDR0dco8ZEnH4aFc+mtMVoS2g67zWDW2dUFcVSRaHre3fje/52w8LhEy1H+9BIgASG9PDNa22HrVrzldnWenNFG0li5+MEUP5wieVpboT/xErBz4H3tadNERLu8qC1PnDQe519wtvws8vz1m9+6CMceZ/xwtre7sPGj6J4iDz9iitxNiSTOYR9/tPdHO6SBiCYgiPxzFx2P02f2+swPdfDHtRuwy59Y2Ns0Yk2oKhGNUOyAFXtsC/mEKhwrmVUNvn0NcR0v2PMKMXHKAWEynsZ66Mvju6AkXCvPmdNbtj/ekP2B0BwIATmU7r7ndlithr3Mju2NUnsQLZ16+sEwmxX50aqnn8F77xl2PpE3Gh5+MLbXYuF2WbhfjkzX33Erjps2K+oxg81qRVFRUTh7ogLC/oBb26D23PnL48/+37HyVcvmcZKAMMyz89lnn8U+bByiL0vrNqxzOjuN0GopJHlOKf4Lzr4mokFGHlimUHeo6MTJc2HPL5AHoa7tO4FBVK2DXfGKFBA8nl6DQXElTFGMAezb24bt2wZGohOfzZhZGT5qEOMOWXOLz/LsdhkBarBz2MMvOAUnTOprYd6ievCL+s1ZfUskNA9qexe41w/LxNhGcGmY7pyrQkbBnFABmI1oi7GS1ZqHydMPDn/saWmG/tNH4+ZhsZgxa9ZAITRUQUhAqK9vRGmpYRsjbA3sEQLfhg/3oKMjum8CoUETmjSRVE1DwG/s5oUmYcIE4xhtMAEhWgCnOXNm4he3x7d+b26p09wBf4Q1xEA09arfqTC2r4Z5//q74xbfETc8yphxAiQgZByx0cCGrVtnwR94G4yNeOScz5rrUcWi+2/XweHhOjzQ4OHGn0vX4IaGLj2ALq6ikwfQofvRxgPw8YHBW2YeMF+OOeDzwP+vDcCzRpS6WEkEp7GLxTpKihQQxPWuUFp8zlcxa5ZxfNDU2IVPPonuEOrAgyZiyhTDi50w0hLGiqEkrLmFgBBLgyB/VNUAjv7mQnxlXF9DtZ2+HvyiYRN8ujZM36DkmwnUt4BZLTBX9DrsSb623C3JAyq0zh5o3S4Z4IoFPXTGGrHw6DltVm9wVm9rC7SfPJIQILPZhNmzh9Yg1NU24Jk1vX4L5Hc3mD79tBYN9dGv5Z5w4gHIyzP+rb/z9gfYuNHwMSSO2C66+Fz5fDABob29Hc3NTQPGtOqvjw86TgZs0RR25YzJk8mpUULfiOzKTALCMM3HRxs33cUYfjRMzQ3azGACQqL96+EqdmtufKZ242O1C+WTD4AtzwFvVwe0PzwL7Bk6QMyUKVPhcBi7nP4plpHWiScdiyWXnB/O/va/t8Pj6etKWahWTzhpLiwWYxf4ysvr8eo/jOuOkZbcgwkIXq8Xe/fuwXd++SMcWlzRp3ub3G24o/GTRJGNSH61sQ2aa+QD7YzI4BNoVCnKh6Wy1y3yYEVDgrDI421vg/bjPyTQkpFVhEufO3duzHIhDYLQnt38o5+H833nu1fi0EMN24X2Nic2bhAx4PqmyqpCHFnda7J0910PoKamVmYK2SD4/QE89sjTMdtvaWlBW9vA44tBBQSG+3RVXT5jxozccCaS8KzmTgESEIZpLj/77LMyr8//KgcWRGnSuNg8RPLoWqHGdcOjT5ypIIqb4v4CgtASJJvyWF8V7KP5XjR53eA/H3yHEdnehAkTUVwc2+v0Nd+5FFarBc898xLefNO4kpifn4c77uoN6Nbd5cG2LxvR2WmoWouK8zBnzjiUlfee6Ny2/C60tRqhbCN9IYhbDLFC4goLbmHJLY40vvd/P8L0vL4hs//V04CHW75MFh+VywICPKBBd7lhKok/HPr02UdCUYzvfrTAS4kMa86cOTK+SLQU6UHxzjvuC8dcqJ53OK5aemm4SF1tO3bvaoXXawjJ48eX4KBDJobtD0TY53t++1A4/7XfuQKHHX6wvOIojthipfr6OnljoX+KISB0MfArp06d+nwi46e82UuABITsnZus7dlxx31V3Jf6ero6OJSjmNPPOAFzD5wtfxzFj2QoLVp8Js5eeEb4tbAIN7QI4oy2b/yGf//rHaxZ3VdFK5zFDPUDGWmkJbQO3/vpjagw9z0OeblrP/7cFtsjXbo4UT2ZIZCogDB52sEyRkg6hANRx7Rp05CXlx9zcCEBub+TsFtuvVG6Vg75+hB2RW63D1arGWahNQt/AGmcG3KWJAyC7/yNIVy/858PZSjoWEloz4QWrTextwH++qpVjw9YO3RdvZe0Bpn5jo5UrSQgjBT5UdzusceeKbwTpS1VVlYdVlFRcWusCkV429NON2wzI686itf/9d2rcPAhB4adL/WpI/gDuXPnbjz0wGPQNENTIgSD0BnuUO5mOzra729sbAx7WDriW4tPvey4E66199OcrOrYjec7+obITRsgqiijBBIREMZNnA1HgaHtksdoNz+cct+qqqpQVlYes56QgCyOGZb/7I6wm+UpUyfj2u9cjuKSYikLxEr/euudPvYLoeMFkV9ccRRXHaMlznVs27ZNOF54nXP+uslkff3tt1+JS9uZMhSqICsIkICQFdMwtjtxyinLzTNndohfqZh38cRVR2GwKNzM3nXHfeEfyaKiQiz/xS3ocbpQWtLvmELYTjPg/26/G81NLRKy2D3dsOw70khL3OP+859i3wEX+TnXq1aufMAoHEw/efvVP5xmK+21Egu+/5f2XXizJ/ptirE9w9k9+ngFhPKqKSguMfwK+JzdqvajBzs5l3eB+v+Je4WMc3nhQPg0ZMLaIEo++V5BQQGbPHlKzN/iSF8gH7y/AU8/tToM9Jhj5uNbly2RN3r6X0Tq6OiUt3Z+/ct7wvnF914Ix3l5dnyy5XO8/Z/o7s1FAV3X33jiiQdOz+7Zo95lkgAJCJmkS3XHTWDp0mXCnWFMzUTkbYbIO+GXfOMCVFZU4KEHH8W0aVMwY+Y0+WMpzlx3794nnSmpmoo/rVwl+3LZty/B0ccYtyyGcjML4B8rVty3MO5BUEYikCSBpUuXCeOYmNaRkfEYIm1xfvLT/8GHH36M9a++gYMOnoupUyfLSI47d+6RUR3FUcJfVz2Dd9/5UArH/++WZdJAVxgn/vlPqwcN+Qywq1asuDe2k4Qkx0rFRg8BEhBGz1zldE+XLr1xIcDXDjbISK9ywh7hhefX4rrrr8G99/wBu3dHd5Q0YeJ43Prjm7Dy8achbj6I4wWRPvpws/wbLHHOvrVy5b2GZEGJCGSQwFVXLbuHMdw0WBMhLZrII4x1XU4nzjn37D4eFvuXP+nk43HxkvNw928exPeuvzrskEyEehYhn2Mn1mU2uysfeeSRxN0gZpATVT28BEhAGF7e1NogBJYuXSauKBw/GKTQeazI4/F60djQhN/9dvBz4Jt+eJ10ChPytRAZoClWW5zjs5Ur7zuUJowIDAeBK674/iyTSRnU0lWEff7aBWejosJQNLS1tGHDhs145ZX1MbsotAbfve4qzJjRe91xKLubYGW/WrHivvi8IQ0HIGpjRAiQgDAi2KnRaASuueaGRbrOXhmKTqTRohQUPB7s2L4bdXX10kZBvJ48eSLKykqlS9lIN85DWW2H2mYMlz7++H19ozgN1TH6nAikQOCqq274DWPsf4aqIlJIloJCWwd27tiF9vYO1NbWo7y8TNoYzJkzK6wxE/nEscLzz60bQnMgW283m+0zH3nkTiNwA6UxS4AEhDE79dk58KVLlz0G4OqheicMt8S5rLj+GE8S1xnfefvDmBbbfevga1asuH9JPPVSHiKQLgJLliyxFhZO/BRAbN/LwcaETY4Igx7SJgzWByEYbNn8mTRKjOXvI7I85+y/Vq68NzGXkOmCQPVkFQESELJqOqgzN910U153t/4R5zgkHhpCUJgxYyqEQxmrzRr+wRQ3FHq6ndLPwZ49NXEKBrLFWl0PHPXEEw8P7QIyng5SHiKQAIFrrll2pq4j9plBv7qEp9EDD5wtv/cVleXSoZhI9XWNUhgQ333xbyAewcComj29YsW9lyXQZcqawwRIQMjhyR2tQ1u69PoFgOktANH9L2d0YPy0FSvufzOjTVDlRGAQAkuX3vB9gN0//JD4hz09ZSeuXr28r8/y4e8ItZglBEhAyJKJoG70JXDVVcvOYgzCHmHwcHppBMe5vmTlygcGd4yQxvaoKiIQi8DVVy/7Cee4fbgICaNcwLRw5cp7okc9G66OUDtZRYAEhKyaDupMJIGrr77hdM7Z30RspQyT8XLOv7Fy5f0vZLgdqp4IxE1g6dJlIrjbXXEXSD7jB5wHlqxc+TAJB8kzzMmSJCDk5LTmzqCWLl02lzH+KOfsxAyN6mPO2bUrV977cYbqp2qJQNIErr562RLOIeKclyZdySAFGcNTJpNnKfk7yATd0V8nCQijfw7HxAiuvnrZzzjHbWke7J0rVtx3S5rrpOqIQFoJXHPN9yfruiI0CemMgdLOObuVbiukdapyrjISEHJuSnN3QNdcc/0MXVd+CDARByGhsNeRVBhjj+m69ruVKx+IHcYudzHSyEYpgaVLbzoD0JcBOCeFIYiYJw/qOrvziSfu7UyhHio6BgiQgDAGJjnXhnjppd8vstkUEW76HM5xCmMoGmKMbgD/AtgrnGt/7x98Kdf40Hhym8A119x4kK7rFwPsbADHxTFaF2PsDc75C7pe+vQTTyyPjN8cR3HKMlYJkIAwVmc+h8YtfjA5x1zOMYkxHjqr7dQ0Vg+oO5544sGtOTRcGgoRCBO48sor7SZT4eG6bpoF8PGM8SJA0RnTuwFWz7m+fcWKB7YQMiKQDAESEJKhRmWIABEgAkSACOQ4ARIQcnyCaXhEgAgQASJABJIhQAJCMtSoDBEgAkSACBCBHCdAAkKOTzANjwgQASJABIhAMgRIQEiGGpUhAkSACBABIpDjBEhAyPEJpuERASJABIgAEUiGAAkIyVCjMkSACBABIkAEcpwACQg5PsE0PCJABIgAESACyRAgASEZalSGCBABIkAEiECOEyABIccnmIZHBIgAESACRCAZAiQgJEONyhABIkAEiAARyHECJCDk+ATT8IgAESACRIAIJEOABIRkqFEZIkAEiAARIAI5ToAEhByfYBoeESACRIAIEIFkCJCAkAw1KkMEiAARIAJEIMcJkICQ4xNMwyMCRIAIEAEikAwBEhCSoUZliAARIAJEgAjkOAESEHJ8gml4RIAIEAEiQASSIUACQjLUqAwRIAJEgAgQgRwnQAJCjk8wDY8IEAEiQASIQDIESEBIhhqVIQJEgAgQASKQ4wRIQMjxCabhEQEiQASIABFIhgAJCMlQozJEgAgQASJABHKcAAkIOT7BNDwiQASIABEgAskQIAEhGWpUhggQASJABIhAjhMgASHHJ5iGRwSIABEgAkQgGQIkICRDjcoQASJABIgAEchxAiQg5PgE0/CIABEgAkSACCRDgASEZKhRGSJABIgAESACOU6ABIQcn2AaHhEgAkSACBCBZAiQgJAMNSpDBIgAESACRCDHCZCAkOMTTMMjAkSACBABIpAMARIQkqFGZYgAESACRIAI5DgBEhByfIJpeESACBABIkAEkiFAAkIy1KgMESACRIAIEIEcJ0ACQo5PMA2PCBABIkAEiEAyBEhASIYalSECRIAIEAEikOMESEDI8Qmm4REBIkAEiAARSIYACQjJUKMyRIAIEAEiQARynAAJCDk+wTQ8IkAEiAARIALJECABIRlqVIYIEAEiQASIQI4TIAEhxyeYhkcEiAARIAJEIBkCJCAkQ43KEAEiQASIABHIcQIkIOT4BNPwiAARIAJEgAgkQ4AEhGSoURkiQASIABEgAjlOgASEHJ9gGh4RIAJEgAgQgWQIkICQDDUqQwSIABEgAkQgxwmQgJDjE0zDIwJEgAgQASKQDAESEJKhRmWIABEgAkSACOQ4gf8PH4jTfI+1V4IAAAAASUVORK5CYII=;clipPath=inset(6.33% 26% 74.33% 24.67%);points=[[0,0,0,0,0],[0,0.25,0,0,0],[0,0.5,0,0,0],[0,0.75,0,0,0],[0,1,0,0,0],[0.25,0,0,0,0],[0.25,1,0,0,0],[0.45,0.46,0,0,0],[0.5,0,0,0,0],[0.5,1,0,0,0],[0.75,0,0,0,0],[0.75,1,0,0,0],[1,0,0,0,0],[1,0.25,0,0,0],[1,0.5,0,0,0],[1,0.75,0,0,0],[1,1,0,0,0]];" parent="1" vertex="1">
          <mxGeometry x="170" y="400" width="204.12" height="80" as="geometry" />
        </mxCell>
        <mxCell id="FahEBECpcgJHgk5-wvUg-2" value="" style="shape=image;aspect=fixed;image=data:image/png,iVBORw0KGgoAAAANSUhEUgAAAggAAAIICAYAAAAL/BZjAAAAAXNSR0IArs4c6QAAIABJREFUeF7snQd8VFXaxp97p6cnpEAgEAi99yICKqKCWMHexbbq2j7bWtFde1/Lruja1g6oawG7qNRQgoC0hBpIAullkqn3fL9zbmYyk8xkZsKkzns0JJk59X9u5j73nPd9jwRKRIAIEAEiQASIABFoREAiIkSACBABIkAEiAARaEyABAJdE0SACBABIkAEiEATAiQQ6KIgAkSACBABIkAESCDQNUAEiAARIAJEgAgEJkArCIEZUQ4iQASIABEgAhFHgARCxE05DZgIEAEiQASIQGACJBACM6IcRIAIEAEiQAQijgAJhIibchowESACRIAIEIHABEggBGZEOYgAESACRIAIRBwBEggRN+U0YCJABIgAESACgQmQQAjMiHIQASJABIgAEYg4AiQQIm7KacBEgAgQASJABAITIIEQmBHlIAJEgAgQASIQcQRIIETclNOAiQARIAJEgAgEJkACITAjykEEiAARIAJEIOIIkECIuCmnARMBIkAEiAARCEyABEJgRpSDCBABIkAEiEDEESCBEHFTTgMmAkSACBABIhCYAAmEwIwoBxEgAkSACBCBiCNAAiHippwGTASIABEgAkQgMAESCIEZUQ4iQASIABEgAhFHgARCxE05DZgIEAEiQASIQGACJBACM6IcRIAIEAEiQAQijgAJhIibchowESACRIAIEIHABEggBGZEOYgAESACRIAIRBwBEggRN+U0YCJABIgAESACgQmQQAjMiHIQASJABIgAEYg4AiQQIm7KacBEgAgQASJABAITIIEQmBHlIAJEgAgQASIQcQRIIETclNOAiQARIAJEgAgEJkACITAjykEEiAARIAJEIOIIkECIuCmnARMBIkAEiAARCEyABEJgRpSDCBABIkAEiEDEESCBEHFTTgMmAkSACBABIhCYAAmEwIwoBxEgAkSACBCBiCNAAiHippwGTASIABEgAkQgMAESCIEZUQ4iQASIABEgAhFHgARCxE05DZgIEAEiQASIQGACJBACM6IcRIAIEAEiQAQijgAJhIibchowESACRIAIEIHABEggBGZEOYhAuxFIGzkyWqrVREFriIaDRUFWoqGwaMiaKPFdYtFgiIIk8e/RkKQaMMUsybL4DiaZJY1cIylOs+SUzRaDo0axa81leb3NwGJnuw2MGiYCRKDDEyCB0OGniDrYVQmMGzdOd6RC30eRHZlgUh9IUh/GWB9IyAQD/96nlcdeBaAUQAkklILxn6VSJr6jVJbV12RF3ndoz5q8Vu4LVU8EiEAHI0ACoYNNCHWn6xHoNWxKktPunAFIExlTMgGpD8D6SJDSO9NoGZAnMSmXSSxPBnIVScnTOnW5JB460yxSX4lA8ARIIATPinISgaAIpPadlCZrlBmyjOlg0jQGjAyqYCfOJAFbGLCVfweTd0Lj2FWwa8OuTjwk6joRiHgCJBAi/hIgAMdKID1rQgZk6XiF4ThJwhQA4461Tv/lFTCl/gsKUP8z4ARTmCgmib9qSf2Bf/GXxWuy93sMkDRayLIGkOTW6HIZmLQDkvKtRpa/PLRr3ZbWaITqJAJEoHUIkEBoHa5Uaxcn0H3g+NkS5FlgOA7ApGMeLlOgOO1gigOK0wEwxU+VMiS5/gsyUP8zoIEkq3/OTOgEpv7Av/jL4jXF+z0wMMUJRXH6b0+ShYCQZA1kjQ6Qtccy1O8hYXHh7uw3j6USKksEiEDbECCB0DacqZUuQICLAjB5NoDZEtA/1CGJm7/DDsaFAGvkQMBvxBodJFkLWaNtrSf6ULsshAMXEMzpgKLYAS4m6pMkyZA0ekgandrn4NNvjOGVorzsxcEXoZxEgAi0NQESCG1NnNrrVAR6Dpww08mks0IWBfzG6rCqgsAlBiQZGp1B3FAlSeOXA2P8SV+BxBgY30bgT//8Z7E0wL/4FoNncXVrQU3B/0mLrQjxT/3WA99mkCTw/5j47vG6j97ycQmx47Srqx71SeaiQWsIRjQsUUyWK49s2WLuVBcFdZYIRAiB4D9NIgQIDZMIpA+cMphBOQcMZwNsYrBEFKcNzGkTokB9ulafrPlTduPEl/bdX0IMqKKAf4mbtKRx2wswfst22RWI23f9joGrUsagOCyQdcaQBAIkvgXBK+GCg4sR5i1KPDtdLxxcggKyBJkLCr79wMcqbBi4wOCLDDYodosYn5AsfFVEZ1S3KBolieFnjUZ3Wf6uVQXBcqZ8RIAItA0BEghtw5la6QQEMoZOvcFht58C4Jxgu8sUO5w2fjN0iJu6rFOfntXbuJrEjV9xuAUB+M/1BoLcSFC9waqiwNNY0KjXQ6tRjQdlWYZJr4dTUVBTZ4HFZmuoX1HgsFRCF5XgJRBiTEZEG7logCjnWcZmd8DmaHjq9z1eVTi47BlcqxnCSFIYSHJJ4RSGkq7EbRWEWBCCQRI8xPYEFwxMESJBY4hp3FwOIF9SmLt2R7DcKR8RIAKtT4AEQuszphY6MIH0geOSF1x/46Ktq1ae9WfeHpnffINJfJVAsZnFU7eGPx3rTN7FGL9v2sAcNmF8yG+Wqn0BN/jTCe8BnvhNXKfRQq/TIi46BiaTEXB62yfoDHokdktx13+04DDMVhv2HD6sCpBGAoELi8we3RFtMiE1vafIY7fZUFNdhdrqat/D06hbHnV1FtgddtRZre58dTYbFA8R0JiRugjhVFc/xFaIKhq4eGBOBbKW2ynoxWqKw1ItxJLWGCM4uBIDvirKzT4zGPaUhwgQgbYhQAKhbThTKx2MAA9h/JcFd7x13LSp5yanpGj/ds312FtYKJ7Om0t8+dxpVbfMNQYe8dh7+6DBEFF9wle3GfTCC0Cv04kn+miTEUkJCW4hkJCcjPRePZHeuzcSkrshsVs3GE0mpPfO8NmV8tJSvPbYk9hz4CCOlJc3EQhDM/tg6KiRuPDaBTBFRfkdTsHBfFjq6lRhUFuLovxD7rzlpSUoKy6FuUYdKxclPpOs2i04nU4hLvgqhcmgR01dHfgqRVVNJWzWWmGjIHO7BL1JrK7Ya8uFqOLiypUkxv5WkLf+yQ52qVB3iEDEEiCBELFTH7EDlx979b/vTjxuygXdkpPdj7CBBAK/8fOnX560xlixGuBKYguBrygoVnGzVr0RuDDQISbKhLioaCQnJoin6qjYWAwZORw9emWgR+8M9Bs0sEUT8WfOZrz/r9exJW+Pl0DgbQ3onYG/PftUs+KgRY3WF+JiotBLTJSiooRHZ1bTj19+hYRuSTBX14iVCy4g9h3OR1l5sdh+0HCRIOuESGgksrh/58zC3PW/HUv/qCwRIALhIUACITwcqZZOQODOx15+ePqJJ9zdKyOjyWO1f4HAYK+rFEvnGn20WC5vUAYKnMJTwSZiE4iVAo0OsVFRSIiJQbf4eGg0GvQbPAgjJ4wXYoCvDoQj7d21G2888xy27N3nJRDSEpMwdswY3PzAveFopkV13HftDZh+2qk4bd454Ksdm1atwZoVK1BaUoKde3bD6XRAozNB1hmESPASXBK+LdydzV1JKREBItDOBEggtPMEUPOtT+CS6x4ccdwJkz6cMu344f5a8yUQnGJp3AqN1iiWxl1JBBdyWsHsNmFLwI0StToDUuLjkNatG7QaDYaNGY0RE8aL762RmhMIkydNxHV3/19rNBtUnQ/ffBt69emNa++6wyv/T19+LVYXduzdjdraGvcWAxcJOlOi20OTSbiiaHf2e0E1RpmIABFoNQIkEFoNLVXcEQg88a8P3p520omXR0VF+Y0lzJfMH73ldrcNAjc8dNRWiOVwrSneSxgwpxVOLgx4ZEGtEUajCT1TUhBrMiKlR3fMmH0aho4e1WrL+67OdGSB8Ox9D8JgNOCvDz3Q5BLg/X7npZexa18uystLodHzk6olOKxm6KISXfk3FuZmj+8I1w/1gQhEMgESCJE8+1147Dfe+/RpJ5128nv9svo1mP/7GC831Hv9qWdQWV2DPQUFsFvNwiVP1kWJoEYiMQanvU4EPhKeCFoDjMYotzAYOGI4Zpx2aovtCVoyDR1ZILzxzPM4dOAgHnnlRZ9D48xffvQfyD24H1VVZWLrRhUJNW6RwCR2Z9Hu9c+1hA2VIQJEIDwESCCEhyPV0oEIPLPok0WTpx9/TXR0dLPX98bVa7DkrXdQUlmFgtJSsR/O17nVeAJq4qLAabeI+ECy1uQlDEZNnIBT550TNruCUBB2ZIHw7dLPserHn/D3f73id0irfvgJy5YsxR+7tsNmMauxESRJiDOtGich32C3jdy/f3NFKFwoLxEgAuEjQAIhfCyppnYmkLOvPGHL9m2/jxg5wq+tgauLX3/8CVb9+DMOFZeguKwYir2u3nBOdbsTdgZ81cBpF8Z0Gq0JyQnx6JWail6ZmTjrkov8uiG2BYaOLBC4OPj640/xxJuvN4vi1ceews4d25F3YB+cdiu0xmhx9gOPq8ANPhnwdFFu9j1twZPaIAJEoCkBEgh0VXQJAo+8/PZ5x08/4d3EpMRGEYu8h8ftDT558y3s2roNu/MPobryqNhC8DSS48KA37AkjUaIBpMxCv3Se4ggRhdcs6DVDA9DmYiOLBDKS0rx9L334fp770Jmf/9nWnEPh6fvuU/YflRWlgpvDI0+BorTUh8fQbI4mXP40byNe0JhQ3mJABEIDwESCOHhSLW0I4HXPl7+3uSpUy4L1AW+9/3R62/g6JEj2LlvD+rMlcLQkPvl86SeIWAVT7Hi7ACtAcnxcchIS8XwsWNx1qUXt7rxYaAxuN7vyAKB95F7hcy98HxMPXlms0Ping0/fPW1iOfgtNUIw1DO3lFXLbZ6JEhvF+SuuzpYLpSPCBCB8BEggRA+llRTOxD48Lu1GwYPHTwuUNPCev6fL6Osshp79+2Gw2mHjnsoiDMDILYTuK2BOG2RiwaNFn3S0pAUH4cLru0YqwaeY+zoAuHBG27CmCmTce4Vzes2vqLz3P0PYu/BQygqLYbDUgMNP8tCoxHbO9yAUYE8+Uju2nWB5pjeJwJEILwESCCElyfV1kYEuL3B0bKS3SmpKc16KfDuuIwRj5RX4NDhvWJ/m0fw44lHQXTa6sAPXdLookQgJH4w0sBePdEjPR0L/u+2djFCDISxowuEhTffhp4+YiH4GhePCvnhvxdh+779sFjMcNpqxVYDnxMeZ0Kj0X9TkJs9NxATep8IEIHwEiCBEF6eVFsbEHhz8fcz+w4a+GViYoL/gwbq+7Hk7XeQs2YdDhQV4ejRQ17ui8xph9Ney09VqA//qx5Y1Dc9HZm9M3DTA3/rMFsKjbF2dIHAXR0ry8pw5xP/COqKePull7ElZzN2H8wXAsG9emAzi1gUTJJOL9q9bllQlVEmIkAEwkKABEJYMFIlbUXggitue3v+5ZdcnjVwgN/AR7wvfOl60dPPouDQYeQe2Ieaau+Qvk6HBYqtTtgZ8GA9rqTXajG4d4YI8uPvsKS2Gmtz7XQGgXBo/wE88upLQeHiBovPP/Aw8vIPobLWDKelWgSj4mc2cCGnMcRkF+aumxRUZZSJCBCBsBAggRAWjFRJWxDoN3bOK+mJMTclRBmatQvgxog8Wl9paSl27t0Nu83iEaVPgdOqui9yYeB1tgIgjBJHDR+GO/7+SFsMqcVtdHSBwF0dv/l0CR5f9K+gxyhCMX/9Dbbt3SfOuHDw+Ah6o3A55UJO0uguL9y97r9BV0gZiQAROCYCJBCOCR8VbisCWePmvKQ1RN3C24vTS0gyyJh55lxhJe860pivGvAb02/ffo+yqmrk7tkpPBK09YGP+I3GaTOLmP/c3sDzREbXONISEzFn7mzMv+rKthpai9rpDAIhmFgIjQf/2B13uY+x5h4lTkcttPoYOGy10BnjDxTmZWe2CBgVIgJEIGQCJBBCRkYF2ppAv/Fzntfpo273bNeokZAapYEMhtSePcWxwuXFxSIaX0FJCQoLDwgDN60hVhTjBm8Oay1kbvSmi3YfDNR4LFwgnHjiDFx2841tPcyQ2uvoAoEPhrs6XnjdNeARJ4NNrnHtPJgPm8MBp9UMxpgIVgWxkmC8ozAv+4Vg66N8RIAItJwACYSWs6OSbUAga/zcp7V6412+muIhemGtRoxJjX5osdlQXWuGo67KKyoiP46ZrxyoRwyref2lpNhYDOybiQdf7NjHAHQWgRBMLITGc/HobXeIVQQeAlt4mVirIct68bOs1VmdSkVm8f79RW1w+VETRCCiCZBAiOjp79iDT8sc+WFcauZFje0EeK+5OLBUl3oNwC0EDLFipYAnHhFRsdcKt0bu3hgocRfH4X0zMff88zB1VvNBfgLV1Zrv+xMISbFxGDF0CO4O0nugNfv40E23YsDQwbjspr+E1MxT996PXbl5OFLOz8ZQA1jxlQQ+h9ywlAdT0hhjrQAcAOziO4MDUv3P/Dv/vf49CbAzNW8tAzssQT7MmFIgQ3OYaZQCu+w8XLJjY2FInaTMRCACCJBAiIBJ7oxD7Nl/4hRFYqvttRWITx8Mbf3Jivwp0lZbDWttpdewhGucw1p/0JJ6WXNh4LTboTXGCIv4YFNcVBQyu6dh/tVXYtxxU4It1qb5+FkSP3/3A3YdOChCFDsslWLseq0OQ/tm4uIbrmv3kNCP/9/dSOneHdfedUfQbFwnPe4+dFisCLmSiFXB7JAkDZjT4XUMd9CVN5+RHwFxGGAFgHSYMRyWgL0KpDVHepk2YMUKLjAoEYGIIkACIaKmu3MMtsegieOhYL3oLVNgr6uEPjYVGo0Mh40/OHonvgStOB0engqAw1oNftoPFwd+DQ6awcG3GnqlJKNP/yxMmDYNSSndOgy8jStXi+BPrpuop0DgY3X1na+ADBszut36/fVHn6K8rAyX3XRDUH0oKy7FFx98gOKycuQfLfYqw+/eTksNIDH+P19BCKrOMGVSwKQ1kqSsUWSs19rlnEN71+WGqW6qhgh0WAIkEDrs1ERmx9SVA6z2HD1fNXDUVXodqOR6n9sbcK8ErTHOXcReVyH2rDWGgHGUmoXMYyIkx8cjOSkBcCodY0IkCVaHAwcKi9xP2I0FAu8ot8vomZoKg1YrDqPqDMnJGEoqKt1bC437LAxNLTWQJQ00pob5bqex7ZOYELGbACmnIG/dj3zRqp36Qs0SgVYhQAKhVbBSpS0hkJ414TgmS6t8lWXMCUWE4I11Lwg46ioAWQdtfdhkXs5eW+51AFNL+tHZyvgSCJ1tDMH2V6wMKU5oTQnBFmmrfHsl4Dsw6Tu9w/Td/v0rLG3VMLVDBFqLAAmE1iJL9YZEIDPzBKNVV1vXXCEuEvhetNYQowoBnan+WGC1VKcUB/zpnq+Z8//Fk776s/s1sUHCxEse/6gD5ll5WYVBcbiPSAar/6vmbwk1JX6QxEKC5P6L5z+4VhZ4nnryHnmY+0XX22oZtbaGeutfqK/AVa9aofjN3ZRahpcVQ3X1U81VP1J17KJ+jzziFQbwCJjgQa7adoshpGuZ2zIwIRbYd1ZF+a5870Zvg5lQa6P8RKCdCJBAaCfw1Kw3gR4DJh4A0DsQFx7syGGpEiJB0ujc2dtdHDB+41TAFH5XU8RNm/8Oha86M/Xmz/MIMVAvAtw3aD+jlvhNURI32IY/VM9fGl5likOcgChuyryMS0G4b77ue7BLWai3enHPbhALop9CRdTLAyFC3GrEW1QE6n+gyQzxfWOMagdit/EDnawN4oNzchPinZUgyXxg/FWN+p3/Dg0kPrYGlRRiD1qUvRiS9J3C2CdHcrO/blENVIgItBMBEgjtBJ6abSDQo/+EZZCk2cEw4UKAu7txtzddVKJ6w2jNbQV+U2cObivJzeTUm7z4Uupv9ErDk79rAPwIaUmCLI6SlgBZrn/idv25yeo9Svxaf6SE+8bVcKsLhoe4dXt4MbTEIDPYdvzmqxcRLlnievIXAoS5xuNaIahftajXIa48YrmgflGiwWLCtYSgvhKdmA6t3ojKI3kA4yGy6sWWW6jUr7TUizRVlNXPjzqBInE3SeHVImmEO6yIqNkGooEBXzFgEQmFY77iqII2IkACoY1AUzO+CaQPmPg0A3wGQvIuwcBdHl2igD8xOyzVIousNYrTGI8puYUAXwVwipsuFwYuAz/1yZPfzPnNhf/ZyIAsQebf6wUBv/G0xY2m8TjbXSAcE/jgC0fFp0GrN6CKCwQ5cEwLr5rFoo1TFXN8VYfPsRAPXPwpqmjQ8MOhVMGgusW2zscjCYXg55xyti+B1vkLaN8xUeudhED6gIkXM+CDgN1VFNiFn7+6YuBKx7JywAUG96fn7pGeQkA87Uv8RsGXoxu+t9K9IuDQg8nQWCD89YYLmy1WXFKOj5d8F0zVHSrPMQmEZkeirggxJxeGdvBrg28Rga8u8GtAq4PMVxnCnEgohBkoVRd2AiQQwo6UKgyGQI8Bk4cAyu8Amg0woCgOKBYztFHxIYsDWdbw0LzQaHTiXAZ+0+evcRHAXeV44vWrKwbqqoHTaYfTYRenPXYW98DGAmHtiv8iKdGblye8U+ZcidzcPe6XtIY4t/1CMHPXXnl4sCw+L9wgM+QVhBA7LVaQ6sWC4rBD4teMrIOk5ddRg+1LiNX6yc4W6ayGew8eXKmGjqREBDoIARIIHWQiIq0bPQZM/BXA9ObG7boZuA5ccuV11FZC0unF2QqeSdZwl8coaHU6EVbZFW65JWyFqaE4w6EOdkutEA4dNbVEIOTtzXcPR6M1dgqBIASdwwrmsLWpF4MqFmxQHFxMcrHAV5b4NaYKzzCljRLYvQW563k8BUpEoEMQIIHQIaYhsjqRPnDSq4yxZo9LZE7+gWyDxsAjITYkHlKYG5dxLwZX0upN0BmjoBOBkVrnkrZbzUIoOGzNemK2y0Q2FgiD+vcJ2I9dedxppPOl9hAInpTE1hRfYVJsYsWJC1FJZwjbFoTEcG9BXvZTnW9mqMddkUDrfJp2RVI0prAQ6D5gwlUSpLeaq8y/OOBGiUxETeS28TpjtPjS1J/TEJYOBqjEVlcNCz8HQrgvdowUKUaKnHZ7CwS+RcXda4Whar3Bo1hR0OrVeBV8tUG4tXL3UdWDgq8+8S2soJOExQpj9x7JXb836DKUkQi0AgESCK0Alar0TSC1/7gsjaT5BUCGP0Z+xYHVzO8O0EYnQm+IUYWBNtx7wcHNHF/ZsJgrO8xqAgmE4OYt1FxceGp0fKtKJ641bs/C/VZakoR9i8Pqtm8Rp4w6mz3/aZckKwsKdm3wGVm0JX2gMkQgVAIkEEIlRvlbTKDHgInvA7jEXwX8WF8uEDR6720FfiojtzA3JfaEPiombMu5LR5IfUFrTQWs/CyIdk4kEMIzAVwAaPXchkUVBsJttRUT365y2CxCaPoRCyWMKecV5W1Y0YrdoKqJgF8CJBDo4mgVAtnZ2d2ZVtvLVfl9Dz97zvadeff5FQfc+ExxQKOP9sqi2HkIYQOiEntAow3R971VRuZdKV9JsDU6eroNmvVqggTCsRHntivcuFW1YWmfZOdiwVIDu7WpjQtjyokkEtpnXiK9VRIIkX4FhHn8W7duTbPaHP+GhLNdVecfLsL9jz6H8grfT9tiX9mHOOD7toboOLhC7Ia5q2GrzlJTDm6b0F6JBELLyPNtKr0pBhqtoWUVtEIpvvVgt5hh40dbeyQSCa0Am6oMSIAEQkBElCEUAhs3bf6Rgc30LPPUi4uwcs1Gn9UIccCc0Oi8n974h7fBFCf2fTtDMlccAf9wb49EAiE06lqDCXpjrAjb3FGTw26B1VzpfU05tJmF+1Z3TveTjgqa+tUsARIIdIGEjUB2Ts4EmSHbs8JvvvsF/37rY59t3KnVYMmwE32+V1ddCv7VWRLfQ66rKhZGaG2dSCAET9wQHQ9Do6BbwZdu45yMwVpbAWute3WqujA3O66Ne0HNRTABEggRPPnhHvqmTX9cpMCZnpCQkJacnDyxtKQ8+sQzLh5qt9mbbO5erNiRHBWHLwdN9dkNvsRaU1YQ7i7y4xOg4V/qUQrCW9HJAIfr3J9jaJEbm9VWFh9DDS0rSgIhMDe+EmWMTgCPmdHZkt1ai7qqErXbTHqjMG/ddZ1tDNTfzkmABELnnLcO3WvG2IcALnr82Vc3vbLovbGNOzvYYcUTeh0+iktDdp9RPsfisNahqrQh2l9LB6yRGKL1EoywwaCVodf5j3xntdlQa7XD4tSgDsYWHWbcHvYIJBCavzq4OIiKSxbuip0xjchwIDFOg5XrC1BhdvJYYP9XuDv7+c44Fupz5yJAAqFzzVeH7y1j7GQAPxQUHdk5fvqZgxt3WLFb8bBOg7GyjBe6D8LBFN9R/45VIETpgFitAzGGloXC5YFuquqsqHYaYA0hxg1fkqipPCqiQLZVIoHgn7RWp0dUQvewTAX/sDRqAa3csArFV6O0kroK5fqyOIC6ZkMchNadGcMkbC0fgNSoGlQXbMKOAzYowBl0bHRoHCl36ARIIITOjEo0Q4AxJs5YuOzaO/b+9Ouqfp5ZuTjgfo+vGtQnufsHTkOtwfeSL99eaGzJHQx4gwZI0DkQwz/JPZLBoMfgIVno06cn0ronIy4+Fga9HhaLBeXl1SgqPIp9+w5h5468Js1U1tpQYdfBwYL7c7HVVcFSUxFMd8OShwSCb4x8xSAmqccxMebbUCYtEK0D0hKjMGhQX/TJ7InU1GTEx8dAr9fDZrOjqqoaRUXF2L/vMLb/mQuLzQ6zHaixHbtYcAkEPpBLh2fj8xVHse2w8aui3Owzj2lwVJgIBCAQ3CceYSQCQRBgjF0B4J31OVs2n3XBtaO9xIFwZXRinsGEKySGckh4dMQsn7XWVBTBVht6AKJ4rQ3JMd6xEo6fNh5Tj5+AseOGBTECwGq1YcP6LVj523ps2vSnu4xTUVBaC1Q7AgfP4eOsKSsURwi3RSKB0JSyJElP1qphAAAgAElEQVSITuzR4gO7+MpAogmI0QKzZh2H46aOxYiRTRbEfE4vX33KXrcZv61Yhw0btgqhUG2D+N6S5CkQFoxeh/MGb8C8V/pg62EjrSK0BCiVCZoACYSgUVHGQAQYY/zxO2vqyfNq9h085A6HqEZItIsgSE9KCgZJwDatEf8Z0vQwx5aKgxS9BXFRDW5rJ540BWedMws9eqQG6rbf93N378Pnn32HjRu2ufOU1VhQ7gjsHteWtggkEJpOoSm2mwjH3ZIUp1fFwdzTZ+Css2YhqVtCS6oRZfg1tGTxcmzO2S62HfiKQlWIu0+NBQIXCYfK9Jjw9/60itDimaGCwRAggRAMJcoTkABjjEdJfOzVRW+VLXz0ySR/Bf4TFYs0WcaPcWn4ppGBYkvEgSQBaXorok1qsJuUlCRcfc35GDtueMA+B5vh559W481Fn8DpVI0RKmstKLE1LxIcVjNqyw4H28Qx5eMHAnG/eZ3w6+/af9LcnZSv0DR3QJfWFIuohNC3Fvj2VJIJGNQvHVcvOA9Dhw04pnnxLPzt8t/w9n8+FS/x1YTiWicYNEHV70sg8ILPfBWDZ75Lvq94/7YngqqIMhGBEAl07U+TEGFQ9pYRYIxxK7C91TU1dQOGTUhy3Uh91bY0JgEGMLyf2g8b0/q7s/A9+9qqoyF3IM1gQYxJvVmPGDkIf731SsTHx4ZcT6AC+/bm458vvYuCw0Uia4XZglK7f5HAAJiP7g10IE+gZoN6nwRCAyZ+fkJ0cgbkEKMjcjuD1CiGqceNxV9vvRw6Xfg9HnZsz8NLL7yN8vJK2BSgoMIKpxw4iiP3YjjsHCoGOa33Xjx10tfi56o6Gac8lZa/bkNu76AuFMpEBEIkQAIhRGCUvSkBxtgrAG76v789XPvefz/yG9A+Li0Lr9ZVIFFx4Lneo3EoXl3+50Z9NeXqjTeUlKy3IL5+W2H8hJG4657WdQ/nH+xPPv4v7N93SHSzpKoWlYr/+P11lUdgb4NzGkggNFw1hthkGGL8LmD5vLy4x0tqFHDSiZNw482XhXIJhpz30KEiPPX4v3D0qBoEbN/RKij65mMfpSc5YTEOEfnHpB3Gq7OXutvlqwhPr0gdXLJry66QO0MFiEAAAiQQ6BI5JgKMMR7nQMRRTuk10G9dMd0yxAf3TdXFmGgz455hM2GTNS0WB7GSGanx6h4zXwp++JFbgx4Hv6EWH62A3W4H925ITgl+j/no0TI88vCLKCkuE+0V1iio9WO4aLdUo668MOh+tTQjCQSVHD+JMaqb+3ywoHDylYP0GGDCxFG48+5rgyrDM9msNpSVVoEbrxqNenRLDv4a2rcvHwsffEl40PC0+8BhaOJ7Ntv2oP7pKK6NwYCkYrx75kfuvPmlWkx4MP3TIwe3XxB05ykjEQiSAAmEIEFFYrYNm3KOSJB+BnO+O27cuG99MWCM8ce1By649Jrrfl7xm0+rMFN8mtsXfZalCpeay3D7iFOEG2NLoiXKtgr0TVU/kOMTYvHEk3ejW3Jis1NUUlqJnA1/Ytu2PBw8UIhzzp2NtO4p2L49F6tXrkO/rAwMGz4AEyeNhNHY/PIyd2N75OGXRHs2ux2HzDqfQZW4F0PN0X1iz7w1EwkEla4psQd0xtC2l7g4yOqdhsefuhumejsWf3N16PBRbMz+E9u356GosASXXDZPbGdt2rhFGCH2y+qFkaMGYPKUUeBeFM2ltWtz8MKz/xFZzOYa7D18BFGpWX6LTB9hxLZSdSdh9ZX/9Mo3/8WUqqU/7otvzWuM6o5MAiQQInPegxr1xk05fzJA3fwE3h0/dsyVvgqmZg5fqNitD/t6j68a8NUDV0pT7LjIUo23MsegpvgQFBbazdNRV41Ukx2JCeoy8m13XIUpx41r/sN4zZ9ITEzC558tR2HBEZF33vzT3QJhxc+rxGtDhg4QLpGWulpMmKQu6fpLny/9Dh9/9JV4u9TM4yT4Poq6rqIQ9lY+6ZEEAiDr9IhJzgzqunZlSjAA3UzAAw/d3KwLo83mwPp1O5CckoyPP/wCZWVqjAtPgbB2zSbx2pixIzBqNP+TcWDMWP8rajzv2/9ZjG+X87AhQH7+AVRYnIhK8Qod4h6Ppx3C0vlvo0dMw+mhz3wVi+d+TBlxZM+WBnebkEhQZiLgmwAJBLoy/BJoJBC4gfyV48eMebdxgdSMISWK4ujW+HWdMQbc7qBxOs9Wi6WG2JDFgTj5sTIfA7NU48bJU0bj9v+7xm//Kyqq8eH7X2PmySeIPHz/98sv1IWQxgJBo5Fx/V8ud9e1dk02rrjqrGavjrvvfAIH9h8W8Q72V0lQfARSstVWwlKpipLWSiQQAENsNxhimlyCfpFzjwW+enDKKcfj2usv9JuvsLAYiz/5HqeedpLIsydvP777doX4ubFAiI6OwhVXne+ua3POH7jgotP81l1XZ8HNf3kINTW1sNls2Lp1E3TR3RDd3bf3hGub4cmTvsb03nvd9a7ZE4Wzn0974eiBrXe01jVG9UYmARIIkTnvQY26iUAAasaPHeO1hpvaZ/idisP6TOMKuRtaXGo/yNqmT9bRTIFZChxwqHGdNYW70Cs1Cd26pYi3HnvyLvTv7ztUc3W1Ga/+8yPwD/jhIwZh+owposzPP67Ezp15mH/eXKSmJWPHjlz88tMqTJo8FuPGjxR5vvrfd8jPL8SwYVm47i8NH/iN+7Py9/V4+SVVLxVX21DlbDpWfgS0uaR1T+glgQBEp2RC4+Na83ehp5iAOAPw8muPIDXVt7A4UlSK1175CFxojp8wChMnjRHVLfvmJ+zfl4/LrpiP2NgYscXAVxBOOHEKhg4bJPJ8+slXKCkuxbjxQ3H5lf6FpudK1P79e1BaWgxdVDyiezRdwZoySMGu6sE4f8hm3DbpN6+hpd6UuaH4wLYJjce7cdNmdR/DIzkZ+33iuDHvBPUhQJkimgAJhIie/uYH70MgQKeR00aNGuX2R0zpNfgIY07vaESShLjUviHvBzfXG0t5PqzlBRgzZgK4Kxtfxr3vgRv9Fvl86S9Y8cta9/vz5s9BWvdUWC1WsUScnp6m2g1IQMGhIqT3VOP179q5Bz/9+Lu73NnnnooTT2py3pT7ff4EWFxcBovVhsN1vrcZqo/saVU7hEgXCNzugNsfBJv46kGvWOD4aRPw11t58M+miTP96P1vsW7dZvebl1x6LuIT4lBTY4bZXIe0tGTxHjc3OJxfhPRe6jX0x+Y/sWrlene5Cy6ai+OmjvDZTlVVDa69+l7xXlVVJXJzd4if/a0kjBqcAoeiBd9m8EwTH+pVt37TziYuNRtyct4HwyWeeRWGq0ggBHu1RHY+EgiRPf/Njt6XQGBOecSECaPEXmdq5vC/KHbra40riU7qCWOs+uEZjuSorURN4Q4kJCQiK0t9Qrvhxktx4kmTfVa/PnsH4uISkJ9/GOuz/xDnLEycOAbjJzacHMkvfJdA8LQw/HbZCuzdux99+/XGhImjkZycBKdixdChvve3P/jvF/jyfz+KfhyodMLBmga/4QGTeOCk1kqRLhCM8WnQRwVvo+daPbj73hswbrzvgFprVv+JpKQk7N17QFxDpSVlmD7jOAwfodoV8HDKLjtE/p3/zpOiKPhsyXIcPVqMAQP7YdYparRQrcaJrAG+PSyeffoN0QZPmzdvgNOpnvRkTOgBYzfvFbIB3R2wGPrjtdlLhUeDK83/ZzqW2tJ1WLHC65goEgit9VcXGfWSQIiMeQ56lI8++ug0RVEW8JDJM0+eNdoUFeUOmcwrWfX776vLy8tq+M/5h4tmMuZ9Rywqt2BPYRhvhtwToGAHHJZq9OqVibQ09Snt9TceR0JiU/9xfrPctjUfen2DJwJfDu7bNwPCRKD+g9wNpNFr3PWxsOAoevdpcDurrKzCxEmqMGmctm3bjb8vVK3KC8uqUCs37ZO1ugTWGtUtsjVSpAiEqKRe4GOtqyhouCMDiE7u02xkRU/mMpzom6CBVqvBfz98AbLcdKurpqYOhw95H7bFr6HMTH6DlxqCVbpUQqNrqLa2DqWl5cjISHc3XVZajilTXfa+3lfBjz+swhuvq66Le/bsQkVFuTsDN1rUx3kv0PGthqw0hgeO/8Gdb8FbvbBsiym1KC+nQTUAIIHQGn9xkVMnCYTImeuAI124cCHfhFcfZQCccOJJiIn1dhv79ZdfUF3t+yCl0sparNh4ADZHaJ4JzXWsrvQgrPyGAGDgwKGIjY1Des80vPDSgz6L5WzagXfe+gIjRg4RKwBGY0OkOs+nPhGRmIuF+u/8PX6vcD0J8sp5YKT12ZuRl7sP99x3DdLTVdsHz2S3OXDpxbeJl0rLK1AhNfWHd1jMqC1vvbDLkSMQMqA1mFBVlOueKEnWINaHIay/aypa40D3WC0GD87CI/+43We233/bhCWffoex40aK+AgajboqpK4U+FKZ/q/g4uJSZK/LwYH9h/DQwr/4jJeQn1+AO29/XFRSWHgIBQVqIC7RpiwLewRtI/dNLhIeP3WN25vhhR/S8OTnhsuOHtz+vmdvSCA09+lC7wUiQAIhEKEIen/hwoULAbjdFUMRCPwm9cvGAziiLi6EJdlry2EubAgQN2LEWHG87oSJI3Hn3b6jJn784TKsWa1qHL1Bj5knH4++fT0j0TZ8wLv0Ac/LIEHyWF7I2fQn1qxu2Ec++9yZOPGkiT7Hddstj4pVh6rqShy1x4DftDyT026BueRgWJj4qiSSBYJGH4XoEIIjpUUxxOglzJw1Fdddf5HPOXnj9SXYtjVXvBcTE4WTZ01Dek9vGwe3tvTcahBXkLpExa+y1as2ICenwfPwwotnY8pxXoecutu/+IJb4HQqKC0twf793keOc3EQ3WNwk+vqxAFlGN6jDPHRRvxZmIhD5vSl/ftmrPYc1PHTp1+SkJDoZURDNgit9qfY5SomgdDlprTlA3rkkUf+xhhTH2UAHDf1eCR187bw9reCkLOrCDsPlLS88UYleXAhc8F2r737sWMniQA0p82egasWnOezreeefgf5+Q1hm088aSoGD+Gult6XOq+H31jdn+burQdVKqxevQGbcxqOe544aQQuvvR0n23+/ZF/YtvW3airq8XBciu0Ud5BmxSHDTXF+8PGpnFFkSQQNDo9qo/uda8g6GO6wRgbnHsjd5MdkKyuKJ1/4VzMm+/bBfGRh15DeXnDKtmcuTPRp0+vhhWn+gnwXEvgwoBfN57p559WCqNXV5o+YxzOne/7iPNbb16IoqISVFdXYvdu1VDRMxni02BK7uv9mk6Dkyf2Q1y0//Mcxowbh549vW0fSCC02p9il6uYBEKXm9KWD+gf//hHH6fTuZExJj5x+2X1x9Bhw7wq9CUQ9hVUYO22hmXRlvegoaS5KBd2sxqvnidZ1ggPBp7OnXcqLrjoDJ/NcPsDnU7bwi74Xz6urKjCxMm+7RBcRmZ2uxW7DhQ0+SBnTod6U2ulFCkCgeNrfJqjKaE7dKbmzzJwYXfWlmFguhpg66qr5+O0OWp8DM/kdDLk5QZ3LojPq8XTYrFR3c3ZIdz/t2eRl7sftbVm7Nix1eeVwgUCFwquNDwrFSOymj/OnARCK/3RRUi1JBAiZKKDHebChQt5KDceMai70WjUn3zKqdwPzG3J9fuvv/9v1dp1Z7oeyR1Ohr1HHbA6lGCbCJivsTjgBXggo9Gj1SX+efNn4/wLfT/NNycQ3FsKjLlD4fLXfD39Ne5kRUUlJk0e7LPvngLhz527EZvh7dLGAylVF3kvGweEEEKGSBYI0d0yoNGbgqJlrziMwZmq8SlfgeIrUY0TtynZu9fLzs8rC//A5Fd6wwenKhOCuYZKS8tw3FRvwe2q/OEHXsDOnXuaFQh864pvNbjsESYMTUf/Xs0fTEUCIahLgzL5IUACgS6NZglsyMm5AgzuoCoPPPLskg0bsue7CkUnpsMY19R4ryVYnVYzLOUFXisHrnr4lgDfYuBp7pkzcdnl5/hs4v33loEHSXKlkaOGus9p4PETPK0QxYe651aD+OBX95HzDxQgL2+fu55eGd1xxpnTfLbp2mKwWOqwfed2xGc2Df1cut9t+9kSNFTGD4HEjGGQNcGtGFmO7sawgaqbor8tBkVheOvN/4mDvFxpytTxwthV/bD0/shUd6Z8u8bwqIsHDzQYp/bt1wunzVYDdjVOd97xOPIPFqCmphq7djVsbTXOpzXFIyZdDaLUKzUO00Y3f9IzCQT60zkWAiQQjoVehJR96aWXrktN6/56jx49sPCx57Dtz+1i5P5CKYeKhQsDW9VRWKuaD0k8atQE4Z42bfoE3HyL7wA3by5aiq1bdru7cNzx4zFm9HD/3o38s52vj3h8xnOB8PNPq7BrR8NT/6xTj8PcM5o+cfKGbr/17yg4fMT94Z7Qb1KDk3x9T0oP/AGn3RYqGsofgEBKv3HC0j+YVLV/I0aPGitE4ck8xPJ1vkMsv/Dce9i/r+HGzo0UBw7MaqwNAjTJ8OX/vseh/IbTPM848wScfIpvgbDgyrtFyOWKijLs2dNw/fpqxJTcB4Z41WhyUJ9u6N+rG6L5sZSM1Wo0GqtnmTHjxkX37NnLK4IX2SAEc7VQHk6ABAJdBwEJPPTQQ+fJsvxpeWUVPvhUPaCIJx5KWWcK7fQ8V1luMOaorYC9rgr2mgZbg+Y6M2TICERFRWPgwL74++P/5zPrLz9n44vPfgKPi8/dHIcOa3xgjrok7PZydK8g1Ee78fiL2LhhK9Zn54jgN9ffeAGGDm16kI7T6cTFF6hHTZeVlWDfvjzE9R4NWWf06l/Zoe3g7o6UwksgsefgoK5BW3Uxao/uwbBho2A0mpo9IvzL//2Cn35YK6ImTpw0GgMGNMy7XH+9uPSkpyeM2222fojcK4G7yfJQzDzdctulyOrfcHCZi0R5WSVuuO5+8euRI4U4dKj50NyyVoeY9GHua0wPdbVDqSl7My466hdPwmefM/vGmSfPmOr5GgmE8F6DXbk2EghdeXbDNDaXQPjpt2zs2KW6f/FIiTxiYrCJCwKntVZ4JTjM5XDaQr9ZZmZmiXMYtFot3v/oBZ9H6paVVuKrL3/H5CkNy/wOh0OU8Yp+5yuSotenfcPI1q7ZiCuumutzqLt37cWD9z8v3jt8+CCKigoQkz4U2kaGcxUFu8EPbqIUXgKxKX1gim/eUI+3aC7cAXttJfr2HYCkpG7iaOd3/vucz84cOFCIVb//gXHjGyJvWq02GAz8QTxQHATfF1Fz19CG9VvwzFOLRF9c5zEEosSDJ7lOfkxCld8nvbPOmbNq5kwSCIF40vu+CZBAoCsjIAGXQPh+RTZq62rBoIFDNngty9v40zG/A4tHK6V+r5//roA5reK7Z5o/72yLTqezeL72+qK3GkLI+ehV97Tuml490sWma3NH9K5auQ3JyarrG3dV5E9x3N2x/4CGcMnuj3keGM/VbQAbN2wRBzjxADmDBqmnRlaUl2PSFN9R8JYuWY5PP/5G5Mvbu6+gqqbaYohLiTcm9HD73jnslvKqw7neofl4AYm37JHUKDwtTy2tr3E5Vw+OtT8tH0nQJTUGoy42JTNR1uqi/RWyVBaVWSuPCHWWmpIc16tHTzE3Dz9yG4YOU+e4cVq96k9066YaAPIwyBvWb8bcM2d5REdsEAoifoZYWaiPf7B6Aw4cOCwOd+rXT7UR4O6L4yf4NnL1PPZ5+64d+2vr6rhxTL15Q/01wX/3mI+Y2Bj5kiuuTpdkvU4HEV3Z+dO3Pz5htXovU82aNX30mWfPaThQgv91MqmIzmII+hKL6IzH9oEU0egiZ/AugRDOEY8bP35Fj/Sebj8zScJr48aMuam5NmbPPjtLkrTCMOCUU6dhwbUX+MxeUlKFkuIaLOYn6pWoIY5nnDAZw4a7PqA9wiI1eiBctTIbf2xWbSx4qNwTTpqK8RN830R4nnvvehr79okgSGXLli0RN57Bk+efwGRwl4tbJLBPHPG19+UtX+61NxxOlpFeV/9p5w2VnexTCWjkIiAVSHDev3P1Z24j2zlzLhgIOEX0rTmnn4ArrnLb23phPHigEHV1wAf/XYrKymrx3qmzT0BWVtMzORp7Nv70I49/oNqv8CBdU6aO8+sBw/PceMODKC0R2njXsmVLfKuIRpO8YcOGeMgaL9FZXVlhOvHEE71Ed6RfGzT+YyNAAuHY+EVE6YULF/L19cDruCHQmDhpytmpaanuYAaM4dUJ48bcHKiKOXPmr+D3e77c+/qbT4ilYl9pc85OvP2fz8Vb3bun4tz5c8TPW/7Yju1/7sbpc09GbFwMCguP4Ifvf8OME6aIYDg2mx3vv7cUFosFWq2MW++4Ar17q+c/NE7bt+fikYdecr38+rJlS24I1H96v3UIDJp6Zqzk1I+DjHFMYmYwqVDWKNk7fv+swUqwvuk5c+av4nHAeJTERf95UrjQ+kqrVubg04+/FW9lZmaAB0ziKXvdJuzfdwhnnn2q8G7Yv/8gVvy8GrNPn4m0tBRUV1fj/fc+E4G4YmOjcNsdlyM5xTt4lqu9tWs244Xn3hS/MsYeW7586QPBEPIlELolJpj69u1LAiEYgJQnKAIkEILCRJnCTWDTpk3pCqRsAMKQQZGl4RNHj/bv31XfgdNOm3eFLEviiZDHQuAxEfyldWu24MMPvsEZfGm4d09YLFbxRMj3k+fNPx1p3VPAb/Irfl6F1LRkzD9PtTPYumUn1qzOxnU3XIBBg32f4sjzeZ7Cx5gyZfnyzxrOlw43MKovbARmz553rSRJYtP/0svPxhlnnuy37l9+XocvPvsZN958pchTUVGFD9//TPx8yWXzEB8fK4wQ167ZJK4xfq3xxLcldu7YhWtvOB99+vg/inrhgy9iR723DGOa/suXf9IQejHAiDfm5DzPGOoPlJCeGj92tHpuNCUiECYCJBDCBJKqCZ3A2rV/9NIZlBs0kvTe6NGjm/ft8qh+zpz5XEgM5U9+L/zzYaSl+Q+1u3PnAdRU2cRqwe+/ZWPrFnX7oLFA4K9Nmz5JHPJUXl6B3r2Tkd7Tf3yHDeu34pmnXq/vlfTFsmWLfQdmCB0LlWgDAnPmzOc34n5RUSa8+M+HEJ/g3xtn65Y94GERuGfMD9//itzdanyMxgKBv8aPd+bHPPOoiYMGZyCpm/96f12xDq+98t/60bL/LFu29JpQh75p8+bLFMac48eM+TDUspSfCAQiQAIhECF6v8MRmDNn3kWAJD4Qx40fgbvvvT5gH9dn78CP368U8e79CYRBg/vhuKljMHpMY9dI7+r5NsQ9dz6BgoKjrg/3CcuWLd0QsBOUocMQOP308xYwxsTafnNxNVwdttRZsXnzHiz/5mdUVKg2Cb4EwugxQzF+wnCMGMnP//CfuGvjXXc+juoq4c3j1GikAV99tbghMleHIUUdiWQCJBAiefY78dhnz57/kSRBRLrhh+7wyHjBpMLCEuQfLIQEHRwOJ7Q6DTQahszMdCR1iw+mCrz80jtY+btbD/xj2bIlvs+eDqo2ytReBObMmc+DeogL59LLz8EZZ6o2BoHSvr2HcPjwUWi1RmFnoNNqoNMDmX17ii2HYNITj72GzTnqahbA7li2bOkLwZSjPESgLQmQQGhL2tRW2Aiceup5SRoN4+cxiyg2V149H7N9HL4TtgbrK3rv3aX45itXLBrpx2XLFvs+ni/cDVN9YSdw2mkXZsqyg19Dybzym/56GabPUMN5t2b692sf4Jef17iaWLxs2ZLzW7M9qpsItJQACYSWkqNy7U5g9uxzp0qSvNLVEX4+Az+nobXSu28vwbJvuBOFSLlarfaEL7/8uKC12qN6W5/AaafNmyPLkhrIAsB1N1yMmScf12oNv/bqf/HrL+vq65fWR0djxuLFi+tarUGqmAgcAwESCMcAj4q2P4E5c+bzJWJ3/OdTT5uOq68J7wMZP/zpjdc/wrq17ngzhwBpzrJli32fy9v+WKgHIRA4/fR5lzImuawFcc65p+LCi30fJx5CtV5Zi4vLsOhfH2LLlp0ucbDN4dDM+f77j/NbWieVIwKtTYAEQmsTpvpbncDpp887lTHpEwDCiKBPn57iA37suOHH3Da3Nfjg/S9QVqrGpJEk/Kko0vnLly92bSAfcxtUQfsTmDNn3vmAuIZEGjp0AC669Exx7sexpp9+WCWuIbNZXShgDGs0Gum8r79e3HAi1LE2QuWJQCsQIIHQClCpyrYncMYZ84YpivQGY3Aflzdm7DBxat/48SNC7hD3Y/922a/Yts3L+/Izvd6x4IsvvmgaNjnkFqhARyNQv2XFPRvc0QxnnDAJs06ZhgED/cfD8DcOLi6/Xd7gFlkvDt6NiZEWLF682NnRxk/9IQKNCZBAoGuiSxGYPXvePyRJUo/Gq0/duiVg9JhhGDI0C5mZvdC9Rwp0Op37fX5a45GiUuzfn4/tf+Zi08atKCnxjmIrSbj/m2+WvNylYNFgmhCYMuU8U2Ii46dveUXF7Ns3A6PHDsXgwVno3Zt7vCR4leWnehYWFmPfXvUa4ieBukI012csAnDfsmVL3ibsRKCzECCB0FlmivoZNIEzzpg32OnEnYC0wF8hHiCHh2u22+2oqan1k03iJ1C9qtHonvnqq4/UAAqUIoLAnDnnTgfku1xukI0HrdFoEB1tAv9us9nc2weN8zGGUknCK9HR0lNkjBgRl06XGiQJhC41nTQYTwKzZp2ZrtXqL5Ik6UyATQ+GDmOwy7L0g6IoX2i1tg+++uorf+ohmOooTycncOqp546VZdl1DTUfQathrGZJwveMSZ8vW7b4fdfJ4p0cBXU/AgmQQIjASY/EIZ9wwnkxMTFsPGMYyhj6SBKSFQVRkoQaxqQjksT2M6bZNmnSkOyFCxd6n00dicBozE0InH76uf0kSTOWMWUQYxHz7hwAACAASURBVFI6Y4iXJMiMsWpZlo4whn0A20pRNeni6SoESCB0lZmkcRABIkAEiAARCCMBEghhhElVEQEiQASIABHoKgRIIHSVmaRxEAEiQASIABEIIwESCGGESVURASJABIgAEegqBEggdJWZpHEQASJABIgAEQgjARIIYYRJVREBIkAEiAAR6CoESCB0lZmkcRABIkAEiAARCCMBEghhhElVEQEiQASIABHoKgRIIHSVmaRxEAEiQASIABEIIwESCGGESVURASJABIgAEegqBEggdJWZpHEQASJABIgAEQgjARIIYYRJVREBIkAEiAAR6CoESCB0lZmkcRABIkAEiAARCCMBEghhhElVEQEiQASIABHoKgRIIHSVmaRxEAEiQASIABEIIwESCGGESVURASJABIgAEegqBEggdJWZpHEQASJABIgAEQgjARIIYYRJVREBIkAEiAAR6CoESCB0lZmkcRABIkAEiAARCCMBEghhhElVEYH2ILDn5H7xWoummyw5kp2SlKyVWDdFkZIZkCBB0jIwrQRomcS/S1oJTMsgacG/GNMxQCtJ0AINXyI/Y74/HyRps8Lk/2b+nrepPcZLbRIBItA2BEggtA1naoUIhESgcFr/lDo4e2gldGeQu8sSuiuM9ZAkdIfCukOSkgF0A8C/60KqPEyZJWAzmPShAumbPr/nbQ9TtVQNESACHYQACYQOMhHUjcgikH/SwJ4Om22AVpL6K5AGSBL6A+gNoAeA7gA0nYuI9J3ElCUZv+97s3P1m3pLBIiAPwIkEOjaIAKtRKDolJHRdbVVEzxFgAT0Z8AAAKZWarZdq91m12z6yW746bkN2+5u145Q40SACBwzARIIx4yQKiACwIZx43TdYyrHO8EmQMF4ScJ4gA3pKGzsDLBAgg0S7EyCBAYTGIwSgz5MnwJ5Dg3uqIlBDZNw/1mnHZ7cM/WFIX+57bmOwoD6QQSIQGgEwvTREFqjlJsIdHYCHz/97L3LP353kiRJAx6NqnFAwqjWHpMDQJkio1yRUM4kVDEZlYqEKkioUmRxY65mwB6nRogALgrskKAE6Bj/EDCAwSABfbVOJEkM3WQFKbKCNElBukZBhqxALzG/NX1n0+Mpc5R4/4aTjsdJdz4qfjas/3ln1OI3buj70fJfW5sP1U8EiEB4CZBACC9Pqq2LEti+ZMkAqa7qL46YpNOUHr3711VW6C69806ca7ThZlNtWEZtYRIOOGUcVDQoUGQcFV8SihUZxYoGdf7vz2FpP1Al/TVOTNDZcZzOjmFap1f226tj8IdDiz6pKXjmnU+83pNrKmH4+YslQ2669bxAbdD7RIAIdBwCJBA6zlxQTzoYgV2L/nWZIybmApacPsHeZ2Aqi4p199C2fRO4QJhrsOOOKHPIPa9gEnY5NMh1apFj1yJf0aBECe3PUavVQavTQqPVQqfVwvU7/67R6qDT8de0kCQZDrsddocddrsdDrsNdrsDDptNvCbes9tDGsMYnQMPRZsR77GqwFcQ+EpCcpQJz91zD0wTpnvVqdu6ttC09ocF/R99bnlIjVFmIkAE2oVAaJ9I7dJFapQItA2BDRs2JBu3b7tVik883ZGWMcTZs5/RV8vFR44gZ9lneHPxYgzROPFqXHVQHdzk0OJ3mw78e77Tv5OCKSoKSd2SG76Sk5GYpP7ejf9c/15QjYaQqbqqElWVlaiuqkBVRSWq+O9VldiXl4u9ubtQfPSIV23DtQ4sMFkwSss3P9TkudXwys03IHXO+U16YPzl84+HXn7VRSF0jbISASLQDgRIILQDdGqy4xDY/Pu6gXLZ0TulhMSTHT369mGmaNlX7w4d3I+tOZuwZfNGbMnZACgKRsCKs4w2TNPZmh3Qt1Y9Xqk1oRbef24ajQa9+/ZD78x+6NO3H/pk9kPvvlmIT0joOIA8elJYcAh5u3bi2y8/R+6uHRikcWKXU4Nbo+pwlsHqzrnZrsWD5miYmYT/O+9cTLrq5ibj0e3YkG/atPLC/vcuXN0hB0udIgJEoNEnFgEhAhFAYNe/nu/piE++R0nNmGvPGpYJrW87/rzdO4Uo2Lp5I7b9kYPEaBPmRANzrEfQQw5k+qeCfNgcLVYNXKn/oMEYM34SRo4ZJ4QBXy3obGnVip/x0tP/EN3mHAoVWQgELhRciXs0PFUbJQwmL5wxFfPueBBMp28yVOMvn/976OVX/aWlDPqPHLvQISsv7t+8uaKldVA5IkAEfBOgFQS6MiKCAA9HbJt/6wPO9H5n2fsNy2LxST5XCv7cstm9UpC3awcyEuMxW1eHObZixHnstx9RZBQpMrI0TsQ0Y91/TkU8KusjFl91w82Yfea5XYL3+XNOEuMYrXVgs4NHaYbYarg7utYtnrhXxYM10cJ4ccbg/rjxzvshpfdpMn7DlrXbotZ/PK3vwndCvslnjRh3tsSkirxtG1Z0CbA0CCLQgQiQQOhAk0FdCT+BHS8/d6eze8YlzszBw53de6t3Mo/kcNixZdNGsXXwx4ZsHD6Uj8Gp3TBbqcDpzlJ4qgh+o1tp02EDM+KATXUp4BsSH8VV+hUJZ1bEC/fD9F4ZeHHRu+EfYDvV+NoLT2PFD98Kd8hSRcaI0WOxdfMmYbTIRcIUXYPRo8t4sUd8HJ69917oRk1u0mtN+VGLbu0P9w697qaXQhlS5ujRCVpFvi1vy6aFoZSjvESACAQmQAIhMCPK0ckI7Hr+sQsd3TOvc2ZkTXJkDm6yhl9TU42tmzaKrYP1a1ejsqIc49PTMMdSiBNYlXu0/Ma+yq7DRqceq2061CoMqWk9YOreE0npGdBHxWD7D1/ickcR5nnswXviuqU6BtscWvTNGoCnXn69k5H03939e/Jw91+vExmGah3Y7tDizgcexb9eeBpmcw2uNVlwkdHirsDTePG1O25B8sln+6zcsOa7b4adf8HcUEANGDHmndytOVeGUobyEgEiEJgACYTAjChHJyCw7cF7J8hZA+509sqaaR80mh9i5JVKS0qEIMjZsA7rV6+CRpIwuUc3zK3ci3Fyg4Ed3zvnomCFYhKrBNEmI2J7ZiI2pbsQBY1TUd4OYMdGvB1d7pPS87VR+NqqR1x8At786LNOQDL4Lv716ktwpKgQgzVO7OS2BpdfhSnTTgRfXdi1fRtm6W24K7pWHBHJk6fx4oOXXIARl1zvszH99vUHDUv+PWfAG0v/DKY3JBCCoUR5iEDoBEgghM6MSnQQAsKuYN4tDzvT+53jGDgqU4mJ9+pZwaF8IQo2rF2NPzZtQFJcHKYkxeD00l0YXB/oh68S/OHQYKVNj98dBrFKwN0JY3tlIi45DVEJSc2O1lZbg5zln+Oj+Cqk+TBc/Mmmx2P1EQYXfbAUCYmJHYTesXfjy6Wf4P3/qKsiPOqilNITr7z9gfj99ZeexU/fLQMPrsS3HPh3njyNF2+adQJm3P6Qz45oDu21mn77/LaB9/z934F6OmDE2CsZk/eTHUIgUvQ+EQiNAAmE0HhR7g5AYOfTf79V6dP/cnvfoSOdPfp42RVwn/2cjdlYv2YV9uzeiYzUFEyN02NO8Q70qr+B85vUFqcWvziN+NMqQa/RIL5XHySk90ZcShq0Pqztmxt2c9sMPDTy/Mo4UfzSBTfgzHlN4wJ0AKQt6gIPrnTJWaeKsi5jxdv/9jCmTJshXvvmiyV4d9FrYgWBi4ST9ao7qKfx4swRQ3HDnfeDpfBDLL2TZLPC+OMnrw+5/pYbmuvg4NGjMx2KfCXZIbRoGqkQEfBLgAQCXRydgsDuB26aa+836mZn5qDjHQNGRXt2euefW7Fx7Wpkr1kF7qs/OKMnjjcxzDm6Awn1Hgar7Fps5lsHThNKHQriY2MRk9EXST0yAq4SBAIUaJvhiqpYERiJuzg+/sJrgarrVO8/+cj92LRuDVJlRYSGHj1uAu77+1PuMfCVG77lUF5agouNFlxjarBLcBkv9k5NxpP33AvtkLE+x2747ctfhl1yueo24SfRNkOnumyos52EAAmETjJRkdjN/DPH9q855ZL7Hb0Hz7GPmZrqYqA4ndi8cT02rF0lREFVZQXG9euD47U2zC3eAR6jkLshugwM11g1YpWA2xBEp6UjIT0j5FWC5vgH2mZ4r86IdyxqUMZnXn0DffpmdZnp3JS9Fk8uvE+MZ7DWgZ0OLZ555Q306dcwxtKSo0Ik8JgS/ByHu6JqES+rXiAu40XuKvrs3XcjacZsn2z029YfGD57ViYJhC5z6dBAOgEBEgidYJIiqYts3Dhd7kVn3WPvPehS+/BJA5XYBHGN1taasXHdGqxfsxLr16yGVqvB5L4ZmKZU46TiXQIRX7peajG4DQz5KoEprScS67cOWpNjc9sMuU4Nrq9Sz3E47+IrcN6lV7RmV9q87qsvPBs1VVVub4bZZ52Lq65vGj3x7X+/guVffiZOh7w7qhYj60M0exovPnbV5Rhwnm+HBM3hfWa574CsEWkx3jGfAZAdQptPOzUYAQRIIETAJHeGIe5cePd8Z9bQvzoGjp7sTM8UIfdKS4rdqwRbczYiKSERU3qmYpqtGBNL9noNi4uDv9Ym4KjWhPSho4UtAXdDbKsUaJvh6so47FfkLrnN8P5bi/Dlko8F6kRJQa0hGv/5+HPo9U0jJ/6w/Gu88fLzIu9tUXU4s9491NN48a9zTsG0m+/1OXVyZZmi3bnp7OHz53/lmYHsENrqSqd2IokACYRImu0ONtYd114w8LekjFdj+g2epPTq7z4qcdeObcIVcU/uLmT06IGpKQmYZj6EIWX5fkew1GrAOywRg2edFdbtg2CRBdpmeNdixLt16jbDo8/8E4OHDQ+26g6f70hhIf664BLRTx5NkQeUWnDjrTh17lk++77jz6349wvPCHuRsw1W3FIfotnTePG08aNx9Z33A3FNPFbFORjG1csfGnrRJX/3bIDsEDr8pUId7GQESCB0sgnr7N1lgPzEddd9sL2mbu7WvQdieFCdxmlo376YnGDEjLJ9yKgqCmrID9bEYP+Aseg1ZFRQ+VsjU3PbDAedGlxZv81wxrwLcNkC3zEAWqNfbVHnQ3fdCm4smi4rKFBk9Os/AE/+039gqJrqahFUaf3aVRitcwi7BNf5Fi7jxeG90nHf3X+Dtv8wn0MwrVr2wZALL77U9SYJhLaYaWojkgiQQIik2W7Hse47PnOSVpbPhoRzGMOgcHeFP6H/LzoDg2acFu6qg64v0DbDjVUx2OnUIjEpCf9+71NIss/jIIJuryNlXPHjd3jtedV7YaDGid1ODR58/BmMGD2u2W5+9O6b+PyTD4W3CQ+q5ArR7DJeTNBpRHjmuCkzfdZT+es3G0+89JLx/E2yQ+hIVwT1pSsQIIHQFWaxg44h/4Ss/mCYDcbOYoDvT/gw9Z17LVxVHY/kQSPRc+jIMNUaWjVlBfk4tO5XfBPvO6riNzYDnjObRKU8LPHE444PrYEOnvvCubOgKE4M1zpEeOmpM2bi1nvuD9jr33/+Aa+98AycTgeuM9XhQqMa2XKlXQe+msCPjX7++gXodZa6jeGZin7+GotefHrzFzlbxpAdQkDUlIEIhESABEJIuChzIAIuUcAY4/5qvn3WAlXSwve5odvf6uJQ6lBd6NojXWGy4AqPMwg8+2BnwKkVCeKlcROn4J6Fj7VHF1utzUUvv4Afl6u2g/zkyyom4bV3P0ZyittD1W/b+/bkClfIA3v3YJbBJrwcuLsqn9MHa6NxxCnj9nPOwJRrb/eqo3b197jyH09ihNax5fOcLaOyho99cc+2Tbe12iCpYiIQQQRIIETQZLfWUA/O6DsNwDQwTAckNbReOyZ+U+EGb22duC9///oQzv7a5isIfCWBp64WevmmKy9G8VHVZsRlrHjeJVeAfwWTuNHiPbdcD0ttHQZonMIugfPkc3l7dQz2ODWYf9xEnHNJvRukVod3/v1P/JCzVVTfV+ss3GuX/7dnW85fgmmP8hABItA8gbb/FKUZaRMCh6ZnneQAM2okycAUGGQJhh3myrOzomNX6iRZZgz8LsXN6g2SpBjAYFAAowQYIEkGqf53GTAwCeJ9d37+Gs9XX75NBtRFGvGMiXDBpVdh3sWXdYmR/frjd3i13gaBDyhDoyDfKaNbSgouvHxBUGP84ZsvsXvndndenQQhElwhml3Gi74qi5YYbo6qwyydVQFgkSWpVgLq+M8M4OEb3V/8dwmSeE+CIl5XmOR+XwPUKSK/ZIGEOvD3JKean8ECSS1rhWSJkjV15dBahqZsr5MWQz1wghIR6CIESCB0kYn0HMa+4zNP0MjyL42HtrayFJPjfbiNdUEGHXlIz1RrsUcxQhcTg8vuf7wjdzXovi158QmU168e8EL8aT+r/oCmoCvxk3Gy3o4F9ds23J11pU0HLRh0UFAHDWIk4ApjXcDVm2PtRxDl+WETFqlelEgS6oQ44aKCsTpJkswMkhmMmSFJZgmsxvU7kyUzY8wsM7mGaRSzhslmpjjNzKkxG0zOGslpMqes2G6WgPbbPwsCAGXpWgRIIHSt+RSjOTi935cAzvAcWrXDAbPiQHe96otPqf0IHLFZEafVwiTzXXZKLSHgYAqKbFb0MqhGnxGUagGYGcDFAvcR5t/F75D4z1INFyCMSWYmsSowVsYglUGWyhSnUqbIclmMsaas+/dHzBHEjIbaQgIkEFoIrqMWO3RCv7mKAq8oc7yv++vM6Gk0QSd1Hde6jjoHgfpV5XQAjCFOqwuUld5vhsDeuhr0MzUfLdPmPLYHbklikHv39OqF5lBhV5gX7ipSBgllYCgDWBmYVAaJfyllUKQyJjEhLGxO+Y8Bv+cVd4VB0xhCI0ACITReHT63r9UD3mnaXug4U2djDBV2G1L1qrFijdOBMrt6FLKvpJUkpEfek3LACdtbZ0Y/k9fBnk3KmB1OlFjsAevylyE9Sg92zflwTB6tZqm1/D971wEeVZW233unpvcKBAKh10AAQUBBRRAb2MuqYF0bllVX3d/eO7Z1LehaV7G7KuqqqIBSQpHeIYQSSC/T597/+c6dmsxkJpNJMpk5nw9myqnvOXPve7/zFcTf9FDI7XXXirKMbYKAZTKElYIgr+klFKwVliyxddf58HEHhwAnCMHh1C1K+dMeVFktoIVO17SMjd8tJhaFgyw3G5l63CbLWF1fHXCGeVo9ege4GQZsJMoKBEsQmmxktxiapGlVjCDISW4iolvw79Aai6JaAlApASsEWXi34LddSiIOLlGHACcIUbSk/rQH2w0NGBDvSnUQRTPuvlPZZWhEP0cyqT/qiCC0rgrvpY9HD65F8FpwOjYj0sQvYl37OxAgr5UF4V2bWn6v7497WmTa7NrR8d7bgwD/bbUHvQiqu39K31Nk4OvmQ6In1P1mAwr1ratiI2gqMTGUzU31GJKQzOZqpyMHm381OJkypnLtT4t9cchsQppGAz039oyU38xeyML9Bb/teitSBsTH0T4EOEFoH34RU3v/lL6vy0ALh/MKswlxajWSVeqIGSsfCOCp1aHXJFzL07adQXYbKkFACjf2bBtwHV1awFsFv+ye29Hd8PY7HgFOEDoe4w7vYe/k3nmCoNosAEocXw/hxokdDn9IHew3GUB2BWpRhMGuxNeJV3G3x7aA2WS3odFuR47D2LMtdXnZ9iMgaGSIFF7Nh1gb0bfPr/v2tL8X3kJXIsAJQleiH6a+y6YUXgcILzZvzmi3o8pmiUVf8TAh23HNHLWaESeokKjmmp1QUabjs4NmIwr08aE2weu1A4H4wSZknFbvu4X0xnhhIotkyaUbI8AJQjdePOfQy6YU/gcQzms+FXpKzdLooOdPphG3yg12KyyShAyN4urIJTQEPI09Q2uB1woVgeRjDEiZQrGavMVWJ1o0F9XzjR0qsBFUjxOECFqMUIdSNqXfAUDOb16fHy+EimjH16NIgEesZuRrYy4SYFjBDcbVMawd8sZcCKTPrEfCcEph4S3m/Zr9+r/WFHCouj8CnCB08zUsn1Q4UhKFdc2nwUIr223I1fHQypG6xHRzK4xT1OMyBAqu6HJ3VJweZeUzCsAvux0hZXrjCspPZQRHGWctpTxFAaTv6GuqQz92dmLsrM/qOfrw6JnKCI5+JZf3pVKOJcmUZciCOyuA7HDRpKLK2JTv6HNHM5CUDxz1PZ06nbWVsVG/EutDqe+AAbJjLmwSsqzMgxIf2O2IU6kgQmDdioIAihUqCvSJDJH+Y/AIrr9k6SGwckodlbOuo4z7c5F9zy+Svn9B2RfUQNerpfeNYafuh4SbqqZH6u+Ojyt4BPjeDx6riCx59JKC+yS7fG/zwW3ZZ0SBkASKwsclMhEora+BVQ49iE9kzio6R+UkGJ5ERJAV0kGfMRJCpIPxIydJoVpgnhb0VxSV7xl5cRATz/pK24JCWBjJUdqhzyJR8q+tgiqxZQLLxk36B5PuqLwnEsfMx9Q2BCJz57VtDjFduunJjGXxg80Tm4NQvywBdct47INI3hxrG2pgljhBiOQ1irSxuTQhjEi4NSGeWhCVh8aEkRcn8XCSGE/yAcFBYJqRHfY5aU+cGhhvJMiDoefNvtMzGLclTIi/teKPSMOOj6ftCHCC0HbMIqpG/QuptUmFtpTmg9r9rR4Hf4/u0MrsOUsQYBNEqGW7ot7uQKFnJSlMT3OkSq+TjLDIyhOYTlBBy54XFfW7uxu3Kt9Dq+/UtCvqb9ev2FlWdmr5lXKORtlrl8pcqUTjcH/mBs95tOHrAuFs0/md8xihuTLeVc5xROJsnVT/TlHmqhyv+OzLUdfzO1d/goAmyYoEQUl65fyc2ndiyP46jme82nA81Xv268LKgZGzrjJWZdTKunjsM8+2PY4jnGNR2vdzTuFoxrmuVE4WlaMRQZbgVC557wePDe4chud4HcdVNETn3nDNy/O3QUdOzXJHs/49tpPn6+Y/q4QcO4qva5kQUrIKUM1u4PeVDrwOdWbTfCE7E+0O6KvxlRRjQk97C0ODDQvjUbc3ulzoJFGNclU81onJKIMe+wXvaWsgo79kQJFgQD+pCRmSGVrJFlbi0MRuLO3/2ahlGUbJDIPsPsPNUcWxM3MuwSNQJ1mQInZDIiyKaBJ1KBd02CokYbegx2HB2/BfJ0voI5iQbzdijFyPLMkESC1V+sGjFb6SGYNsGHwhZZ72lqaDKinxqjoe0CN8UHdpS+2/0nXp8Hnnja+kmBN62ltcIVc/mwRTTfdfXptag81iCpaJqdiL0AwuZ0sVGGFvQILdFCDjQeD91CRLEMT2Ey86i4ZsQY1EWXcVSRf1TJPAJXgEuhNBkEUVylUJWKJKx0a0nqbaHwLFciNK5Fr0tzVA7kKy0GOiGYUz3HvXOd6aTZq69DtqWgRsC35FeclIQqD730EiCc0uGEvDP1Msib3sio7VQ5beo8T5765C2oI16jQsEnPCNoUiyYCzpAqk21qqRtvSSZUkIS4Moas1khVVkpu0pIg6xAvtJx9tmUt3L9stCIKownJ1Br4Qs8MGd4psxyXSARTYGiB18NGar0H3O82EvLEtU5QfWa5fl/NIZXHYJsob6lIEOEHoUvjb33nDKynmxGYahKbDKqx9uXsaKNJ59EZNKt4We/gEJyEhAXFxcdDp9NBotNBo1BBFUsvLsNlssFptMJvNMBqNMBgMsPlIgnSGdAQTbVUhq2uP2m1IULdfra2V7KiWjLA79BqJggZJ3VFd3v5tHHILkU4QqtUJeE3VC9V+iB/t4YSEeOj1cdBqaT9roFYz80PY7XbY7TZYLFaYzSa2n+mfpwyRDTjDfgipts4NWjjsUgNS+9larNvhn/TP5D1TeWvIC8orRhQCnCBE1HK0fTCNr6QaEnravKLt1O1VYcPC7kcQzCotFmnysaGZ+jUuLh4pKSlITk52kIHgcTIaDairq0Ntba1XpXTZhmukfUixtv3CSjf0Crsdqe0kCXpZQpVkBAVNIiHtAWkRuASPQKQSBEEQsUybhS+ErBaTIRKcmpqG5OQk0N5uixBpqK+vR319HSPBTjlXrkCJpTKs9jatjWvSA75DLFdu0w/MurVye1vmxMtGLgKcIETu2gQ1sroXUmuTm3kxlP2sA/3rTrJPk4yXVd7B1+ipKjMzE4mJoZ3Xes7farWiqqoKtbU1XrBcjMMYbqpsM1QHbBYka3TMZz1UIaPKGpsBdkfYH7I/IDsELsEjEIkEwaDS4SlNPzT5MDhNT09HRkYmVGEIf97Q0IDKykqmXWAEU7bjXvtOoJXU4cEj23pJbVJL91z6JYz75XDoP4hwDY63EzYE+GKGDcquaejQ7Zm7cqeY+nr23t1cHNfoMvGhkOsFYFZWFruQhltIRVtRUeG6qDrbf9y0sU1dmWQZdNTQnlwKasiotxth9XB15AShTcuASCMINep4PKb2+jmyCRHZzc3NYX/DLZWVRxlRcMrttt3IsLX0MAh3v83b04pC0/jVB9rP5jt6oLz9oBHgBCFoqCKz4L4LC8ZknVC3Mi7H7vKP604ujtu1aXjDw95ApVIjPz8fZGvQcSLj4MFDTE3rlGFSA/5i2demLsusZqRodNAIobkm0kmz0W6EUVbOcrkGoU3ws8KRRBDsohp3aQe1mERKShry8rwJcNtn2nqNxsZGHDx4AJIj8NbDlq1QSy1tBPy2IrbfeyZOLW5pePStEVOnTm1Dx+FGgrcXTgQ4QQgnml3UVtmVOQ/mnWz4h1qvRE7pLi6OzY8VyEirZ89ezFirM4Q0CTU11a6uTpEqcZzlcNBdG2Q7DtusyNW27RzZ2QH9+Gx2MxpZLASZE4SgkXcXrJcsSI4Ew05RhUe1/VELby+UjIwMZGWFz3uhNYhMJhPKy/czY90M2YLbLTuUvButiDi8BJrZl0As6BcC+q1Usdu2lowdOzi8jfLWOhsBThA6G/EOJnMDGwAAIABJREFU6q/i9qxfsqcYp1Dz3cHF0ajW4T51fxcaarUGBQUFnUYOnB1XVBxGTY3bLuFaexl6W/3kuPexdtstRuRo40LWIgiSBQ2yFXZZ4gShjb8NuvU1RAhBWKzJw8+qDK8ZdCY5cHZMJKGsrAySZMcMqQpTLYf8o6pWI+7pd4GEpDYiH1xxGfhl7Oji44MrzUtFIgKcIETiqoQ4pupHMg5qs215ke7iSJvuI31vrIb7wlRQ0Bvx8cE/iet0WmRkpiMpKRHJyYkwmy2orKxGY0Mj6utb5qhvDdLy8nI0NjawImQ4+KB1GwR7cFrSGrsdR+wW9NKFdiSikm2ot5thAycIbd32lCGySbYiSegcjZO/8R3QJOF5VW+vr5OTU9hRWVskMyudEeQePZTjCNrHDQ2NOHggeK0W1WtqasT+/ftZG3+z70GW1XfcD3HAcOhuf6wtQ2xr2fqS0cUtwsC3tRFevusQ4ASh67DvkJ4r7s0wbv8qsnM8N7+g5uTkIC0tPSg8CvsWYNCgItBff0IX1m1bd+LP9ZsZcQgk5Dq2Z88eV8yEs6UKjLX4TkTjq61NpkZ2zBBK8CSNLKGODBUhsRtdotgi5lWg4cfs90QQKFR1YhcSBF92B1qtDn36FLLsjYGEiO6IkUMwcFARI7r+ZM/uMqxfvzloskAeO0ePHkG2bMXfLDsg+8gaKmTmQP/YwkBDDP17Wd5VMmZ0UegN8JpdjUDgHdzVI+T9txmB5WPyJbvcDv+7NvcYfAUKN/ugtj+aHGe1iYlJ6NmzZ8AG6Olq0qRxyHc8XXlWOHDgEHr0yGvRBpEDIgmrVq4L2D75lpORl1MetG6H1h6YXFD5I3Yrauw25Ovi2+z2qJaBeqmJpX3OUsVBzXMxBFwrZwFyDzVK9i4lVUt1OfiqWawDsqMJxjV37LhRjBwQSfAUOiYwGk1IS2sZsZi0CUuXrkTlUbftjD/Aysr2scBKf5EOYpjFd3nNWZdCPfPcoDFvS0EZ8tljR4/+pC11eNnIQoAThMhaj7CMZuPYXmNr7PaVYWkszI3s0qbiVdFNCOhJS69v3fd/0OAiHDtpnOtCumvnHvzxx2rs3LELVVXecQ1GjByKESOGYtz4Ma6Rb92yE8uWrgyoTSADL7IGJzlNPopJ5oqgZ/+nqdEr5K1Tm6ClTJOO1IxxjhwOKkGAzmE1rpJl1NkNiBdVXfokHPREI6ggBZgyw+7K5tjZQ7OotPg/zQCvbimYV36+7yigzoJECKadMMmlBTOZLfhj+Ur8+ecm7Nyx26u9jIw0tp/HTxiL/Hzl6IGI77ff/BRQm0DkgEgCycO2bVD7iY9g7VkAa14P2ENIhpo4cTriR4zzBf3bJaOLL+3sNeH9hRcBThDCi2fEtFZaUnCTQbI9GzEDcqT1fUo7AEcc6XkpOmJeXuvntEQO6GJKQk9VFRVHsHdPGT795Cu/U+vZqweuvmYuKiur0K9fH1aOnrw+/2xxq3B4XlCpYFu0COTRYJfafoXVq1RolCxIFXWRqfKJpA3UbCwUP8IKucvyV/jSHgQivEQOzjhzBkgjRrJ3bxmysjLx7NMv4cgR/wG7LrjwLOTl5yE3Nxt6vRIEjUgCHT20JgcOlIMCKl0mHcBgizeZbl7P6W4b7JKrCvoh5d6XfRWvUwnoU1xc7B2+NNiGebmIQYAThIhZivAPZPW4nncYbVKHWiG1ZdRHNQl4SlXoqhLIMJEuonQxpYsqHSO8/uq/kZmVieuuvwJPPP48yve7jwQ8x3Hl1ZfAaDDj3Xc+xJyzTsPxUxWCQZqEn35c2uqQ9+3b6wphe0NJX5TcwMPKt2WNY6WseesGXPXoK17TTUhIRK9evVqF4IQTJzF7A5LPPvkKP/+8FJdf8ReWQ+Ttf3/gs26/foWYf/M1jERYrDZc/Jdz2ZEaaRK++Hxxq8cNToPFHrIZN5p3hHV5dLc9BnHg8BZtCjJuHjOm+LmwdsYb6xIEOEHoEtg7r9OVY3s+arZLf++8Hv339KGuN9YIiueCTqdDYWHLiHOetf9y6dnMS4E0B/fd85jrxv2XS85HQkIcdmzfhSHDBqN3715oamrCpo1bUV9Xj1NOnY77730cVVXKuStdUJ1HDqRFaM0qnOIiUHwEpzxbpAs5qVOwmJtgZ7YLGm5/ECxkrBwZdpLORtsFuFWq4/Hwdm93WNKGkVbMn5Bh7cxTprGvl/y81KUFo5v9HXfehK+++BaZWRkYPHgg4hPisGdPGTZt3MKOGA4fPoKPPvyM1e3RMx/zb7qaHc0FoxnbuXMnM8C937oDenvLFM1tAt1RWFU8Adrr/uGr6r6S0cWK2o5Lt0eAE4Ruv4SBJ7BqbK9nTXb7TYFLdmAJUcQd2iGuDjIy0pGV5T+Vs+fRwvML/uV1Nnv6GTNw4klT/Q6WjiFeeXmhl33CfQ/cifT01IAXVIvFgt27d7naXnDxTKSedGoHAsOb7o4IbH7rVTz+83qvoRcV9Yda7T9dt5Pwkp0B7Wmn5ORm45prLgP9JuCwV2mOyZdffIv//bDE9THZ2lxx5SXsfaCjhsOHD7FkZedKFRjTBu+c1tZF//ibEDJaBoCSBUwdW1zsHmh3XFw+ZhcCnCDEyGZYO67XM002+81tPyUPD0CUqfEeD4OuQJbe555/OjIz0xkx8LyYzjzlJMw85UR2HW0tSNyRI0fxyEPPuELPFvXvixvnX80m89GHX7aqlt21awdT+ZL8fdJgDL7y+vCAwFuJGgQ+evBBfL3THZ+A0o8XFrqPz5pP1FN74El4KXX5nXffjNTUlpoHWZZBmR+d8vlnX+OnH391vaf9TPs6kBahrq4ehw4dwHA04GJT28KJ+1ow9ekXQXP6hb6++qJkdPGZUbPIfCLcLiqW9sCf43tdZ7BLT1glOfiIRGEC6IgmEU+r3JrHfv2KoNH49vknf/CLLzmb9fz6a2/jz/Wb2Ous7Ez83z23sddEdOjSWV5ejfpaI7Q6NXJyU5CU5PaI+P67n/Dfr75zzcCpRSDXx6W/+Xfy8PRmuGBADsbZqsKEgu9maC4U8CfRYbzZoZ1FUePkwUBHM53uGiqq8Pf95E3gVtcHCozktD0gW5rHH3Ufz885+zQcf7xiI0Obur7BiIrDdbBY7EhLi0N+D+/4IP9390Ooq1OCeo0/pgQXXXwOe/3Ga+/79dIxmczYu3c34mQ77jNvadcOEOIToHvsTdDf5qISUFhcXLy3XR3wyhGFANcgRNRydPxgdk3qO6DaYv7QLglDrJLUaSHo1msz8b6ouGnRU9HAgS2T2jhnP3LkEBw7WXGduvH6O1ygnDn7VEw7YTJ7L0kySlftQW2td9a64SN6ITfP/TQ2/4Y7XJoGp8FioCcuzxwNY3tl4/qH7u34hQlTD/aqI2FqqfObUflQWXf+KAL3aNm8Hlc+/qpXQUpLnpmZ5bfyFVddBK1W42V7EBenx+NP3u+qU76/Bls2exveZmQkYnSJm1h/+80P+Pab/7E6pH14/Mn72OvWjhkoSNK2bdtYucfMmyAEyM/QGgLaebdANfGEFkVkGfePHVOsDIZL1CDACULULGXrE1m9Zs2NAO4EvPIqB590IDSckp3Vnnn6JeaeSELntHRe608ogAz9a3688PSzD7m0Drt2HsHuXS1vhnq9FpOPc/umv/avf2PDhs2sq6lTJ2H2Waex1y+/+Jbf/quqKnH0qBJJkULfPjEg/Cl6m3ceMUmHQlvnLqllkuzQiiLETlaE2kQ1/vant1YpJycXaWlpfnG49vrL2HeexwslY4txyaXnu+os+WkLrFZ7izYGDMxF7z5K6vP6+gb8466HXGWcWjEKBtZaQDAiCEQUHrRshbYtWR49RkMeC+S54EP2qQSM4m6NXfIz6NBOOUHoUHgjo/GVpaUzREH8titH40kQ6Emqb1//EVid6thDhypQV6ekZGakor/b62H1ij2oqfEdY37CsUVIdBw1VFVW4+hRxb+ccj0UFChBmlojCNXV1ThyxO3J8LhpY4dDVyOZoBHUHrc6xVqEfqBOuxF68HP+YJ2fsfc+fsWe37f6wMjqui1TnEc37FPHx57Ne37f4aAE6IC8PzLFjidvzYdRq47Do2rv7Ie5uXlITW0Z+ZDqkpvu5VcqZ/ZlZeUsuiFJTk420tKVOrSXaU/7ksysJBSPced62L5tp8u2Jikpibk8BiIIO3ZsB4UUP89+CKOt5N3Tdmsk3exLTMLA4V5WmEJ8QhV69L6mpLj4867eD7z/8CPACUL4MY24FleWrr1SFOCtE+3kUXoSBLI9IBsEfzJp8jgWgpYIwupVaxwEQcOME52ypnQvqip9J2U6dlJ/xCcowWS2bNnm8oAgK/GJx45nn7euQVDi2DulMwiCSVaMIgUILvsK5b3vSzkz0qTvfVznvW7ynbzOndldo2RFhqr1KJwdMR5fyZny8vKQkuKbINAYnBqE5ctWuNxvBw8ZgKIihWjU1xux4ne394znuHNzUzB8pDu+wn+/WgwyYCQZPWZUkARhB+yOBGQDYMBF1nLogwwlTv3EqVUflKzc79MysSMw5m1GBgKcIETGOnT4KFatWfOBAMGtz+zwHr07eOP1dz//c/0G9liuUmk0RUVF8/wNwXnEcKD8IB5/bIGr2N9uuwEFvRUNgK/zWvo8JTUe48a7NQ3PPftP7N6l2E05PSAsFitef/U9vwjU1dWsOHz4sCuBw+OmTVfKsix2MmS8u1YQMMt2FtraGb66M8H6RZuLb0RF5e+UQAnHnAThvXcXYcUfq1m1IUMH4Zq/znW18cfynWhoMLWYyoiRBcjJVU7rSHvw4guvuco88dT9LB5CIA3Ctm1bXaTCWXmq3fuYRAd7RYFs+t9IqUEZoIcUrz7AAx915iaLkL44QYiQheiMYaxYs2aCaBe65EYnilLFmDFjdjrnOW/ejdWA4PPQ1jMGwh233ecKkDTthCk4c/YsF1TbthxCWZn7IpeQqAMZKTo9GSi4zCMPPe0q7wyYFMhIURBw0RtvLHjfWbF0XM93DTbpos5YI95HcAg0SBbECxpQXovOFJNKi3ub5V+g/tPTM5Cd3TIugHNsTrfdlStK8e47H7mG/PyLj7te19YasWnDfhgM7iRhvftkYMBAdyKyD//zKZYtXcHqUJ6Ge+9XYqC1FgCMjhboiKEVIeOgx5cv/95n3OTOxJf3FVkIdO6vK7LmzkfThQjMmzd/GYCJvobgeWbr+cRFdghPPPUA1GpyblNU7E2NZqae1enUSM/wTpf7nw8+wfJlbndGshgny/Flv61kqXP9iSjKJa+//nyp5/erxvZcYrHLUyTI/DfThfvG2XWtZGb5KzpT4tSqLfM1g57x1WdWVnZxenrmtf7G4zw2q66uYVFBnTJ12mTMnuMdiKuyspHF4UhJiUd8vNvRyNBkwN/vcHs9OI1uA2nEbDbbrl27tvsNub5s2Q+vdyaOvK/ugwC/2HWftYqqkc6bN5/ODsizwqdQSFoKLkPZGu+/131tG1NSjEsvC3xSQp4L5MHgFOfxAr1/9+2PUV/v234BgGXhwgV0sN3idP+cY6acN0eovCBdMheqZKlz704RvPpNENOMgtr/43MYxy7KsiUd1j0muzFVr4rrlGRAmYKdIgMuHbWi7F1/U7n88lt7y7LNbwwAyity7nmns+qepJfeX3fDlRg40I9NjocRymv/ehsbNigxQcjF8Y475yM9PY0lbCI3R/8iv7Rw4fM82lcY92GsNMUJQqysdITNc968G2cDwqf+hpXfIxdnzp7BvnYmtXGWPX7aZMyhpy6fFnwCsxR/6onnXU3TxfS+B+5gF9VtW3fix/+1mrDpu4ULFygdN5MJE6afKgjwn0YywjDmw2k/ArKMb3///ftTgmlp3rz5FIXIb4AP2s+0r0mL8PijC1xHZ9T2nXffgrw8H6HHHRan77+7iKU4d4on4Q0UGVQQcO4bbyxYFMwceBmOgCcCnCDw/dAlCJxzzn3apKQa8mH0a4buvKDSAD39x2+65RqU7TuA0tXrMHTYYBQU9EBtbR12bN+NI0crcdvtNzBDLjLoIlJw4/yrWIIbkgDaA/ILuH7hwudeaoUg3NwlgEV2p/T4W9CJQ/wFQMuAAR0wAFmGOViCcPnlNz0uy/Lt/obhqUXwjPExfMQQXHnVpXj04WdAqcr79++LxKQklO3bj00bN2PylAnMQ+KfL7/BmvbMwxAE4bU2NIgpixY9a+wAeHiTUY4AJwhRvsCRPL158+bT2efl/sZItghk3KVkdDQy1WxSYiLOu2AOPI0Xm9d3RkykMp7kgFI9U8rn1sRms2W+/fZLHRtbOZIXJYSxTZgwrYcgqH8AMDiE6m2qIsu46/ffv3+0TZU6qfC8eTeMBESX94uvbj0NcIkkvPbq2ywa4neLf8LX/3WHBfesm5aWgvsfvIulg1ap1CyFOdnSVFZW44vPFvsNsUxtCIKw8I03nvP7G+skaHg33RQBThC66cJFw7Avv/yGcbIsKibZfoSeus6cPZOFqSUpK9uPdWs24n//858wjrQG111/BZJTkpGaqriHBcq/oFxM8c833ljg19AsGjDvyDkcc8z000RR9h8MoJ2dC4K4Ztmy75RD+AiVefPmU07mVhMWOQOB0RTq6uuZPczTT7zgCn7ka2pnnHkK+hX1RZ8+SjwEMkz86D9ftGZLw8pJEsa99daCVREKFx9WhCPACUKEL1C0D2/u3PnvCQJaDcBCyZtmnDKNZXckIW0CHSf8+ecmdp5bU12DtHTFY3L4iKEYMWIocwFzSjCaA6Ws2G/hwmd3RzvmfH4dh8C8eTdNAOTlgXrwzDdCZSnmx/Ydu7HhT4X/OPc0GSHSfqZjBacEozlwlH174cIFlwYaC/+eI+APAU4Q+N7oUgSuuuqGfjabSMZdvlM7OkZHxw0UXXHkqKEubUKggVO8g6VLV7aa2tndhnDPwoXPPRioTf49RyAQAnPn3vScIMjzA5Ujg8Vx40Yxw8VghLQG69dtYtows9kdK8FP3SarVR7yzjvPKwlQuHAEQkCAE4QQQONVwovA3Lk3/VUQ5KCCtBBRGDSoCAMHF7k0Cp6jaWhoZG5fu3eXgQhCMCLLWPLmmwumBlOWl+EIBIPAvHnzKUZ4cTBliSAMHlzEiALZ2zQX2s+0l7du3RkMMWDVZVme9+abz78ZTP+8DEfAHwKcIPC9EREIzJs3nzwH2nz+T4QhIzMdFoslSE1B8+nKh+12edK///2C70D4EYEOH0R3Q+Cyy24aJYr4FZCT2jp2sruhLKKUaCwITUGL5gVBeOqNN567ra398vIcgeYIcILA90TEIDBv3o0fAsK5nTgggyRJM95664XfOrFP3lWMIDB37vyTBQGLO3m6by5cuMBvnpNOHgvvrpsjwAlCN1/AaBv+vHk3vgsInZH3oFKWpbPffPMF8qnnwhHoEAQuv/zGGbIsfAwgoUM68G70tYULF1zVCf3wLmIEAU4QYmShu9M058698RFBEO7sqDELAv4QBGHe668/R8aRXDgCHYrA3Lk3jRYEaSEgjOy4juR7Fi58nhvZdhzAMdkyJwgxueyRP+m5c288QxTFJ2RZHhDm0T65cOECv9HuwtwXb44jwBC47777xLKymmdbyz8SGlTyBlkWbnvzzQW+oyyF1iivxRFgCHCCwDdCRCNw+eU33SnL8k0A2pkMSPhIFKUnmmdpjOjJ88FFHQJz5944URAEMiBsNZhSEBMvB4RnFy58zmd2ySDq8yIcgYAIcIIQECJeIBIQmDfvpssA+WwAMymiUTBjkmVsEgR8IcvSe2+++YL//M7BNMbLcATCiACFZRYE1YWyLJ8BYGCQTVsEQfhWlrFo4cLn3guyDi/GEQgZAU4QQoaOV+wKBCjJU0pK7US7XR4hCOgHCLmAnCwIglmW5UpZRhkgbJZlrH7rref8pt/tirHzPjkCvhC49NIb+omiWCIIwmBApqRXGYCsFQShTpZxSJaxS5al9U1Nh5cvWrSoU5JU8ZXiCBACnCDwfcAR4AhwBDgCHAGOQAsEOEHgm4IjwBHgCHAEOAIcAU4Q+B7gCHAEOAIcAY4ARyAwAlyDEBgjXoIjwBHgCHAEOAIxhwAnCDG35HzCHAGOAEeAI8ARCIwAJwiBMeIlOAIcAY4AR4AjEHMIcIIQc0vOJ8wR4AhwBDgCHIHACHCCEBgjXoIjwBHgCHAEOAIxhwAnCDG35HzCHAGOAEeAI8ARCIwAJwiBMeIlOAIcAY4AR4AjEHMIcIIQc0vOJ8wR4AhwBDgCHIHACHCCEBgjXoIjwBHgCHAEOAIxhwAnCDG35HzCHAGOAEeAI8ARCIwAJwiBMeIlOAIcAY4AR4AjEHMIcIIQc0vOJ8wR4AhwBDgCHIHACHCCEBgjXoIjwBHgCHAEOAIxhwAnCDG35HzCHAGOAEeAI8ARCIwAJwiBMeIlOAIcAY4AR4AjEHMIcIIQc0vOJ8wR4AhwBDgCHIHACHCCEBgjXoIjwBHgCHAEOAIxhwAnCDG35HzCHAGOAEeAI8ARCIwAJwiBMeIlOAIcAY4AR4AjEHMIcIIQc0vOJ8wR4AhwBDgCHIHACHCCEBgjXoIjwBHgCHAEOAIxhwAnCDG35HzC3RWBIefcp01qTM+22uUcUSVmS7ItR5TFbAjIAZANGTkQhHhA0gGCFoAOgL+/ZkC2AIJZAMyyADNkWGSAvQdgAVAH4DAEoUKWUSEKUoUsyxWSDRXxOt3hpV9fW9NdseTj5ghwBAIjwAlCYIx4CY5ApyEw4Zxn4swNYn8VxCJZlosEAf1lCEUypP4ChB6dNpDgOjIA2Kb8k7YB4lYIwjZZrdtW+tXV9B0XjgBHoBsjwAlCN148PvTuj8D4mc8nW2VpgiiIUyBL0wGhpPvPimYgrwHwI2RhmaBSr1j1zXWHo2NefBYcgdhBgBOE2FlrPtMIQWDs9AUTZVGaLkB1jAx5quMYIOTRybIESbLBbjXAbjVCkqwht+VdUYAg0D8RoH9QXrPPRDVE+qfSsn+BRfhdkOVvJai+Lv3ueiIPXDgCHIEIR4AThAhfID686EBgzMznp0OWTxKA6QBGtHVWkt0KWbLCbrcoZMBmAGRHK4IKarUeKrUOolrPbtxOMRuOQhef1dbuHOVlyDL9kwD6B+U1+0yysXFINB47mSu4RVTroFbHQaWJgyhqfPX9CyB8rRLw9Ypvb9wc4uB4NY4AR6CDEeAEoYMB5s3HLgIlJz8/ThbkMwVgNoBBbUHCbjPBZjPCbjFAlu0QVRr2pK5SaWE2VcJqroHdXA+z4QjMpqOQbGbQjTm37xmIS+yJ+qpNqDqwhH0eilAb/kSf1MvrK118NkSR7CEBXVwWZEiwWZpgsypmCGpNAnTxGT6bEyB8J0P+dPXi+a+GMk5ehyPAEeg4BDhB6DhsecsxisDYkxfMlQVcBOCEYCEgDQFpBeimSq/pyVutTYBKEw+z4TCMDfthatgPY2N5q01qtMkoGHYFyja+DqulHiPHjPEq39jQgF3btwc7rJDKiWotElOKkJgxjJEVQ+MhyHYrdHEZbE6+xNR0cIup4dCLO9e9/XJInfJKHAGOQNgR4AQh7JDyBmMVgZLpC4ZBxN0Azg8WA5ulARZzHWRJYk/aRAjUmjg01e6CoW4nGut2ttAC0E2/aMAg9B04CLn5+Rg1RrFrPGHMSPa33+hbsGvNM+z1j6Xrgx1Ki3KHDx3E4YMHfdb/c/Vqr8/Xla5k7zeuXw+7zeb6LjljKDJ6HM+0G011ZdDoUqDVp7i+Jw1H7dE1qDn0O/QJucZDe1bEhzxgXpEjwBEIKwKcIIQVTt5YrCIwZsaCWwQwcpAeDAYWUy2s5npAUEEXnwa1Op498dcfWYP66k1epKDfgAGYdPwJGFFS4iIDvvoIN0EIZh7Ny8w9azbK9u7GxZdfhc8+fB9NjY0grUZO3zOYLYTJUEmmjuzIgcjB/q3vwGapR6/CEbj9vnvQZNKsuHr2qGNC6ZvX4QhwBMKLACcI4cWTtxZjCIyd/twUWRSIGJDxYUAhTYGhoZwZEuoTspk3ABGD2kO/M7sBpxApOPm0M3Hs1KnIzcsP2C4ViCSCsPj3lTCbLbjn1vlYX1rKDCjzis5lJIHZJ9iM0MdnMs1B9aHf0avvCLy16B02zx9/2nbDbZeOfzGoSfNCHAGOQIchwAlCh0HLG452BMacvOAKQcBrwc6TrP2NjYehT8yBSqVjT9BO9Tq1kZCYiBmnnYE5F10cNCnw7DvSCIJGqxguPnHfP/DdV195kQSzsZp5RBBJKN/yDszGo7joqr9j3tUXoLy8xnD6hELfxgrBgs3LcQQ4Au1GgBOEdkPIG4hFBEpOfu4uCMLDwc6d4hOYDEeRkFLAqpD7YcXuL5j2gOTSq/6KORdehMSkpGCbbFEuUgmCP5JgbDwEQdRAgIzyre9ApdbjzU++Qo+e2Vi1as+vV88pPi5kMHhFjgBHoN0IcILQbgh5A7GGQMmMZ+8DxHuDnbfV3AibtQFxiXmsSu2RNagqX8Jek8HhtbfegaKBA4Ntzm+5SCYIniSBbBJ6DvqLy3BRq09FU91OhkmPPsPx9ifvsjn++OPWebdddsyb7QaGN8AR4AiEhAAnCCHBxivFKgJtJQdkjEhCN0GSI/sWo6FKiQ1EWoNLrr4mbFBGOkGgid5y1Txmk0Duj/kDzgUgoamuHHGJuTi8+3MYG8ox/YzLcMc9N2P//ur6Myb2dbs8hA0p3hBHgCMQDAKcIASDEi/DEQAwZsaCSwXgrWDBsFoaINus0ManM3uDgzs/YkcLZGvwwDMLWvVICLYPz3LdgSBQHIarLjgHFYcOITVrNDJ6Hc9CRJN3gzYuldkjCALw9GvvYPiIgVi9es/3V80uPjkUPHgdjgBHoH0IcILQPvx47RhBYPT0BWNEEd7O/60NBTVxAAAgAElEQVTM3WZtgt1mhi7OmxyQd8Lt9z0UliOF5t13B4JAY965bRuuvpC0B2BaBNImWIw1sNvNsJqrcHTfd8jM6YcPv/mUlfn5523n3nrJ+EUxstX4NDkCEYMAJwgRsxR8IJGKQNHM53WpsmwKdnxEDmwWA/QJWV6aAyIHz7y6sF2GiK2NobsQBJrDJ++/h5effoLZIfQecgX7a6g/AI0uCVXlP6OpbhemzfoL7n7gbyjbV1Vz5qR+QcWXCHaNeDmOAEcgMAKcIATGiJeIcQRKZjxfC8hBnYUTObCaySAxt1PJAS1RdyIINN57bpmPZb8sQUJqP5ZDgpI/GRsOIi4hB/s2vU7JI3HP4y9g8vHjsbp035dXnTnyjBjfinz6HIFORYAThE6Fm3fW3RAombFgGYCJwYybyIHFUI34lF6dTg66I0Ege4QLT53Boi0SQSCiYDXXsUBKECQc3P4RklPz8NmPixn8y5btOOWG88d+G8xa8DIcAY5A+xHgBKH9GPIWohCBcTOenSBB/AqA7zSEzeZMRojGpiNISFEyHTq9FTr6WMFzGN1Ng0BjX7rkZ9x7603siKFwxHVsOpSzQReXhrqKUhZI6pjjZuPhZ+7Dnr2VR8+aXJQdhduNT4kjEJEIcIIQkcvCB9WVCLTVlZHGamw4xPILUEpm8lSgwD/krfDqfxaFFBUxlPl3R4JA8ySvBsow6TRYlCU7DA0H2FGDM1fDv97/iBl2lq7e+9GVs0edFwo+vA5HgCPQNgQ4QWgbXrx0FCNQMuPZ4wHVvYB8fFumaWo6CrVGD7VWiYJIKZlJPX7sccczd8bOkq4mCH/89gtefPJJHDqwH5SLwRlqOdD8yaOBPBucBIHKmw1VoNDUokrNyFZiSh7e+2IRM/BctWrv5KvnjFoaqF3+PUeAI9A+BDhBaB9+vHYUIDB+5vND7LL93LZER3RO22ysgSxZoE/IcSFB4ZMPbH2HuTnSU29iYujhk9sC77rS1VBrk9F72BXYs/4lSHZz2GMt+BuPyWTEjm3boFKpYDGbMXL0aAiCGHD4lE6a0ko7x+1ZgY4a4pLyUFexmiV0ckpyWn71vm2/B3X0E3AAvABHgCPgFwFOEPjmiFkExsx47hwB4jmAfE4oINhtRpD2wJlfwbMNysxIoYPpJt2ZktX7ZCRnDGWZISmeQHcQIgdkpEiZHj2F8LWa6qCnKIu7voAkubGMS+rzcEr2uM8g2OsEbUItDqKutPRqa3eYLx8jR6C7IMAJQndZKT7OdiOgHCHgeEAcTYERKU5PexptqtvvMkr01w4dN3SW6PRZzNjPKWQ4aTYd7azuQ+pHFHUtiIFnQ0yLkJjLbDsCiCQAdRJQZzPXaQVBU6nWxu8D5DpAqDM2VUxVaxJ+tVsb+4rahF8ks6GnEBf/s1ZI2SCqxdoEQ3ztkiVzg451EWgw/HuOQDQgwAlCNKwin4MXAqOm3jNLksTjZNk+GpD6qTVJUGni+oQTJvLXF9X6Zk3KPrrw/ROjcMJgxZvXCf0nKUl2yJItnNP035YgQJadY/cxb1lmM6NMjS1m2WLeSln6nwKLd3uiqEF8cnBcTrJbYbcZoNF5h60wNByELi4DpqYKppEwNR5mxxfUtocYKJcWBNQJMhixkCDXCfQZEQ0ZtYKAWkkUamGX6gRRXStIQq0oSnUNRlXt5iXXNXYO+LwXjkDnIBD61ahzxsd74Qj4RWDE9L8lyEb9SYKMUyUB4yTJMkCW7K5HaLpJaOlGEeZdTrkDZLrDO26QAnXgeMtu/M47InvtZAJhHoQPVOjmGI1CeGvj0yCKAbUIMBuroNOnAc3sH0gTQXYiAQhCe+GjBaiEgCrIQiVkuQqCXMleC7LymeM7Qa2ulMz1VaX/+3tdMJ3WN1WcKYgY6Sory6MAKBnAghBBFvZaLdqb09LSlOxhXDgCQSDQ8VetIAbBi3AEgkFg8MS/DRNE7dkCpBmyJA2RZbtP6z+1JgFaXTIEldfTYTBdBF3GmaVRqeDJCjyb8Pe5r27aX5Y0CCSiqPLooPlPXIbgYDEuBYDjid2l1PA1PCrsUnsobIg95xM3Yg15PPu7yBNRJ08NgqOcrIxBaUEGZEfPTnblUiAoKgVZkiDLEjtqaE0oyJJKHQ/Rx7rbrAaIoppFayStgSRZ2bEFfdbFEpBUTJ7QI+XC2UNeSEnWITlJg4T4wETJzw67OTE+97kuni/vvhshwAlCN1qsWBtq0fgbkrUq/RxAvBiCPF6W7ImtYaDRJkGtS2yuNg47bGQ8RzcspjmIIHFqEHzdICNomCENxWSoatXew9/RQkidRXglnU6FvOxE5OcmIj8nAXn0l/6xzxKgVvv2HpEFeW5yXF7Q2UgjHAY+vE5AILKucJ0wYd5FZCMw5Ng7CgRRfZ0sWc+TJXvvQKMVRBU0umSoNYmuJ+NAddrzPREDU2MFO7+ONCG3ShKVh6FipI0x1PHQEYEvbxHP9igjpDYuLdQuoqZedmYc8nOTcMyYPAwflIkhAzNJ43N/UkLefVEzST6RTkGAE4ROgZl30hoCReNv76nTqm+RJfv5smQLeOelG6BKHQeVJj50FbGsqK2ZoR39hfO1HZIsKSp0518Pozl6UiVSEoyPf2evOqniSQTR/QSpnAooNhJ0Li8wLb/zZy+4SRX7TFR0Iqws6fY9vlcaVtoXSHfCCjmacrQXRNyDUDHhBCFU5ACtRtxvsUqfr148/8bQW+E1YxEBThBicdUjZM7Djr3zclmQb5Ts1hG+hsRuROycWAuVSgdRrWlxfCDLiuW+ZLdDlm2gML10zux8zW7yPhsX2U1eOY93vBbpBkk3U+d3IrtRRtpRgr/l83XEoJgHEAkioiA5jvvd3gcuTwRWkIiSw7GC2RwQSfLwKHBgSZ857QeUrx1l/GEdxH5zGno62ImbeBD+gsiCTtEeUBiMm6hQzyKtoSCC9gIVINsCpT36v7KGyprSe5UXgQpiaFFTRII0d83im/kRQ9SsaMdPhBOEjseY9+CBwIAJN/fQqOMfluyW8yBLbj9BgYzrdFARIVATKdBAIGMyuwWS3QS6+Sk3f6vyZO8QQVAxLYKgoqd6NXu6Z+8dryPxSb+jNkR3PmJghMPNThwOIjJUei1UCfGo27sZ+sQcRxll/Ymo0AVMcmiBiADZbEZGJJT26P+KNoiRI/aeCKUf0uibpXqQRgdZdJBKRkCcZJIMQwWiI4p2if0jTY7gaTDaUSsfXLsysNemtk9a/99bDgRXg5eKdQQ4QYj1HdBJ8x827e6JsOJJu83EUiczC3IVaQYUDQE9rdqJBNgssNvNjAjQBZd9T9oDeipkN39NRKr3OwnGVrtpThBslgZYzA1eoRboKVujTYA2Lj0ShhxwDKo4HTQpyajaVhrQBoEaY3YIenJtDRzmOWDnCgtxkA0nwVCIB2lbnMdQ7KiKeZCQxoU0WfRechxVKZ4lwYnIPFAEUe36S6/ZvheIMLd/TjLwaOni+XcFNx5eKtYR4AQh1ndAB89/xPGP95Rtde9D1BSr1NpEdmQgqFgwG5vVBPIIoMdARXuggaB2HCd4B7Dp4FFGR/OeBMFuM8HUdMTvxFiMCH0KK0O2HBptqw4iXQZQWwkCYUDkMlLn0zqQEpzBrpx/6fiMac5k0qD51nwQqXCSaLU2AaRV8y9ygyypxpV+f8PWLltU3nG3QYAThG6zVN1voCUnL7gOkK+DgME2qxHki84IAQC1Oh5qbTwzNuQSHgTaShA0+mQY6g9Co42HloILRbAEY6ToHH6seTMQmaCcH/TPam5i2g2KBULpx/3IS6sXz78+gpebDy1CEOAEIUIWIpqGUTLz2ZmCLN5pMddPJjU3XcDIroAuWmpNHLMP4BJ+BJofMVgtDbCaGhQjRYeQ+pvdPLrJEYNz3G0mCOE8Zgj/UnV4i+amo7BLVsQn+Q5RLYqqgSu/uX57hw+Ed9CtEeAEoVsvX2QNfuwpL+VaTHUv2Sz1c8iokNwR1RS8SBMfWQON0tF0ZyPFQEvSFoLAgibZzd30mCEQEsF/T8a9xsYjiEvMYUcQniIDt5Yunv9M8K3xkrGIACcIsbjqHTDnkVMfeNxiqrudmiYDuPCcATv88EWHy5rofO9wP6TPAwkZi9HZrSSzfxL7S2e5vhIrBWossr/nBMG9Ph1xzEBGgoLK4TbpyL/hETjClW1KcZ1V9iwzaHTElVACTzuMHCVnnA3mhuGIx+H0tlCMI8MllKgqngX28vq9/Lx68fxp4eqDtxOdCARxhY3OifNZhQeBQRNuHi4KquWyLCfqE7LaZFMg0A2f3MNUIgQ1eSg4Xqvotcg+7yhh8f1tdsh2OySrDaC/Nhtkextc4DpqcCG2ywmCN0FQ65LaFkiL3BbVaghqESL9dRACcqEFvXYFmApxgdpUTSbPTOaeybwlHK+Ziy8RCtqnMhFe5/cKuSDyS9xCLQrQ69SI04vQaVVQi01ITs6AXq9CnF6NOJ0aE8fmLMxOizPJIpJFGcmji4tnCwK5Z3DhCCgIcILAd0KbEFi9Zs01JaNHv0KVhoy/dZIsCL9o4lJESo7UmtBFVtTQxZf+krcCxS7oOALQpkl5FGbuaSYz7CYLJIsl1Ga6pB4nCG7YKViW3WqERucznxcrSCRA1GvZXhTVKvY3WiQ3Q4eCnDj0ydVj4rDABqgaqb56RMWsZMjCWcKpDV9GCw58Hu1DgBOE9uEXU7VXr149GqKqVIDwr4uvf3eJqNK+GJeQ48dUWoAqXg9Rq1GIAT2FdTNh2gWzBXazhf2NdOEEwXuFWOrnOO/tyYgqBV/SaiHqQsuKGOn7oPn4emXrMWlkGsYP9p8dmhGEw7OU4BiGRp1wLiJ/w3e3heiG4+UEoRsuWlcNefWatSsAjKP+/71o62L8unzGnwm90CS6DaBIKyDG6aHW65m2IFrEbjTBZjBCpuOICBVOELwXxmpugEoTp0TW1GigToiDSucM1xyhi9iBwxrVPxmXzezhswcvggCpRDjVUNqBQ+FNdxMEOEHoJgvV1cNcVbrmBUEQmO/00tWHv9v1729Ovqjyd5RpM/BqzlTU6ZOgjtMzckC2BdEqtiYD7EQUItBWgRME713nPGbQp2RCk0pHDdG7L4P9vY0bkooLT2yZD40ThGARjK1y/BcTW+sd0mxL1627WJbkd6jyzr2165Y9/ekoIgdO+SlrFL7pN9UjS2BI3XSbSpLNDmtNHTNwjCThBKHlaghaFXTp3SOsdGftpRnjMzFjfJZXd5wgdBb63asfThC613p1+mjXrVs3wCbJawAk1Dda9n5217t9LjrqJgfr04rwzqDTO31cXd2hZLXCWl3nne2wiwfFCYL3Augy0iBoosfwMJzb69bzC0G2CU7hBCGc6EZPW5wgRM9adshMVq9Z9yMgT5NlWL7+v3elGbt+cV1VyhNy8OKw82Ej98QYFDJctNTURczMOUFwL4U+O4O5JnLxjQB5Npw7LZcTBL5BWkWAEwS+QfwisHrz5jyYLGsAObf0qf8cHFn6oytuq0Gtx4vDzsORZlbisQanraEJZJcQCcIJgrIK2oxU5krLpXUEPLUIXIPAd4svBDhB4PuiVQRKS9fNLnvz06fzfvim0FnQqNLj/f4zsSXN9VHMoihb7TBXVUfE/DlBALSpyRD13mGFI2JxInAQnloEThAicIEiYEicIETAIkTyEBaMmvOv8cayq5xj/DO9CF/0mYY6XSJOHJ8LvS42jxcIj//+eoDBYjh6CLbGhi5fRkqKRcIiUkaZUOIpjdZ/0COari41A7o0d9yDof1SUdgjIcqQCH46KzZW4mi1udUKTi0CJwjB4xpLJTlBiKXVbuNclw8Ye4IkCN+rIYmyIODzPlOxLHcUa6WwRyJevpuFRIhZefSNjfi19AishiYYKxSy0JUSywRBpdUhIa8A8HCx/dc941GQG7sE4aeVh/HkW5tb3ZLnTs3DxOGp4IGSuvKXG7l9c4IQuWvT5SMbPe2x03oZD315Tf06vD70HFTEe7uLDS9KhVodu4Zga7e6jxaaDpbBbjZ16ZrFMkGIy86DJsFbw5CVpkPPnNglCOu2VQfM+UTkgEgCD7XcpT/diO2cE4SIXZquH9ioaQ+vgCiMS8jt2a3i1NutZsg2Uq1S8h0NRJVGSQrVgWKpq4Wp+kgH9hC46VglCEQMiCBwaTsC2alqnD4uBYOLsn4cN3b0dJ6sqe0YRnMNThCieXWbze3LL78sgKi63/Pj00+dNdcfBCOOf8gUl5Wla/5kFgmQ2a0mGCq3wVy3H1ZjLWymOthMyl9fIqp1iEvrDV1Kb+hTeyMha0BYp0FBkxrL94CSPXWVxCpBSMgvgErn9unvKvzb0q/d3AhzwyFINhMkqxG0n2XJBpWGQpTrWYhotT4ZumTfoZHb0ldrZSk7ZMPenZS56uw/f/7HJ+Fql7cTHQhwghAd6xjULBwEYZ+rsIBfTp8163hflUdPe/QyMU73pj7L7SsdVCcdWMhcfxDG6l1oqtwBw9Gtrp4oNbRWq4OatAWiAEmSYbfbYLFY2F9fok3KRWL2ECTmDg/bRdhYcRBWQ2MHItB607FIENT6eMTn9ewyzIPt2NJYAUPlDpjry2GsLYe16QhUKhU0Gi3UlE1SFGG322G1WmGxuA0LBVEDXUpPxKX2RHzmAMRnDgy2y6DKZaXooDUeQWZa/PuXnjf81bSkpD/69+/fumVjUC3zQtGAACcI0bCKQc6hLQRh5PEPLY7LyTlZHdf1Z7im+gOo3b0EDYfWs5nShTU1NR1JSclISEiCXu//6dFms6KpqQlNTQ2oq6uFwdDkjZagQlrhJKT2mQS1LiVIJH0Xs9TXwFR1tF1ttKdyLBIEfUY2tMn+sxS2B8/21rUaq1FfXgpj1U4Ya/ZAr49DSkoqEhNp3yYwcuBLZFmG0Whke7ahoR51dTWQHJopbUImIwnJPUvCQmz75MbhpnP7KMOQsbZkTPHo9s6b148eBDhBiJ61DDiTthCEMTOfqorLye/SIPay3Yrq3UtQs2cJ6HV8fAKys3ORkeEdRz7gxD0KGI0GVFYexdGjh73CJGsTc5BXfDHob6giWcxoPOBW0ITaTqj1Yo0gCKKIxJ6FEZdKnDRd9eWrUH9gNSSbme3XzMxsJCa27qbpb92JMFRXV+Lo0Qo0Nbk1VCm9xiOl4Jh2EQVPgiAIuH9McfF9oe4/Xi/6EOAEIfrW1O+M2kIQxs35p6xNbt8TdXugJZVsxfr/gLQH9KTVo0cvn8Qgv0cO+vTpidzcLKSkJEGr04JMtw1GE2qqa3HwQAV27tyH+npv1T+pcg8fPoAjRw57DbPXhOuhTy0Ieehkh0B5GrpCYo0gqBOSEB9hxol1ZctRuf07ZleQnp6JvLyeLTRcer0O/Qf0QY8eucjITENCQjw7GqM9WV/fhCMVldi79wD27S1vsY1qaqpw8GA5TCaj67usIXOQ2vuYkLaclwZBJY4pGTmS8q5w4QgwBDhBiKGNECxBGH3CE5Pje+T/2lWx7IkcHFr7LugvPX316tWHHSs4pU9hLxx33FiUjBuJbIq5H4Ts2L4Hf/y+Fkt+/gONje7QyKTC3b9/L0iz4JScEechuceYIFptWcRUWQFLQ9fkZ4g1ghBJxwuWpkpU7/iOHYORLUxBQR+keQRtEgQB006YiAkTR2P4iODsCOpqG1BaugG//boamzdt99ps5eX7UFFxyPVZWt+pyBw4s8171pMglIwu5veDNiMY3RX4hoju9fWanSdBMJvNkCX7ij/Xr7/AWWjz9u29Nm3duj+pz3lP6dML53QFNJ7koGfP3sjJcbuvFfYtwJyzpmPceCVYUyhis9nx9X9/wscffcuMGElIhbt3705UV1e5mswbfRkSc4a0uQtrUyOMRw62uV44KsQaQUjs0RuituvDKteXr0bVju+YBw3ZFxQW9mNGs045/YwTcdrpJyA5JbQjBmpn06bt+PzT7/HnerdxLh077Nmz09WPPqUH8sdezTwhghW1SkBeXD0G59TaJLuxQpKkOx544IH3gq3Py0U3ApwgRPf6+iUI9OS8Y9s2r++/+n7J3rqG+j76tKH7U/vO7NUV0BxY+SoMVTtRWFjEVLROOfe8WTjrnLY/IfmbQ1VlLd7+98f44/d1riJlZXuZbQIJHTP0OuavgNC2+Ank5tiwz33R7kwMY4kgqLRaJPRwGNd1JsjN+qra8QOqd/7APk1LS0ffvm732cGDi3DZvLNAGq9wyQ/fL8WbbyxiHg8k9DvetWub6z191nP8tYhLDx6bZFRiXB8l6JckSRdzghCu1er+7XCC0P3XMOgZeGoQAhCEitS+M0O31gt6RN4Fa3YvQeW2b7zIQWJiAq6ffymKi9v+NB/MMD79ZDE+/OC/HiRhDzMGI0kvOgkZ/U8KphmvMo3leyFZFe1EZ0osEQRtSir06dmdCW+LvjzJQWpqGvr1cx8dnDxjCuZdcW6HjG/vnnK8+Pzb2L9f0VQ1NjZg+/bNXka3hVPvhlofnA1RqnwYJYX1nCB0yGp170Y5Qeje69em0TcnCLU1NfuOHjnytrORr75f8hemQUgZZkzMnRLXpsaDLKxOjPdZkiy/y1e8gh55Och2GJ5lZafjjjv/il69OjZK3o//W4ZXX/nANa7du7ejpqaaaQ9Ii9BWo0Xj0cOwNioX3M6UWCII8bk9oY7zvZc6A3NPchAfn4hBg4aC7AxIzj7nFJxz3ikdOgyDwYjHHnkF27buYv3QfqV96xS1PhWFU+8KagwZ8gEUFyruv801CF9++eUkWRSzzzj11E+DaowXiioEOEGIquVsfTKBjBSLho/ZBsgD9CnDTfGp44I/yGwDhtrMNJ+lK7d+BbF+K/r06ce+T05OxD33z+9wcuAczA/f/YbXX/uQvSX17datG2AymZgdAtkjtEW6Kh5CNBIETUIyg95Qc8CVzZElZurRuy1LEtaynuSASMHgwSMQF6fw6TlnnYzzLjgtrP35a4xIwv33Po+9e/azIocOHcDBg8prkvisQehRMi/gWLLlvRhRqGi8fBEEiKrfZFm46ozTTnktYGO8QFQhwAlCVC1n65MJliDEpY2oS+k7PTj9ZBjwI5ewg388j0H9+7pSFd/9f9dhxMjBAVu3Wm3YuGEndu/aD5Wa3CFJ2yBg86bNyM5JR1FRb/QfEJzb4ocffIVPP/mO9VlfX4sdOxSDsIJjb4QuOfhofXaTCU2HygKOPdwFopIgJCYhLisPVdtKXQRBl5oOXZrbPiXcOLbWXmPFJhxa829XkYKCQmRlKadxk6eMxfU3XhrUcHbt3I+tW/fgQHkFikeT0a2Mmuoa1NTUoE+ffAwdXoREP9o2zw4OHDiMu+98CkaDkihs27ZN7MjBKamFxyFr0KxWx5Qn78TQQiVEuD+CIADrTjt1VnFQk+OFogYBThCiZikDTyRYgkAahISMCR2iQdCkKU+EnlJX9jvim/50xTk4/4LTMPusk1udkMFgwvp1u5jrovMJavCQAZg6bSKrt/D1D2AyKRFjTzxpMnr0zMLoMYHdyx556CWsX7eF1du3bzcqK48gvd80ZAyYERhgZwlZRv3eHcGXD1PJWCEIztwLtoYm2Jrc7qkqve/IhMHCazd5243oc4mEuC+RlC/hwMpXQMdhJElJKRgwQCGx2dmZePKZu6APMIb1a3fAYpHx7jvutAeXX3kBdDod1q/biGVLV7P2UlKTMWPm8ejfPw901Naa/PbrKrz4vEJaiBwQSfCUHmMv9xuimYxqewo7MbhQqeGPINB3p586i98vgt1MUVKOL3iULGQw02gTQcia2DEEoZmrl2S3oHLtqygqyGdT6FfUG488dlur09m4YQckSQudTotDh47gs0++YeV9EQQKRHPe+Wew7+tq61A0IB/p6S1JirPDsn0Hcdutj7C35Aq6ceNaaBKy0HvyrRCE4FNbU0RFiqzYmRKtBEGfkYvqHWuYBkHj0CgQrk6CoIoPr7mM3aAEIWpOEI5u+Qq1e39zLWn//oOR7AgmdvOt83DMBP9Rim02CatXbUVamnLE9u03P2HPbkXL5IsgnHDSZAwc2I8ZHtbX12Dc+KGtbqXnnlmI35crMY52794BCqjkFH1aoeKR40Mod0ifuIOcIHTmD7Ub9cUJQjdarPYO1UkQKDEM/RNEYVV2RoZLJ3rRlX9l5vypWSOyewydkejZX0V1x1jlV+/6CUmWHS7twa23XYlx40f6neryZWvx4QeLMXrMcBwzQQlm9MvPv2PTpm0+CcKMU6ahb1/liGHRh1/BZrPgqr+ei/x8/xbwb7/1KYuVQOLUIuQVX4TEXP/jaj7grgiYFI0EgXBV5mWHSq0HaQ9EPzkM2vv7aK1+05HNOFj6lqsI5QEZMEDxrBk+YhD+cc/1fquTtuuVlz/E4UNVjAyQHD1ajUUffsleNycIvXrl47QzprPvKEDSkp+X4+SZk3DKrMl++9i39wBu/9uj7HtfWgTSgJEmLD1Zg7QkjasdS30teiQ3oGeOWKVRC41JycnvDhoyRPHbJFJdU9PXaDQthIC1p8+axfM0dOQmi8C2OUGIwEXpqCE5CYJGo0ZWVvAuYjV1Ztz11KqwDEuX5Y58SEGRDq58FSOGKU9HdCN/9Inb/fazds0WvLXwc9f3F1x4JtLSU2FoMuDr//6I4jHDUVSk+H//+ssfMJssOOnkKez9n+s3Y+lvK9nrtLQk3HLbXCQn+05EVXm0Gtf99R6vi21yz3HIGX520BiYa6thrqkMunw4CkYrQbBaGpj2QJeeBV2K8gRuqWuAZFTO3X0J5WkIJP5Sc1NdXbMInQdWvcayMTqFjGmdOUFuu+MqlIwd4be7l154H9u3KTk6RowcgkmTx7HXy5auQmNjI048aQqLFHr40BEsW7oSx04ah9y8bNhsNrz3zqdoclzE6CYAACAASURBVByjnDF7Kqad4D+k8oJnF2L5MkWLsGXLRhg8MotSuvOe46/B0CH9cf2c4A08zSbjuqrqmlGcIATaTdH5PScI0bmuPmcVKkHYub8Bz73nHeo1VNjU8W7XtMPrP4DWXO7yXLhs7tmY6Tv7NKqq6lFxqA4//PAbdu9SLrZFRYWYPuM4x1AEpo51eJp5DY8iJr791seuyImjx4zAgAF9MOFY/2rbZ59+3RVEaePGdZA1KeyYIVihcMukRehMiUaCQORArYmHOi4JCR5pnW2OY4COwlftcWxRf2ANKv78j1dXo0aNZTf17Ox0vPDyA36H8cfyzSgrO4hVK9fBYlFydJxz3qnIysp07FdBMXOQwfauLLub+n15Kdau2cA+yMvPwew5M6FW2dGvv2+D2bVrNuGxR/7Jyjf3aKDPUgomYuLJF3KC0FGbJgrb5QQhChfV35RCJQirttThvR/CGz7Y6SrmGTHxpVceRKYfN8hlSzcgM1OxXKezW7rg9ivqgzEl7ic3ura6N7T7nd1mw+LFS6DValAydiTS0pT0wCZzE0aOLPIJl6fhV1mZEjyJCEKw2R5tTY0wdHLI5WgjCMp8JIiiBgm5PaGKi4csS+xm2lHCYhk0Y5n7l78AU53bfdDTOPGUWcfj0rm+NUtl+4/A2KREPDQaTWzPktcBHR8kJnjEcPBFEARgy6YdWLliLcaOK8aQof1ZO1VV1ZjYCrGdd9ntaGo0sKyPW7du9IJJUGlRcOx8vHynolULRrgGIRiUorcMJwjRu7YtZhYqQfhuRSW+XXE0bEh5+pEPH17M4tYXFOQzK3BfQmGRP/v0Z0ye0lK9Sk9czuu5DBkCBHb/8NzY9Npmt3slfKJ+Vq1ci4sv8R3QpramHldfqYynquoo9u7dxY4Y6KghGLGbDGg61DIbXzB1Qy0TbQTBZmmEWpsIbXIa9I4U33aTGdbajgtCpc1Ig6hRu5aAki8dXuedmiAvrwfy85Xwybf//WqMKRnuc8m++vJXaDQ6FBa63WwpY6NGq4UgE88JzHQkSWaZHp2ycsU6jB03EIMG9/XZ59NPvg4qQ7J27UrySvAql9Z3Gt596eagtxgnCEFDFZUFOUGIymX1PalQCcIHPxzCii217UZKluyo2v4NavYoluAqlRqjRpWw18dPOwZ/vfZin3389OMKfPHZT0wDQE9TI0f5D7vseBhztSPJMkSPJ0I6z6UnOWd2vLv/72oWL8GX3HDtPThypBoGQxO2bNnAyEGwdgh2ixlNB5SjkM6SaCIIViIHmniotHp2tCColJu2ZLOT1WKHQSqoVBBUbvsFinlAsQ88pW/f/q5Mjf967RGk+nDdpfJ33fEcmpqM6Nu3N8aOG8VSO3uK9171pLXNdzFYxETat/X1DZgwcRTOv9B3XpLPP/seH7ynGD+SBoE0CZ6i1iXh6RdfRVFPLxtkv3hygtBhW61bNMwJQrdYpvAMMlSC8NKnZdhRroRiDVUaD/+J2n1LYaze62oiIYFC1A5j7y+6+EycfuaJPpt/9ZVF2LTRnQCJkuBMPWGSj7K0nenm4djWzVQJZIvw1sKPmPGXUy648BQcM9G3d8LDD77IsudRBsj161ex44Vg7RBkuw0NZbtDhSuketFCECTZzg7jRVENfVYutIn+3VJDAirISpLVgF3/u69FadqztHcpT8gbbz3us7X9+w/jqcff9PruoovnsPgGnuKpAfM3rLVrN+L3ZUp8BBIitERsfcmqlevx1BNKwEPK9EgZH5vLw8+8hlGDc4NCgROEoGCK2kKcIETt0racWKgEwW4V+44fP3JPe6AqGnHOEmPt1ik2c41rz3kmuLnxpstw7CRFm9BcXn/tM9TVuqPDDRrcX/FWaPmg5ThicKpuWxZYtmwVaqrd2pCRowbixJPG++z3pRfexq+/KJ4Pa9asYEZlQdshdEGwJCIIkl3x4e/OQqun0SRCk5CEOEdejq6Yj7F6F8pX/KtF18OGFbPARr379MATT93pc2hr12wDab6cQtqv6Scfr9hPNL/qNrdOdFRyFqVYH6Wr13v1c/38C6HTuo9CnF/u3lWGO+94gr09cGAfDh8+1GJ8l19/J+bMUgKKBRJOEAIhFN3fc4IQ3evrNbvQCIL8R8no0RPCAdOwCX+b3VSz6S1DzQb2GEVuYs7cC3f94zqMHOU7tPKGP/dBqw0cJU/xYnBuacfl1QeJ8JxLdVW1X28Gys1AORpISINAmoRg7RBkG2kQwuP5EQ7su2MbCfm9odL7dkXtjPn4IwgjR46BWq3BkKFFuPf+m3wOZdXKLUhOVoxhO0Jy85OR4sNN90hFJW64TtF6+PJkoM8HDivBM0/eG9SwOEEICqaoLcQJQtQubcuJMYKgUv2fXqtNT8/InBPM1GXIp4wdPfrbYMoGW2ZQyeU/GWo2TU3UmV0E4c67r8UoPymdAxMEhQUwdS0NwuEu5svlsfkYWyUIr/4HP3y/1IsgBGuHYK7bhZqdnwULCS/nA4H0AedBm6QYA3aFBCIIg4cU4b4H2kMQlH2rXITJuDaw0aITh7weKUhOapnNsqKiEjcGIAjUxi233oQTTjwhIKycIASEKKoLcIIQ1cvrf3Kla9Z9LEM+y18JAcJvkIVHxowZubgjIBpz0hPniMbSS7KS7adS+zfceCkmTRnrs6uXX/wQVZV1ru+GDhuIoUMHON673RgYQSD7MrrOelxrPbW6P/zwK2qq3W2NnzAC00/2HXyG4tuTuyPJroPqf8qApEnMSk8rmqCEw2tFGsqXoqnij0DF+PetINDlBKH24Pq63SuWNx9iUb79DFEU83sV5OMpP543dMTw3y9/cVXVaDWYPZvyeXi43Th3MHlWSr5UXcrOpTgKf/xe6mqLiO8dd18OjVrVAr1dO/fhrr8/yT5vaDK8dagmwe+Z09yLpo846YSSEaKIJH/LYDA0PVJbW8fceXguhtj7uXKCEHtr7prx72vXKmEHm4keqC0uLm6/20IAbGfNOmeMLMvM+uqCC0/HmXOU8LLNZeHrn2L9um2uj4eNGIQpxx3Twh/el8ujZ1sWsxX/+eAzNDa6E/xc9JdTMW68bze1B+9/Hhs3bCc3yqqvv/7YlT5w0mUffATI5/i9qB5di/qyH2N4Z4Vn6l1NEJa+daHP6+PMmWcvFwRMiI+Pw5tvKzfj5nLgQAWeeHSh62OKXnreBacjOdltpOgyPfDiBi2NFDas34rffnOTzby8LPz97it89rvij7V45qk32HeCgAu+/vpj7whPbVyaL7/8chKlewZQdvqps4IPwdjGfnjxyESAE4TIXJeYGNWJJ56TotXKjIhMPm4srr/Bd6rcX5asxqcf/4CUlCTmLjZgYL9m+CgXVTdB8H4aI7sEsk8gIb9wchcrXf0ne3/v/dciPcN3Zutrr/4HqqpoeMKqb75Z5BUAYdJl7/vUB1vr926t2vHxoJhYwA6eJBEEf6LSp25WaZKOdMgQBKxc+uaFd/hre9ass9+VZVxE37/8ykPIyPRta3DP3S+irq4BQ4YOwLjxxSBC4VOY840MCvHs3KfNjRn37Stn+5ZsDCZPGYOzz/VNpj/5+Ft89J+vHd3IY7/55hO3+0MIYDkJgizg0TNmzfIdqCSEdnmV7oEAJwjdY52idpSnnHI2WfL1z8/PwbPP/5/PedbXN+LLz39j5MApdKOnhFOeF1JPDYL3Q5kMi9XG4ih4ysYNm3HWOb7PYSsrq3HdNUo+BkB+45tvPmnxyDbpsvcpOw47nxAE1EOSnj+85plzZMC3D5qMzs8B3d13jgAlhGAzkWWcv2vjmg+7YnozZ559hyDgMer75luvwDET3PvSczzfL/4Dvft4P3QbjCbExemV4F7NnG18OTNQRlHymHDKxg1bMaq4P/oV+Q63/MRj/0LpaiU8c0KCoFu0aFG7sqwRQRBUqtNPmzXLf5KUrlgE3menIMAJQqfAzDvxh8App5xNeti59P2CF+5hSWp8iWeoZQpyRE9TRf0Lcewkt92CP59yk8mCb7/+EaJKZIGWnJkc7XYThgwt9NnfTz/+jn/9U4mgJwjy5V9//YlbX8yXM6YRmDXr7MmyjF8JhJOmT8YVV/nWdBw5XIWaWuX+XFNTC4pRQAmZzjjzZO94CA6y4EkQ6COKf0BHBuPGj0LxaOUYrPJoJY6d7PtIjL6/5KJbYDZbiIAs/frrj/2nf4zpFeSTDxYBThCCRYqX6xAEZv1/e+cBH1dx7f/f3K3Sqjf3bmM6yDYQeg/YBkIzKRCKgbw8QjAkL38gL8WElwQIIfQkFJsQiJPYdLCDIUASOja2Mc3dltV72b733vl/Zu7uaiXtSlul1erMB7Ft6nfWO2fOnDln8cXf4ByrROWXfvtrOO9rZ0Ztx+n0YNfOJqxb+0801Bua5QMPmo3Twg6TogVrMn55NU3H039eE7Y9ECpfEaJ3MJ/2d/76D/h4o+HLXlUDU9evf6HXGX9GSFClo4nAokVLWgBeUVJShD8+9quYXf/gvc/x5Zd78PFG40hLpG9degFKSosh3ShLr43S77LUKuihmziA9H0gBASRSkuL8c1LL4A9n2Ha1OhOjj54fzPuufuxUDM/Xbt2zf+NJqbU1+wjQAJC9s3JmOrRwoULbYw5OgDkTZ4yHr/93U9ijv+LL3bjDw8ZWmVxvHDZ5RdJb3binPeZ1a/g2OPm46CDDY30+lffgtfrw3lfO0u+/uLzHXjzjXfk8ylTxuOGm74NaxRHM+JzYWD2g2W3B/vBXl+7dnV0qWVMzRQNNpLAokUXi7CJ3xXvLbvpKhx3/PyYgB5/9Fl8ssUwshXBxY75yjz5/K0330VnR6cM3iTcjtfur5fvnXzqsZgyZZLM8/RTz6IrGHtCuFcWbpZjpd/c+Uds+Mg4XuCcHbJu3erPadaIQCoESEBIhR6VTQuBRYsufgjAdaKy62+4AifGuO4oPt/08Zd4YsVzOPor87AgGMnx9df+je3bduOggw/AqacZHuJWPLZKCginn3Ei5h5oGDU+/9w/AK7h2u9egrKy2O57H/3jKrz+miFMAOzStWtX/yUtA6VKcobAokUXHQMwebXggLkzcfsvfxBzbMLw8JHf/x01+5tw+RXG5ZeG+iY896zhXuTqa78p7Qy2bP4U77y9QR6zXXiREURsx47deO3Vf+OCi07HKafGDhS2Y/se/OTHvzW+sYy9+sorq8WdSkpEICUCJCCkhI8Kp4PAWWdddIjJxKQ+f9KkcbjnvujGiqG2du3Yj45OLwoLC7C/pg4vvfia/CiagFBUVIDLLjfC8bZ3dGD+vNmw2mJ7ZRSCxk//955QU1vXrl3TG086HYOlOnKGwMKFF7/AGM4TA/rudZfi1NMGdzj6/rufo7TMCNj04vPrUVtrhFDvLyCI904+5VgIfx9CyAUL4Igjotpqhlne8avfY9PHRlApzvl569Y981LOgKaBjBgBEhBGDD01HElg0aKLHwTwPfGesEMQ9ghDpQ8/+BwfffAJtm83wkREExDE+2edfRKmTp2AQw+PHiI3sh2xCxO7MZF0Hd/8xz9Su0c+1Bjo89FLIFKLIATRu357q7QVGCxt27YPHe1urHr6+XC2aAJCeXkJzjzrJBx+xEw4HDGuRwZrWP/q23j80bC7g3Vr166JHsN89KKmno8QARIQRgg8NduXwOLFi0s5zxNboAnikxt/sBTHHmec1Q6Vdu6owe5dtdC5gpLiYmnsVVdXi8qqMsyZMw3jJ4R9HA1a1YrHV+PVdWHvd39fu3ZN7Iv4Q3WKPh8TBBYtuugugP1IDHb+gsPw/26JfsO1P4ymxjZs374XdbVNmDFjhvR/4PX54HY7MX36BBnnIZ4UebQg8nPO561b94xh2UiJCKRIgASEFAFS8fQRWLhwycWM8dWiRpNJwc+W34gDDxp615+OHjz/3HqsevrFUFW1ZrNlwYsvrmpKR91UR24TWLToYmGwIo1fvnrWSbj62kuGZcDNzW24/bYHpPMkQzjA/6xbt8YwRKBEBNJAgASENECkKtJHYNGii0UoOhlqTnie+9HN38HBhwx+/ppq6y88vx5/eSosHEBRcMbLL68hX8mpgh0j5Rct+voBgCbcEUsnHgsXnYIrlxp2L5lK4qrv3b95BLX7G0NNrFy7ds3STLVH9Y5NAiQgjM15z+pRR9ojiI5+f9kVOOHE6IGcUh3In554FmtffiOiGrq1kCrTsVh+0aILTwKUVwHYxfiPO34Brrv+MogYDOlOn27dBhFIrKOjW1bNGF585ZU1QxvtpLsjVF/OEyABIeeneHQOcOHCi+9nDN8P9V7syi67/HyYzen5wd2zZz+efOJZfP5Zr/djznHZunVrDPeJlIhAggQWL77wVM6VZ4RfI1FU+PW44sqLcfgR6QvN8ewzr+JvqyIvKLBn1q5dnVl1RYIcKHvuECABIXfmMudGsnjxRf/LOQt7gyuvKMUFF56FM796QtJjFaGeX37pn3j5pV6tAWOo13VctW7dmvVJV0wFiQCARYuWHAbwPwGoDgE55dSv4JxzT8eUqdL+Nqn03rsf44Xn1mPPntrI8vevXbtmWVIVUiEiEAcBEhDigERZRo7AwoUXncsYuw9AOGhCWXmJdKa04KjDccAB0WMpRPbY7/djy+YvIVzR/uffH/YZDGNYo6r6Da+++mzDyI2SWs4lAkuWLDE5nfoDjLH/jhzXgqMOw1eOnYcjqw+SPjyGSjX76rFhw1bpPKl2f5+vZzvnuGndujVPDlUHfU4EUiFAAkIq9KjssBA45ZRT7Pn5lb8AuLxOFpmEIeP0GVPkVcbiokLYbFZ5Zczt8UBoC4Tb5D27o4VR4MIx06/Wrn1GxoGgRATSTWDRoiXCRfdPAH5S/7qnTJ0onYKJUNGO/HwZkyEQUCEilzY1tqJmXx06gy6WI8syxh9UFOttL720yri6QIkIZJAACQgZhEtVp5fAokUXTgMU4ZL5CgDjkqz9NYA9Qe6Tk6RHxRImcM45lyzSdf1qABcmXNgoUMcYngL0R1555dndSdZBxYhAwgRIQEgYGRXIBgKLF190lq6zMxjDMQAODRmG9eubD8A2zrFJhL9VVfOr69f/laIyZsMEjsE+nHXWkjKTCWcHNQrzOceBjGHAWQPnqGcMnzKGDxjDGy+/vOatMYiLhpwFBEhAyIJJoC6kTuD8888v8XgsFWazYtc0PaDrasf69c8ZcaEpEYEsJSCEBotFL+dct3HOehwOU/Pq1as9Wdpd6tYYI0ACwhibcBouESACRIAIEIF4CJCAEA8lykMEiAARIAJEYIwRIAFhjE04DZcIEAEiQASIQDwESECIhxLlIQJEgAgQASIwxgiQgDDGJpyGSwSIABEgAkQgHgIkIMRDifIQASJABIgAERhjBEhAGGMTTsMlAkSACBABIhAPARIQ4qFEeYgAESACRIAIjDECJCCMsQmn4RIBIkAEiAARiIcACQjxUKI8RIAIEAEiQATGGAESEMbYhNNwiQARIAJEgAjEQ4AEhHgoUR4iQASIABEgAmOMAAkIY2zCabhEgAgQASJABOIhQAJCPJQoDxEgAkSACBCBMUaABIQxNuE0XCJABIgAESAC8RAgASEeSpSHCBABIkAEiMAYI0ACwhibcBouESACRIAIEIF4CJCAEA8lykMEiAARIAJEYIwRIAFhjE04DZcIEAEiQASIQDwESECIhxLlIQJEgAgQASIwxgiQgDDGJpyGSwSIABEgAkQgHgIkIMRDifIQgVFKgHOeDyAPQORjrOehfKYkhusG4AEw1GM4D2MskEQ7VIQIEIFhIkACwjCBpmaIQLoJcM7HA5jS729yv9fpbjad9QkBIZpQId5rAlALoA5AK4A2AO3ir7W1VdtfV3fCvCOPXJHOzlBdRIAI9CVAAgJ9I4hAFhPgnM8GsADAEcGFP1IAsGRx1zPWtc+/3PaOx+M5HsBbJoYLqqurOzPWGFVMBMYwARIQxvDk09CziwDnfFpQGBACQeivJLt6ObK92bZ9xxanyyWEJZH+tGBe9ZUj2yNqnQjkLgESEHJ3bmlkWUyAcz4xijBQmcVdHvGu1Tc0oqGxMdQPEg5GfEaoA7lOgASEXJ9hGl/WEOCcnw5gcfDvgKzp2CjoSFt7O/buq5E9zctz6CUTJt88qST/7lHQdeoiERi1BEhAGLVTRx3PdgKc8woA5wA4G8CZAMqyvc/Z2L9I4cBmtyNQMA5gCsrzrR9OK88/Jhv7TH0iArlAgASEXJhFGkPWEOCci/NxIQycEfxL5spg2sbDOZd1hR7lc+ON3kfjDfEWIH4RuHw14FF+Lv7HWN/yEfWLdoIfh/P074N8HaUO2adg2wxM9sHvD6C1tQWapkEIB7xoPFTe+7PlsJq9+RbTtVPK8p5KGzSqiAgQAUmABAT6IhCBFAlwzqcDWALgIgDDsqMVC6aqanLhVDXjUdN16JouHzVNha4bwkG2JEN4YNB1PSy0SJmEc8h3dB1y7de58cgBp7NH5jeZTLBWTIFPj/6TVe6wrZ9WlndWtoyV+kEEcoEACQi5MIs0hhEhwDlfFBQMhHDgyEQnAgEVfr8f/kAA4rmqqlIAiNQIDNauEBI4N/LrcnvOwaXgIF4b74vX4jOxTHNdrNO9C7ihWTDyhOoQ9cm9hSgfehRVs2DdTJGfhbQUUhvADGFFPDf+Ez89DExhUpnAoBiPoc/Ek2ASwoGtfCK83Dwo4kKbuavAZv7mhGL7ukzMBdVJBMYaARIQxtqM03hTIhChLRBCwVEpVdavsBACDGFARSD4PHhCEN5x61JTILQGuvGn64YmQWoPVHBNg65r8tFYbMU6bPwzNxZn4xxBvKUoJihKcKFm4j2Rw1iljXJi+ReLe/BcQggK4fODvscW6eQg6rJZbfD5fVJzkF85CS4tvpMaMZyyfOvfppblfyPdfaL6iMBYI0ACwlibcRpvUgQampquG19VJQSCtGkLxI7c4/XC4/XB6/XJYwKu6/D5/HJx9Pt8UlCQxwditx7c2RsDYFDMZjCTCYyJRzOYeK2YjOcmM/J1D3wetxQCxFIvZQHxqCjBx6DgID7god28Im0TFGYIBsbOXr4TlDb6PxqChdQkhH5NmKhDtmjYOQj5QmgVpK2CIZwYOgqAdzWCl0wKfmbYRwhBh3U1GHYHNjsCRRMSnrMiu7mpwKqcP744//2EC1MBIkAEgr8yBIIIEIGoBDbt6SgpL7He0+PVv+5srsk//ICZsNvtKdESWgIhDHh9hlAgksvtgsftgdfrkQKBSCaLFSZrHpjVHl7wFSUoEAgBQBl6R+3QetDT3grHxNnwBLSU+p2pwnrrXuSPmw5vv+4VaG50twtvy0BR1UQ4uS3hLpgVhhKH9Q9TS/L+O+HCVIAIEAEyUqTvABHoT0AIBoUO6wpnQD1X142Db131Iz/QhYPmCM/HiSWvzw+PxwPxKASAgKrC43HD6/bA7XHLs31LngOmvEIo1nyYbHlgcpefWsrTPXC1NaJ4wnT0qNmpLNS7GlBUVgVnlCMEu6sZbrdLHjMo5VOgRdxeSIRMkd2yu7LQdHax3b4jkXKUlwiMdQLZ+asx1meFxj8iBIRgUOCwPuoKqOeHBIPIjvCeVhw8Y1JcWgRDCPDC7fFKuwKR3C4XnC4nXC4XTGYzTDYHlPxCWB3F8l5/upOFB+BrrUXJuEno1q3prj4t9TmUABDww2UaaONpYyo8zftlO4UlZXBZipNu02ZWeEme9TeTSuw3J10JFSQCY4wACQhjbMJpuAMJGIKB5Y+ugHZhNMEgVILrGqyeNhw6d05UjOL83O32SLsC8SiS0BgIgcDpdkMN+GHJL4K5oARme0HYeDBTcyL6y9tqUFJeiW6lIFPNpFRvvglwNdeAlU+NWk+B5kR3e4v8rKBqMtw8tfhUJfmWT2aU5Z/BGDMqpUQEiEBMAiQg0JdjTBPY0+b8XZdH+57O41t51K4WzJlciZLi3t2sz++XmgKhMRDXEEUSRwjdLjc8zh55ZGB2FMOSXwxmTm2BS3Sy9JY9KCwshsuenU4chZ2Av2k37ONnwq9F8dvAdZi6GhAQwpXFCi1o0Jgoh8j8dospUGK33jaxxPbLVOqhskQg1wmQgDDMM/z5zs3tJgaucfRwoN1d5FgDTa8tsVv3TWGmWi94e0nJtI5h7taYa662w31jp0f9uV/TE4qWKHblwsK++rBD4HS54XK75a0DkYTVvdAW9DidUnNgcRTD7CiCOa9wxPiaOutgMinwFyZ+E2C4Om1xt8BaWA6XFv2YxaGo6GkKHjWUVsBlTg/P0nzLe9PL8s9ijPUM11ipHSIwmgiQgDDMs7V57+a7893+H4aarSgvh9U6cFfp0nW1R9O8HnCXj/Mev653+Tnaf9XS+DQHOnTwDhN4B7dZ2p0OpeO9KccZOm1KgxJo6fae0+ZRH3L71eg67SH4CWNFvbMR4yvLDdfEALweL5xuF5xOJ0xWm6EtcBSDmYZXWxCt61Z3C7wuJ0xVM8L9zbavSL7uhsIUOFnsGyJ2TyvcTmMdz6ucAh8Gd5oU7xjzLIqr3GG9parQ/mC8ZSgfERgrBEhAGIGZ3rnjY1UPqPKemt1uQ1lpady9eLC9Ff90Rd3wiPtxrQA6wNEB8AbGWC1nqGU6q9PNrFZR9bq2gKN244IFxl26MZQ453P2tXue7PIGvqIl4YJYCAZaVwvsFhOKChzSl4DH7Uanswc+r1ceHxi2BRlxqJj0TNl8XfB0tyN/wix41ZD3gaSry0jBApMOX087AvkitlX0ZFEAtbVGamny8h3wOarS2pfyfOs/p5blLWKMGeogSkSACNA1x5H4DmzetWVjvs83L9R2VWUFzOb4dkQuXcc19fvhle5uk07NHKhljH/MNbbOpihvvnL4iTl5rME5L25z+R9o7PFd6lf1hK8KPp3PQQAAIABJREFUiCMFvacNZqgocuTDbLZECAY+WAvLYC0ql74KsjGZ/C4EuppRNH4anDFU+CPdb5uJwdO4G9ZxM6EOIrwVcA+6WxtldwvLqqLefEhlLA6rqb3cYbuxosD651TqobJEIFcIkAZhBGaysWbLod1O39ZQ03l2O0pL4z8KX+/qwe/bhbIgnYm9xcFfZQr7z2uHnvROOmseqbrcPvWSFqf/gTa3P6ntptbdBvicKCst7isYeLxSKBDCwXAbHSbKkgc84J2NKK6aiJ4knA0l2l6y+VlnLezlk+EZwp9TpG8Ec8VUBFKSkwf2VniQLHNYXppamn9esmOhckQgVwiQgDBCM/n5rs0dZp8/LBWMG1cJUxze8ULd/VlzA7b6vJnpPed1UJQ3GOdvg+O19UecvCczDWWmVs65tbnHt6qxx3dhMscJ3O+GuK1QXFgAIbzJo4QecZTggSWoMVDM2elXYABRLQC9vRbF5RXoUdJj3JeJWbMHumGy2uHig3O1Kxzupr2yC/kFhfDmxT6WSKWfhTZz47gi+7VFdvPLqdRDZYnAaCZAAsIIzd7GXVvuLfT5loWadzjyUVxUFHdv9gR8+EFjfdz5k87I4GUczzKFPfvqmjeew/Llad6zJd2zqAVdXvW8um7vCqdPLU+0Zs3vhdbVhII8GwoLCnsFA48blqDGQLEk7vI30X6kNb+I4ti6FwWFRXDbE0aS1q4MVlmBokL1uuC1Du0MyaH2oKfD0KAVVE6EG5mZE7NJ4eX5lr9OKsn71rCBoIaIQBYRIAFhBCdj+/aNIixf+Fx8/Lhxweh68XXqqc52PNPTFV/mNOTi4NuEsACFP/vaYaduSEOVaa2iscvzlyan/5uJag2EnYHW1QyrwlFcWCiNDoXGwON2yet34jhB3E4YrUmo7y3yquPErB1CvhlwNu6FUjE9rj6K65sh3wh6yQRwEUwqQ6kk31Izvsj6rXyLJSeO3jKEiarNQQIkIIzgpH68Y9PmgkDgiFAXChwOFBUlpgb+bsN+NAWd8wzrUBheFcKCzaY/+9LcU9NtEJHQUJzewJn13b6nnT61MqGCwndBdxtYwIXS4iLoOkdndxdcPT2wFpXBUlAmnRyN9mTqaUbA64JSOSNrh2JSGAJNu+GYMBMeNYrDpH49z2cqnEE3zAXFZXDHoXlIdvBW8c3wdO31OTuFFLKXM9x2VHX1W8nWR+WIwGghQALCCM5UTc3WWV6nZ2dkFyZOGJ9Qjz7wuHFHqxH1bkSSsFdgyv1Op/mB944bfl8MLT3eP9R3+76j6YlF8hHHCXC2oDA/HzarFV1dnejq6oIpzwFrURXMedl1XTGVuWWuNmjubtjHz4Jfy94TIr2jHkXl4+DUh45UKXjk+zrg7O6UaBzjpsITZ7l4Wdo0b7e/p71WC/gOHlCG4wmTgpuqq6uNDlAiAjlIgASEEZ7Uz3dt7jT7/OGD18LCAhQWJOY3/7dtzXjb7RrRkTCwTzjHA68dcdJjw9GRbnfg+HZP4Ml2t39mIu2FjhPE1Trhz8AtDBA7O6GDwVJSBWtB/LdJEml3JPNydye4qwOF46bBlfhNz2HruoN7wHUd7iiBm6J1wsQ49Lb90jeCCMOdDm+RZqZpiqe71tvTZQb4pP7tcqC7kWmffKKoeR8w/3wPuJ8BPg7uB5gPHH7GWPA1RDxvP2Pwebu7zU1fbJ019ejj3mVgfi7yijIMPqbDDwU+zo06jM+5H9yoRxGfadwPhfl06H6zifm4avJzs+LTofnNXs3PrYpPQ8CvqSZfoeb02+d7fKvZJdkZ43vYvlHUUKoESEBIlWCK5Tfs3nJfkdd3Q6gaxoAJ4xPTIrSrGq5pqMHQitkUOxtXcfYW1/kDrx958rNxZU8iU4vT+8MWZ+DX3oCWkKtCcTtB725FSVEhrFYr2tvbpebAJgSD4sq0hFhOYjgZL8K9TvCeFhRVTYQzi686Okw6elrqoJRNiZtJAfOju7lO5i8orYA7STfMVs3bGehpb9ICvrn9G9cZamug7fiP4i/6nAXmx925UEau44t/vIS5Zy6GEqe/k4TbiFaAQwMLCiIwhBUhkAghBkIYEYIMh18JCTQMPq7DEEgiBBQhsEjBhfMa3axsU2zK9vWzj29OSx+pkqwmQAJCFkzPzu0fa7qqhq2shB2CsEdIJL3U040VnW2JFMlsXo5nua4/8Hr1qWk9q93X7nqxzRU4N9HOa93NsEFHcVGhjJPQ0toKTddhLR0Pc378t0cSbTcb8vOAF7yzAUVlFXCaErNxGc7+W00M3sZBAjfF6IzN1SwNSk0mE6wVk+GLU0tigqaZvd01np4uG8D7WHAGwL/cygI7P1TUafuYelgqHOo2fYTK2QfCWpi97BMeH0cnGLaB8+1cYdsY59sVruzSAr5dry84c/gspxPuOBVIhAAJCInQylDeLXu2bMnz+A4PVc8UBRPGJe7b5+bmemz3iY1CFiXGHwPHfgamc8Z0xrnwlcflI2c6U0KPTOfivWAeHeAK13XOFZ0pTM9XFPNiVnAn46xQOLMR6hJFfHvFoxguY1CEHQIDTOJ/DFCEWQIDdL9PKXY49Dy7nftV3dLV1gKYLbAVlkP4MxDlRVwF8ciYrEJUByaqE/UEHY6KT2RehPIG80SU6+2b6CMP1sWgiELBuod9doK+EAoKi+HO0qiOISZ66z4UjpsKlxb/T5OV+12B9sYGWQdTLGCIS7WuqYE+x1Mu8H9tVALdHymBua3QDkjHPDV9+SkKKqrgqEj833M62h+hOmoM4QFCeNipgO3SGN9ltU7YtW7OnCz7gRohQqOk2fj/FY6SAY3Gbjbt3j2uyxv0IRscgAgnnJ+fmAX9lz4vbm02ficpZScBIYBA10UsBy6kFyHkMF3KIRHCSaQAJPIIQSMouASfGQJMpCATymPUCW487tq2FbPnHgpN5x4NWicUkyoFHsUQfGS7QVQmIcAEywXbkyKNrM8QiozXshwPf8ZgEnmYGJvCuRyiIow6DOHKeC1ycDCTlNkUMFGJBihSihOhmkR9ChSf1wKFK2ZLvlCHB4UzcYlRimZMCH+yD6IzUgDkLE/jSlVnZ01QTuRCghOmmEy0KBkJZxCSr5BNRXkZZ0tQ/qK9sWL9/m2TPm1vgnXiRJgs6XOA5enqlHNqLxrat0N2flvT3CvOdV3X2tr37g7fNpp29Fe+Yaso3/DGYafvSnNrVF0aCJCAkAaI6aji8x2bus2BQFgHaTaZUFWV8K09PNbRhlec3eno0oA6uPhZ1XUw4fGRvjkZYZzuSpu3f4GqAw5Kd7U5U58W6I3N5G5rRVdDHSYcGr55nDPjzNaBRAhkGxnwyPrDT34kW/s6FvtFP/NZMusb9m79TZHb8z+R3RFRHkW0x0SSxjmuaahFp6YmUmzQvDygQvP7wdVeza0wtlJsFrDhNLpK24jGTkXN2z9H1QEDb+mNHQKJjbR113bYiopRWDkusYKUOy0EOMPy1w87+ba0VEaVpEyABISUEaavgh3bN2o8wrOixWJBZUXi7nH/7Xbhd23pMTLWPF7o/tjRoRWrBaY8e/ogUE1pJdD05WcYd+Ahss5vFZfBHOe/+Cc729Paj5GszOMWXjGja9XKKvreZBTXYPd//CGmLjh2JLs8ptvWdWXuP488cfuYhpAlg4/z5yJLepvj3di0c/NWh99/aOQwy0tLYUtQiyDK/6q1CR953CkRE4KBEBCGSmZHHmkShoI0Qp83f/EZqg7qFRCWxHEe/oarBw+kPVroCAEAIASEhtqB641iMmP6rIHHCfKooX4/JhxWPXKdHsstc+Vbrx1x4qqxjCBbxk4CQrbMBIAdO94v4gGlzxUhq9WCivLEtQgNagDXNdSmNLpAV09c5RWzCSZHflx5KdPwEmj8/BOMP9i4ICM0CGNVQIhFPS8/+tXD1p3bjKOGqsR8kgzv7OZmaxzs+68fftKDuTm60TUqEhCybL4+276px6IG+rhSrKgogzUJ6+rV3Z34S1dHUiPkmg7V6UJA9cFkskg788GSubAALGTunlSLVCgTBBo/+wTjDxnbAkIyXMX1h5oP3sG0Y05IpjiVSYGASdNn/KP6VCOmN6URJUACwojiH9j4O7u3/LLS6/tx5Cd2mx1lZcm5AL6xqQ77/L2W2vEOVxwvqG436pp3wmrNQ1Xp4N7t6JghXrLDm6/x080Yf+iRslHbEEJeZM+ES72xntztbejYtxuTqo8a6yiGbfyM4Zn1h5188bA1SA0NSoAEhCz8guzcsUnTA4E+W/bKygpYkrgxsMXnwfLmxoRHKW4sqC43nO4umM1m2K2De3Y0Fzpy1lVxwvCyqEDDp5sxISggZFG3Rk1Xajd9iMnVR4+a/o7ujrIPzCrOXTfvpJbRPY7c6T0JCFk4lx/v3rypwOs3tn3BZM+zo6wkOS3CQx0teN3pTHik8dogiIotxTnkRjZhUtlboGHrJjK2S2F6xI2GKfNIQEgBYXxFGRq4hsWvH3nypvgKUK7hIEACwnBQTrANzrmy44uPBriLHVdVKf3NJ5rcXMc1dfvhSVBtrHl90H1DH0+Y8mxQrOnzQJfo+Ch/bAL1n3yMiYfPI0RJEqjd+AEmzz8mydJULF4CF/C8fx2tW+oWVFdfGm8Zypd5AiQgZJ5x3C2s2fHFG6HMc7nnOJuq9vGS5MjPR3FxcoGFXnP14OEkrq4FnC5Ai30eTTcY4p7eEclYt3kDJh25YETazoVGaz56D1OPyqxPBPEjLM4TzYxBuLsW7qSNR0Q8AmaRL/Q+WG9+6aRafB4sowQfQ6+ZkVfYEMu6g22JMqF2ZNvB18ILtmjLJOsJluXBvMzopywb7KcZXOYNvSf7EaxP9FfWxRie6mzHMz0D4zh9Tc/DV3QRmJX/fMG8eb/Ihe9NroyBBIQsmsnP9u3TCpiifKZ68IW/o+ZcnU3t370J48dJ/+7JJGGLIGwSEkscutcPLYomwWS3QbGR5iAxnsObW0QSHG1GduHFUS40oUVMLDRiEeJysTFHLIK9i6uRV0S5MBa84EI1YLFlMIsFTy5qvDevyB+qN1jG29qCooqq3vcjFt2+/TTakvX1bze88PaORYwrl5IMbiFCX3Bx/0OGvJBBzXRdx1afB2/09OBddaA28lRuw1c1Yx/EwS8+at68Z3KJy2gfS459TUf3dEQKCL9zNuBhWwHnWt+wdg5HPoqLktMi7A34cVNjXXKQRLwbVYPwNKeYTGBmsd+gr09yMOMvJXeMwQVP7tBCu7rgQhl6z8yj79o6du/AuFkH9Nn1hXaqvTs+UW9wcY3YGcrFObQzDe5u5QId3iH2LoqhnW94YQY3druhhTrY39ACLhf50OIvI3PSd2mwb4WMgSqjjupy4TUWYLEgG4/iSei5yGt8ZpSRn8mHYL5g9FJZlwibKiJZBRd0I0+o7t7yuqxf1iLb6ZuYccXZCGAqw26JOFoiXtdG6HjS64o6tGrdjEv0CP8punbQggULvoz/XwflzDQB+leZacIJ1N9fQLjJlt81W+MDQsGlokV4uqsDa7o7E+hV9mQVX9Y+C1FQZdq7CwypPUPq0OAuMmInGl4U5cJl7EaFStWo13gdWgANFWyE6ja84BkqYZlXLuDGTje88EaoY43Pg4tvcMENqW1DO85oKmVaMIf3e2csenpwkTUW097FMriABhdaYwE1FtfQgmksoH0XWhlUM3JBF0J2eAE28sqok8H3RXuijCELDFiF4wJiyFlGrE1ZS3DRFtsM0baI0KJBPHIEdB0B8cg5/FyHX9PgBYdP0+HlGjy6Co+qw8M1uLkKd0CFU9fgUsVjAD2aH66ACl9QYjDGK4OUykcjdmZoLMx4zxBnUGQrwMOTFkDE5g4m34J51eSzPa5ZHr5MJCAMH+shW+ovIACs/SGzvax/wcLCAhQW9PGlNGTdkRlu2b8nrKoNq2dlWF9joet9Tyx6Sp+FUzhMMs4qI9WlobNKY8dpEnmCdYUX0YiFV+wcjXPMiHPU8IIbLBt8bbRPO8yEJjgLM0fuPuXuNmjWIhfQsHraWMSMN3p3wMZbkarr4G5ZljWey4VVrKxM1B1cpOQaHNpdR+6ig+8PBycZFNsIMi0XawZoXJeCgbFQM6jCKZlYqKHDLxZrXYNf1yF8UXjFo1iodQ1eXYNb1+FWA3DrKpyaBreqwamJxVr8qfCkMUhbpvCYFBN+PeUYTDP1mlgxYOP8edVkLJMp6EnWSwJCkuAyUWyggADcYXeohaou7HzCSdggCC0CJSIQIhB5Biz3bHJdDC2gIfV0xIIZVk8DXA/tnEO7vgh1srHRjVAvi1csuAjz4KIsV2fxn7F7DC3UyW2CMzapYlMt9+jBXbboLmccmtjJM0DVOVRu7KrFIu4Xu2mPF36LWe6w5YKtiZ21Jh/dYmetGouySwvtrgPokYt3AN2B2EHOMjbIUVDxdycfiVOtpf17+uSCedVXjILuj6kukoCQRdMdTUA41WKtuZibBhgrCjsEYY9AaXgIRFNBGwtxaAds6IaNHbBxTiz/wrvZ0K7W+MRQSQd3vsHttKHSFkrYvrvqvmfHwZ20rNdQ247OxMCEDjq4sxbn1SLpwQVblepwsVCLnXVoV23ssn3BXbVXLNpaUAUe3D2LHbZL7qz9cOkqejRjh90lPIPKfXtiyV/bDOvkqsQKZSA3Y4o0TpZ/SvC50MGFnxt2AIYBsyn8PFxOukEf/OdeUwNQVT/UgA9qIGAcmaQ5LR43F5c7Jg6olXPcfNT86rvS3BxVlyIBEhBSBJjO4tEEBFH/QzbHgKuGOadF6HO+G9yZxlAzh8435TIcNtLqq4aWC3VIvRxcqIV6Vx7wivNYedDba3BlqKpD58LGQh06k07nHGdvXcbZkqEONwzMBF+BQSzWoYVanFerQgUeOrcWi7SuwadzqQ4X59UesasWanGuwalqcGsBOHVVnl0LNXhPwA+3PsDNR1ai8dc2wTp5+LV1DkcJHIUlsOcVwGzpc9t5WDgF/D60NO2F15O4g7VYHTyoeLxnmTKhtrS0dGCIWJ3fumBB9SvDMjhqJG4CJCDEjSrzGWMJCNfnOToPCugD3CgKnwjCN0I8KXSGy7jxwx/UQQfVx72qZ+Mc11AZS2tkaREtV1hjhxf+WC4fYetnUZ94RxomBc+Le42oxbmwqE+uPFKtK+o11uvRugOOh3pyeULXWA1DM4O/oC/+xGIdWrTFYh0QqnD5KBbp4O6aaxC7a68wJut2wu+wyrNqtx6AS55hq4YaPOBHj8ijiX05pWgEhltAsNryUF45BbGiTA7nLOm6hsa6nWkREspM+Vi8pVH8Npx42223vT2c46C2kidAAkLy7BIquWHTpvPBsWywQuY8+8mljgIm/CCIa44RqeEhc96E/mVNJgWKIkz4jIU60iJarunBxXf0qqETQpy5zEHVrhSQQgs2B4RluNhZa0ycXRt/hpGZOK/WpJW4MCwTi7VHWIgHH8Xu2qUF4Jbn2cHF2m8YmYk/YaSWrhSobYYlC1Tk6RrPcNfj398E65Th0SA4CspQUTUJJnNf3yKq3weh/hf/yG2uAKzuAEx+VUrr4gYEE1K7eK5r8rXxXNyyMD6XPw/iHqtZgddhg6fIDtVulndbxRGE8KAkfkeYyQxF/PW7clq/f1tKQkKe2Y6LNzfLqSMBYbi/wam1RwJCavziLv3Rxk3LGcPPhypgt9lQk2fuLyDgVzaHWqz1NVYcqq5c/HzgNS5xni8swo3FWyzYhkW4uMYl1OE6fKFza3lmbViDe8ROWlPhFYu1fC2MzHS4/GKXHVysVWMhH80pW87QRyvDwP4mWIZBQCgtn4TS8vFhTELj5mltgb7xS7AX3kZJSQnKyythsfSxV04aa3d3N1pbW+CPFun19AVQTpuPvPKKcP3JCgnCRuKc3R6UOH0kICQ9WyNXkASEYWK/ceOmGznD7+JpzmMxt/4C7X+KzHuSyXLK12GeH0/54csjjKKM1uRxRPj8mssrXMI63LjKBakCD+2uhVpcnFuLM2tx31os2mGLcLFI66pcvJ1igVYD6A7uuIU6XAgAlOInMNwq8vh7Njpy+vc3wjqld+FOd6/Fzr1y/HQ4CnpPEH0eF9T17wPr3peRVMeNG4/CwvQHQxOaxaamRnR2xvCL8r+XwzGlN8x7fe12eN09CSE4oV3BjPre+kmDkBC+Ec9MAsIwTcFHmzadwjjejLs5jueZgs2R+Yvy9eVci61+lmfX8r+QRTiTC6q4dS1KhSzDDXW4cY1LqMPFQm08qr1q8KD6W+yuhXGZ8Wgs1vLsWg9IC3JK2U2ABITU5sdf0wjr1MwICGazFZUTpiMvr3fx9zQ3AXf8Gbrbh7y8PEycOAkWi4hTkLnU3t6OZtFulGT+7Q2wOXr7J2wS3K6B8RSilT3Ea8W8na19PiIBIXPzmImaSUDIBNUodW7atGm6xrEnleYcdiVofS8MDQ2DQV1s08VuPcZa3ax6cXv9JohHSmOPwHCeoeciXf++BlinDTD/SXmoVns+Jk46QLotF0ncoHF/8gXw++fla4fDgcmTp4Y1dCk3OEQFXV2daGjoY/ckS9i/djJMC0+Qz6eowESNY4LKUTjE3sCsmFTDnLZvsjOTe5rVsTGZ8XCGzWbgturq6tHpCjaZQY9wGRIQhnECNny8SWgEjhjGJmVTb7Xtx70fv5VQs4ojz7jyJg30jKtvQkMRejQ+E+8pxmPQW5zMG/Qe15vfcFAT+VnotdB2GPX0lgt9JjsstSLG17RPm8GPwvfyyJd/1PnNtIo8oS/VKMycCQEhL78IEybPCdNQA3743vgAeO7f8j2hOZg6dfqwCQehjnR0dMgjh/7pqod+gRMLK+Hs7s6GGdy8YF51dTZ0ZCz0gQSEYZzlROwQ0tmtz13t+PG7r8Bcmv5zzHT2czTWJYWZoCCj5NvAsiy6pX9fI6zTMqMiH43zlWiffXsbYJuePg1CSfkElJX3Ogry+9wI/O014N1PZddMJhOmT5+R0LFCRWUZZswwfKlNmjQe3d1O9PQ45ePePTXwRYnEGotDS0sz2tra+nx8zn9fhktPPhVt7e0yOuNIJ8Zw1fzq6idGuh9joX0SEIZxljdt2lSicewFMCAAUya7sbpjL9Z0pHS6kcnuUd0ZJJCJHXAGu5t1Vfv31sM6faDnv2Q6Wl45GcWlvVcmfc5uqL9dBTT0ntNPmjQ5LoNEm82Kw484WP6J54OlPbtrsGXL56ivG6gdiFaupmYf3G53n4+eWvUYPG43PJ5Ew8UnQ2rwMpzjtqPmVy9Pf81UY38CJCAM83ci3uuO6erWXr8TN9d+lK7qqJ5RRoA0CKlNmH9vA6xp0CBUVE1FUUlluDPejnZot/6+T+eKi0swYcLQ2ooDD5qN4084uo9g0NHRibbW9nB94nhv1uwZfeoXgsIb/3x7SI2CEA6EkBCZfnLf7ZhbXoWOWDceUsOcUGnSICSEK6XMJCCkhC/xwsOtRfh/dR9hny997lITH3HqJcxmCyxWOxRFOHIxwSScuShK0KmLCSazcTdcU1XoXIOuqVIVqolHTYOuqwhI//L+1Dszymrw76uHdVp6dsCjbOhp6a5vbz1sKWoQqibMQEFhb1BWT0MD9NtWDOjf7NmzIb7rg6Wjjj4S4i+UPvv0C7z88nrU1dYPKCZsGQ4/4hCce95CFBUZ0V9bW9rxxhtvy8fBUmNjQ5/rj8efdTKuv+pyKSCoqri4PGJpn4nhSDJUHB7+JCAMD+c+rXy4adORCoewGszoUcOTrTvxSvf+ERhh8k3abHmwWPNgs+dDuJ0VfyZTeq55CaFBnPn6/R74fV753Od1jeKAR0NzpiOGoRkNlsO/pw7WGZOSrmT8pFnId/T6OHDv3gN+118G1FdaWoZx4wb32BgpHNTVNcBms6Giogw3XH9zzP4deOABuO76q/HG6//GaWecJPMJ24TVf3txUE2Cz+fDnj27+9S74qnfAyK8tNOVNI8UC3bpDKccXV3d5/p3inVS8UEIkIAwQl+PjZs2Xck5Vmaq+S88nVjesClT1ae13nxHEfIcxcjPL5KagmFNnMPt7oZwTuP1ueBxZYWldtoQpPMMPW2dGkUV+XbXwTYzOQFhwuQD+sRUcG35LHyNsT+CGTNmygU/VpoxcyoWLjpNfrz1k8/x1J//DocjDz9bfjNWPPYUNm/eKj+bOGkCnNJA0XBodNMPrsPevTV47tmXpTbhmmsvl+8LDcLf//bioDOxf38NXK5eYeCmO36MBVNnSGPFEUgkHIwAdBIQRgB6qMmgkHBvujUJbl2VdgfZ7PsgmlAg3MsGPG5AqDADKpiqQtF0MFVHSaEDRfY8mHSOPdt2wdPeBXh9KHM4cNoJx6Jx5z4cNnsWCqCggJlRCIZ/fbIVEw6djRfeeRf1bhdQlA97RSnKp02EnwEu4TDKpMBstcnjC5GEE5ierla4nLlx1TodKvIR/Ccy4k37dtfCNnNywv0YN3EmHAWl4XKuN98H/vbPqPXY7XmYPn16zDaEEeKSr58njwmE5uD+e/8YNhZcuOhMHH30POzZU4MFR/UePdTur0NrWzvmzJ6J25bfCa/XcHV8zFcW4NLLlsjnwh7hyy92xmy3s7MDjY29ho3Tpk/FHXf8fESOGXSGatIcJPw1TLkACQgpI0ytgkwcN9zdtBUfufp6MEutl+krLY4OhCV35Jms3+OCqbUD05/5MGpD4ofxsssvlp+tW/s61q19LZzvtNNPwvkXLI5aTsRBFJcQ176yHv9Y1/vjHPkj+fxz/5DW3XsvPAZ8YiWEdzuRXM4utLfUIhAY3Q6m/LvrYZ1JNgjJfoN9u+pgm5WYBqG/QaLr3x8Af3k9ZhfKyytQWdlrwNg/Y+TRwm0/vwNtbR0yi7DD+fo3L8Sxxx4djPU58Oc8EAjgySf+ii1bjGtEueh0AAAU5ElEQVSUIt2w7L8we87MIY8aRNldu/oKECNxzEBGicl+e1MvRwJC6gxTrkEYLqo6bmQMN6aqTfhXTyMebvki5T6luwJhfCUEg6KScWEHMD6PE4HN21H24vvS33ysdMKJR8vrXO3tnVj+s1+Hs82ffySuuOqbwQgQfb/K0gGTFBAMJ09/++tzeOft98Nll//iVpSVlWDblzvxz9eN6LOe8SWoWzQPtiLjzFiEu21u3Av3KNYmpKIiT/d3YDTW59tVC9us+DUIpeUTUVreexPBtelT4I8vDDr0yZOnoKDAMCKMlr59xcUoLCzAhx9slEcLofT1b1yA40/4Svi1dEwWjFUiHY9FhC355e2/RVOTEVGxvLwUP7/tFvl83do3IG43xEq7du1CIMK496a7f4qjJk1Daz9fCZmaWxIOMkU2vnpJQIiP07DkEoKCruNKznBloh4XxbHCmva9WWmUKALRiDvgZotxxhrweRHYsQf8wWfl6/Hjx6OkpFcd2x926AfyrTffxrPPvBT++P4H7+yTdc/uFjQ3d0uJoLyiALPn9DX6uvGGW4KuqoFTTz0BF1x0rjTUevzRvkZjOy49HvZKo6zX60R9zbZhmf9MNJLMDjgT/RiNdapdTsAXgLkq9nczclxFJVWoqOoNbuTctgPsd70LeiwGs2bNjukYSThBuuTr58mi99/3R+zcYRgOTps+BT/8n+vDVbrdfuzd04rODhfsdgvGjS/G5MmlUjgWacOGTVKTEEo333ojJk2a0EdAjta/2tr9cDp7b0EdMHcObrvtFohokL5okSCDlYiotFabTfpTSPbWA+O4af78anEES2mECJCAMELgh2pWxG5QgemKjiN1QG5pX/e0XNnpc03rX7ZV9eIjV4uMgphtKdJznCZcyu6vA3vwGRmMJpSmTJkChyP6DiryeCHyB/KIIw/F1dd8O1zHls01aG7qa2BYWubAgqN674Kv+ssavPeu4RNi0uSJuPmWZfJ56Jghkl3DuQugTTLUvszVA+Y0AtQIt9A7vaPHkDHRHXC2fX9Gsj/iBoi5shRK/tCGs47CUoybMDPcXfe+GvBf/3nI7oud/ty5B8XMd8QRB+P4E8URAvrcVojUHni9AXzw/i74fX3//c+YWYXZc6rCdf/sJ79CZ6fxPRa2CwsXnSGPGZ56ck3M9puamtDR0dco8ZEnH4aFc+mtMVoS2g67zWDW2dUFcVSRaHre3fje/52w8LhEy1H+9BIgASG9PDNa22HrVrzldnWenNFG0li5+MEUP5wieVpboT/xErBz4H3tadNERLu8qC1PnDQe519wtvws8vz1m9+6CMceZ/xwtre7sPGj6J4iDz9iitxNiSTOYR9/tPdHO6SBiCYgiPxzFx2P02f2+swPdfDHtRuwy59Y2Ns0Yk2oKhGNUOyAFXtsC/mEKhwrmVUNvn0NcR0v2PMKMXHKAWEynsZ66Mvju6AkXCvPmdNbtj/ekP2B0BwIATmU7r7ndlithr3Mju2NUnsQLZ16+sEwmxX50aqnn8F77xl2PpE3Gh5+MLbXYuF2WbhfjkzX33Erjps2K+oxg81qRVFRUTh7ogLC/oBb26D23PnL48/+37HyVcvmcZKAMMyz89lnn8U+bByiL0vrNqxzOjuN0GopJHlOKf4Lzr4mokFGHlimUHeo6MTJc2HPL5AHoa7tO4FBVK2DXfGKFBA8nl6DQXElTFGMAezb24bt2wZGohOfzZhZGT5qEOMOWXOLz/LsdhkBarBz2MMvOAUnTOprYd6ievCL+s1ZfUskNA9qexe41w/LxNhGcGmY7pyrQkbBnFABmI1oi7GS1ZqHydMPDn/saWmG/tNH4+ZhsZgxa9ZAITRUQUhAqK9vRGmpYRsjbA3sEQLfhg/3oKMjum8CoUETmjSRVE1DwG/s5oUmYcIE4xhtMAEhWgCnOXNm4he3x7d+b26p09wBf4Q1xEA09arfqTC2r4Z5//q74xbfETc8yphxAiQgZByx0cCGrVtnwR94G4yNeOScz5rrUcWi+2/XweHhOjzQ4OHGn0vX4IaGLj2ALq6ikwfQofvRxgPw8YHBW2YeMF+OOeDzwP+vDcCzRpS6WEkEp7GLxTpKihQQxPWuUFp8zlcxa5ZxfNDU2IVPPonuEOrAgyZiyhTDi50w0hLGiqEkrLmFgBBLgyB/VNUAjv7mQnxlXF9DtZ2+HvyiYRN8ujZM36DkmwnUt4BZLTBX9DrsSb623C3JAyq0zh5o3S4Z4IoFPXTGGrHw6DltVm9wVm9rC7SfPJIQILPZhNmzh9Yg1NU24Jk1vX4L5Hc3mD79tBYN9dGv5Z5w4gHIyzP+rb/z9gfYuNHwMSSO2C66+Fz5fDABob29Hc3NTQPGtOqvjw86TgZs0RR25YzJk8mpUULfiOzKTALCMM3HRxs33cUYfjRMzQ3azGACQqL96+EqdmtufKZ242O1C+WTD4AtzwFvVwe0PzwL7Bk6QMyUKVPhcBi7nP4plpHWiScdiyWXnB/O/va/t8Pj6etKWahWTzhpLiwWYxf4ysvr8eo/jOuOkZbcgwkIXq8Xe/fuwXd++SMcWlzRp3ub3G24o/GTRJGNSH61sQ2aa+QD7YzI4BNoVCnKh6Wy1y3yYEVDgrDI421vg/bjPyTQkpFVhEufO3duzHIhDYLQnt38o5+H833nu1fi0EMN24X2Nic2bhAx4PqmyqpCHFnda7J0910PoKamVmYK2SD4/QE89sjTMdtvaWlBW9vA44tBBQSG+3RVXT5jxozccCaS8KzmTgESEIZpLj/77LMyr8//KgcWRGnSuNg8RPLoWqHGdcOjT5ypIIqb4v4CgtASJJvyWF8V7KP5XjR53eA/H3yHEdnehAkTUVwc2+v0Nd+5FFarBc898xLefNO4kpifn4c77uoN6Nbd5cG2LxvR2WmoWouK8zBnzjiUlfee6Ny2/C60tRqhbCN9IYhbDLFC4goLbmHJLY40vvd/P8L0vL4hs//V04CHW75MFh+VywICPKBBd7lhKok/HPr02UdCUYzvfrTAS4kMa86cOTK+SLQU6UHxzjvuC8dcqJ53OK5aemm4SF1tO3bvaoXXawjJ48eX4KBDJobtD0TY53t++1A4/7XfuQKHHX6wvOIojthipfr6OnljoX+KISB0MfArp06d+nwi46e82UuABITsnZus7dlxx31V3Jf6ero6OJSjmNPPOAFzD5wtfxzFj2QoLVp8Js5eeEb4tbAIN7QI4oy2b/yGf//rHaxZ3VdFK5zFDPUDGWmkJbQO3/vpjagw9z0OeblrP/7cFtsjXbo4UT2ZIZCogDB52sEyRkg6hANRx7Rp05CXlx9zcCEBub+TsFtuvVG6Vg75+hB2RW63D1arGWahNQt/AGmcG3KWJAyC7/yNIVy/858PZSjoWEloz4QWrTextwH++qpVjw9YO3RdvZe0Bpn5jo5UrSQgjBT5UdzusceeKbwTpS1VVlYdVlFRcWusCkV429NON2wzI686itf/9d2rcPAhB4adL/WpI/gDuXPnbjz0wGPQNENTIgSD0BnuUO5mOzra729sbAx7WDriW4tPvey4E66199OcrOrYjec7+obITRsgqiijBBIREMZNnA1HgaHtksdoNz+cct+qqqpQVlYes56QgCyOGZb/7I6wm+UpUyfj2u9cjuKSYikLxEr/euudPvYLoeMFkV9ccRRXHaMlznVs27ZNOF54nXP+uslkff3tt1+JS9uZMhSqICsIkICQFdMwtjtxyinLzTNndohfqZh38cRVR2GwKNzM3nXHfeEfyaKiQiz/xS3ocbpQWtLvmELYTjPg/26/G81NLRKy2D3dsOw70khL3OP+859i3wEX+TnXq1aufMAoHEw/efvVP5xmK+21Egu+/5f2XXizJ/ptirE9w9k9+ngFhPKqKSguMfwK+JzdqvajBzs5l3eB+v+Je4WMc3nhQPg0ZMLaIEo++V5BQQGbPHlKzN/iSF8gH7y/AU8/tToM9Jhj5uNbly2RN3r6X0Tq6OiUt3Z+/ct7wvnF914Ix3l5dnyy5XO8/Z/o7s1FAV3X33jiiQdOz+7Zo95lkgAJCJmkS3XHTWDp0mXCnWFMzUTkbYbIO+GXfOMCVFZU4KEHH8W0aVMwY+Y0+WMpzlx3794nnSmpmoo/rVwl+3LZty/B0ccYtyyGcjML4B8rVty3MO5BUEYikCSBpUuXCeOYmNaRkfEYIm1xfvLT/8GHH36M9a++gYMOnoupUyfLSI47d+6RUR3FUcJfVz2Dd9/5UArH/++WZdJAVxgn/vlPqwcN+Qywq1asuDe2k4Qkx0rFRg8BEhBGz1zldE+XLr1xIcDXDjbISK9ywh7hhefX4rrrr8G99/wBu3dHd5Q0YeJ43Prjm7Dy8achbj6I4wWRPvpws/wbLHHOvrVy5b2GZEGJCGSQwFVXLbuHMdw0WBMhLZrII4x1XU4nzjn37D4eFvuXP+nk43HxkvNw928exPeuvzrskEyEehYhn2Mn1mU2uysfeeSRxN0gZpATVT28BEhAGF7e1NogBJYuXSauKBw/GKTQeazI4/F60djQhN/9dvBz4Jt+eJ10ChPytRAZoClWW5zjs5Ur7zuUJowIDAeBK674/iyTSRnU0lWEff7aBWejosJQNLS1tGHDhs145ZX1MbsotAbfve4qzJjRe91xKLubYGW/WrHivvi8IQ0HIGpjRAiQgDAi2KnRaASuueaGRbrOXhmKTqTRohQUPB7s2L4bdXX10kZBvJ48eSLKykqlS9lIN85DWW2H2mYMlz7++H19ozgN1TH6nAikQOCqq274DWPsf4aqIlJIloJCWwd27tiF9vYO1NbWo7y8TNoYzJkzK6wxE/nEscLzz60bQnMgW283m+0zH3nkTiNwA6UxS4AEhDE79dk58KVLlz0G4OqheicMt8S5rLj+GE8S1xnfefvDmBbbfevga1asuH9JPPVSHiKQLgJLliyxFhZO/BRAbN/LwcaETY4Igx7SJgzWByEYbNn8mTRKjOXvI7I85+y/Vq68NzGXkOmCQPVkFQESELJqOqgzN910U153t/4R5zgkHhpCUJgxYyqEQxmrzRr+wRQ3FHq6ndLPwZ49NXEKBrLFWl0PHPXEEw8P7QIyng5SHiKQAIFrrll2pq4j9plBv7qEp9EDD5wtv/cVleXSoZhI9XWNUhgQ333xbyAewcComj29YsW9lyXQZcqawwRIQMjhyR2tQ1u69PoFgOktANH9L2d0YPy0FSvufzOjTVDlRGAQAkuX3vB9gN0//JD4hz09ZSeuXr28r8/y4e8ItZglBEhAyJKJoG70JXDVVcvOYgzCHmHwcHppBMe5vmTlygcGd4yQxvaoKiIQi8DVVy/7Cee4fbgICaNcwLRw5cp7okc9G66OUDtZRYAEhKyaDupMJIGrr77hdM7Z30RspQyT8XLOv7Fy5f0vZLgdqp4IxE1g6dJlIrjbXXEXSD7jB5wHlqxc+TAJB8kzzMmSJCDk5LTmzqCWLl02lzH+KOfsxAyN6mPO2bUrV977cYbqp2qJQNIErr562RLOIeKclyZdySAFGcNTJpNnKfk7yATd0V8nCQijfw7HxAiuvnrZzzjHbWke7J0rVtx3S5rrpOqIQFoJXHPN9yfruiI0CemMgdLOObuVbiukdapyrjISEHJuSnN3QNdcc/0MXVd+CDARByGhsNeRVBhjj+m69ruVKx+IHcYudzHSyEYpgaVLbzoD0JcBOCeFIYiYJw/qOrvziSfu7UyhHio6BgiQgDAGJjnXhnjppd8vstkUEW76HM5xCmMoGmKMbgD/AtgrnGt/7x98Kdf40Hhym8A119x4kK7rFwPsbADHxTFaF2PsDc75C7pe+vQTTyyPjN8cR3HKMlYJkIAwVmc+h8YtfjA5x1zOMYkxHjqr7dQ0Vg+oO5544sGtOTRcGgoRCBO48sor7SZT4eG6bpoF8PGM8SJA0RnTuwFWz7m+fcWKB7YQMiKQDAESEJKhRmWIABEgAkSACOQ4ARIQcnyCaXhEgAgQASJABJIhQAJCMtSoDBEgAkSACBCBHCdAAkKOTzANjwgQASJABIhAMgRIQEiGGpUhAkSACBABIpDjBEhAyPEJpuERASJABIgAEUiGAAkIyVCjMkSACBABIkAEcpwACQg5PsE0PCJABIgAESACyRAgASEZalSGCBABIkAEiECOEyABIccnmIZHBIgAESACRCAZAiQgJEONyhABIkAEiAARyHECJCDk+ATT8IgAESACRIAIJEOABIRkqFEZIkAEiAARIAI5ToAEhByfYBoeESACRIAIEIFkCJCAkAw1KkMEiAARIAJEIMcJkICQ4xNMwyMCRIAIEAEikAwBEhCSoUZliAARIAJEgAjkOAESEHJ8gml4RIAIEAEiQASSIUACQjLUqAwRIAJEgAgQgRwnQAJCjk8wDY8IEAEiQASIQDIESEBIhhqVIQJEgAgQASKQ4wRIQMjxCabhEQEiQASIABFIhgAJCMlQozJEgAgQASJABHKcAAkIOT7BNDwiQASIABEgAskQIAEhGWpUhggQASJABIhAjhMgASHHJ5iGRwSIABEgAkQgGQIkICRDjcoQASJABIgAEchxAiQg5PgE0/CIABEgAkSACCRDgASEZKhRGSJABIgAESACOU6ABIQcn2AaHhEgAkSACBCBZAiQgJAMNSpDBIgAESACRCDHCZCAkOMTTMMjAkSACBABIpAMARIQkqFGZYgAESACRIAI5DgBEhByfIJpeESACBABIkAEkiFAAkIy1KgMESACRIAIEIEcJ0ACQo5PMA2PCBABIkAEiEAyBEhASIYalSECRIAIEAEikOMESEDI8Qmm4REBIkAEiAARSIYACQjJUKMyRIAIEAEiQARynAAJCDk+wTQ8IkAEiAARIALJECABIRlqVIYIEAEiQASIQI4TIAEhxyeYhkcEiAARIAJEIBkCJCAkQ43KEAEiQASIABHIcQIkIOT4BNPwiAARIAJEgAgkQ4AEhGSoURkiQASIABEgAjlOgASEHJ9gGh4RIAJEgAgQgWQIkICQDDUqQwSIABEgAkQgxwmQgJDjE0zDIwJEgAgQASKQDAESEJKhRmWIABEgAkSACOQ4gf8PH4jTfI+1V4IAAAAASUVORK5CYII=;clipPath=inset(28% 21.33% 54% 20.67%);points=[[0,0,0,0,0],[0,0.25,0,0,0],[0,0.5,0,0,0],[0,0.75,0,0,0],[0,1,0,0,0],[0.25,0,0,0,0],[0.25,1,0,0,0],[0.5,0,0,0,0],[0.5,1,0,0,0],[0.51,0.46,0,0,0],[0.75,0,0,0,0],[0.75,1,0,0,0],[1,0,0,0,0],[1,0.25,0,0,0],[1,0.5,0,0,0],[1,0.75,0,0,0],[1,1,0,0,0]];flipH=1;" parent="1" vertex="1">
          <mxGeometry x="414.45" y="450" width="225.55" height="70" as="geometry" />
        </mxCell>
        <mxCell id="FahEBECpcgJHgk5-wvUg-3" style="edgeStyle=none;rounded=0;orthogonalLoop=1;jettySize=auto;html=1;exitX=0.45;exitY=0.46;exitDx=0;exitDy=0;exitPerimeter=0;dashed=1;dashPattern=1 1;strokeColor=#000000;strokeWidth=3;startArrow=none;startFill=0;endArrow=classicThin;endFill=1;entryX=-0.09;entryY=0.076;entryDx=0;entryDy=0;entryPerimeter=0;" parent="1" source="FahEBECpcgJHgk5-wvUg-1" target="FahEBECpcgJHgk5-wvUg-18" edge="1">
          <mxGeometry relative="1" as="geometry">
            <mxPoint x="674" y="300" as="targetPoint" />
          </mxGeometry>
        </mxCell>
        <mxCell id="FahEBECpcgJHgk5-wvUg-4" style="edgeStyle=none;rounded=0;orthogonalLoop=1;jettySize=auto;html=1;exitX=0.51;exitY=0.46;exitDx=0;exitDy=0;exitPerimeter=0;entryX=-0.01;entryY=0.193;entryDx=0;entryDy=0;entryPerimeter=0;dashed=1;dashPattern=1 1;strokeColor=#000000;strokeWidth=3;startArrow=none;startFill=0;endArrow=classicThin;endFill=1;" parent="1" source="FahEBECpcgJHgk5-wvUg-2" target="FahEBECpcgJHgk5-wvUg-18" edge="1">
          <mxGeometry relative="1" as="geometry">
            <mxPoint x="673.5102999999999" y="274.79999999999995" as="targetPoint" />
          </mxGeometry>
        </mxCell>
        <mxCell id="FahEBECpcgJHgk5-wvUg-5" style="rounded=0;orthogonalLoop=1;jettySize=auto;html=1;exitX=0.51;exitY=0.46;exitDx=0;exitDy=0;exitPerimeter=0;strokeWidth=3;endArrow=classicThin;endFill=1;dashed=1;dashPattern=1 1;entryX=1;entryY=0;entryDx=0;entryDy=0;entryPerimeter=0;" parent="1" source="FahEBECpcgJHgk5-wvUg-2" target="FahEBECpcgJHgk5-wvUg-17" edge="1">
          <mxGeometry relative="1" as="geometry">
            <mxPoint x="380" y="280" as="targetPoint" />
          </mxGeometry>
        </mxCell>
        <mxCell id="FahEBECpcgJHgk5-wvUg-6" value="" style="endArrow=none;html=1;rounded=0;strokeWidth=3;movable=0;resizable=0;rotatable=0;deletable=0;editable=0;connectable=0;" parent="1" edge="1">
          <mxGeometry width="50" height="50" relative="1" as="geometry">
            <mxPoint x="80" y="520" as="sourcePoint" />
            <mxPoint x="720" y="520" as="targetPoint" />
          </mxGeometry>
        </mxCell>
        <mxCell id="FahEBECpcgJHgk5-wvUg-7" value="" style="endArrow=blockThin;html=1;rounded=0;strokeWidth=3;endFill=1;strokeColor=#0000FF;dashed=1;" parent="1" edge="1">
          <mxGeometry width="50" height="50" relative="1" as="geometry">
            <mxPoint x="430" y="550" as="sourcePoint" />
            <mxPoint x="550" y="550" as="targetPoint" />
          </mxGeometry>
        </mxCell>
        <mxCell id="FahEBECpcgJHgk5-wvUg-8" value="" style="endArrow=none;html=1;rounded=0;strokeWidth=3;movable=0;resizable=0;rotatable=0;deletable=0;editable=0;connectable=0;" parent="1" edge="1">
          <mxGeometry width="50" height="50" relative="1" as="geometry">
            <mxPoint x="80" y="400" as="sourcePoint" />
            <mxPoint x="720" y="400" as="targetPoint" />
          </mxGeometry>
        </mxCell>
        <mxCell id="FahEBECpcgJHgk5-wvUg-9" value="&lt;font style=&quot;font-size: 24px;&quot;&gt;下行链路双功能&lt;font face=&quot;Times New Roman&quot;&gt;OFDM&lt;/font&gt;信号&lt;/font&gt;" style="text;html=1;resizable=1;autosize=1;align=left;verticalAlign=middle;points=[];fillColor=none;strokeColor=none;rounded=0;opacity=80;movable=1;rotatable=1;deletable=1;editable=1;connectable=1;fontFamily=宋体;fontSize=24;" parent="1" vertex="1">
          <mxGeometry x="420" y="550" width="310" height="40" as="geometry" />
        </mxCell>
        <mxCell id="FahEBECpcgJHgk5-wvUg-10" value="" style="endArrow=none;html=1;rounded=0;endFill=0;startArrow=classicThin;startFill=1;strokeWidth=3;strokeColor=#000000;dashed=1;dashPattern=1 1;" parent="1" edge="1">
          <mxGeometry width="50" height="50" relative="1" as="geometry">
            <mxPoint x="550" y="617.1600000000001" as="sourcePoint" />
            <mxPoint x="430" y="617.1600000000001" as="targetPoint" />
          </mxGeometry>
        </mxCell>
        <mxCell id="FahEBECpcgJHgk5-wvUg-11" value="TX/RX0" style="text;html=1;resizable=1;autosize=1;align=center;verticalAlign=middle;points=[];fillColor=none;strokeColor=none;rounded=0;opacity=80;movable=1;rotatable=1;deletable=1;editable=1;connectable=1;fontFamily=Times New Roman;fontSize=24;" parent="1" vertex="1">
          <mxGeometry x="140" y="605" width="110" height="40" as="geometry" />
        </mxCell>
        <mxCell id="FahEBECpcgJHgk5-wvUg-12" value="&lt;font face=&quot;宋体&quot; style=&quot;font-size: 24px;&quot;&gt;反射回波信号&lt;/font&gt;" style="text;html=1;resizable=1;autosize=1;align=left;verticalAlign=middle;points=[];fillColor=none;strokeColor=none;rounded=0;opacity=80;movable=1;rotatable=1;deletable=1;editable=1;connectable=1;fontFamily=Times New Roman;fontSize=24;" parent="1" vertex="1">
          <mxGeometry x="420" y="620" width="170" height="40" as="geometry" />
        </mxCell>
        <mxCell id="FahEBECpcgJHgk5-wvUg-13" value="" style="edgeStyle=none;rounded=0;orthogonalLoop=1;jettySize=auto;html=1;exitX=0.45;exitY=0.46;exitDx=0;exitDy=0;exitPerimeter=0;entryX=-0.05;entryY=0.018;entryDx=0;entryDy=0;entryPerimeter=0;dashed=1;dashPattern=1 1;strokeColor=#000000;strokeWidth=3;startArrow=none;startFill=0;endArrow=classicThin;endFill=1;" parent="1" source="FahEBECpcgJHgk5-wvUg-1" target="FahEBECpcgJHgk5-wvUg-17" edge="1">
          <mxGeometry relative="1" as="geometry">
            <mxPoint x="184.63249999999994" y="424.9" as="sourcePoint" />
            <mxPoint x="313.5102999999999" y="279.79999999999995" as="targetPoint" />
          </mxGeometry>
        </mxCell>
        <mxCell id="FahEBECpcgJHgk5-wvUg-14" style="edgeStyle=none;rounded=0;orthogonalLoop=1;jettySize=auto;html=1;exitX=0.5;exitY=0;exitDx=0;exitDy=0;exitPerimeter=0;strokeColor=#0000FF;strokeWidth=3;startArrow=none;startFill=0;endArrow=blockThin;endFill=1;dashed=1;" parent="1" source="FahEBECpcgJHgk5-wvUg-16" edge="1">
          <mxGeometry relative="1" as="geometry">
            <mxPoint x="260" y="440" as="targetPoint" />
          </mxGeometry>
        </mxCell>
        <mxCell id="FahEBECpcgJHgk5-wvUg-15" style="edgeStyle=none;rounded=0;orthogonalLoop=1;jettySize=auto;html=1;exitX=0.5;exitY=0;exitDx=0;exitDy=0;exitPerimeter=0;dashed=1;strokeColor=#0000FF;strokeWidth=3;startArrow=none;startFill=0;endArrow=blockThin;endFill=1;" parent="1" source="FahEBECpcgJHgk5-wvUg-16" edge="1">
          <mxGeometry relative="1" as="geometry">
            <mxPoint x="527" y="480" as="targetPoint" />
          </mxGeometry>
        </mxCell>
        <mxCell id="FahEBECpcgJHgk5-wvUg-16" value="" style="verticalLabelPosition=bottom;shadow=0;dashed=0;align=center;html=1;verticalAlign=top;shape=mxgraph.electrical.radio.aerial_-_antenna_2;strokeWidth=2;" parent="1" vertex="1">
          <mxGeometry x="220" y="590" width="40" height="55" as="geometry" />
        </mxCell>
        <mxCell id="FahEBECpcgJHgk5-wvUg-17" value="" style="verticalLabelPosition=bottom;shadow=0;dashed=0;align=center;html=1;verticalAlign=top;shape=mxgraph.electrical.radio.aerial_-_antenna_2;strokeWidth=2;" parent="1" vertex="1">
          <mxGeometry x="220" y="330" width="40" height="55" as="geometry" />
        </mxCell>
        <mxCell id="FahEBECpcgJHgk5-wvUg-18" value="" style="verticalLabelPosition=bottom;shadow=0;dashed=0;align=center;html=1;verticalAlign=top;shape=mxgraph.electrical.radio.aerial_-_antenna_2;strokeWidth=2;" parent="1" vertex="1">
          <mxGeometry x="640" y="330" width="40" height="55" as="geometry" />
        </mxCell>
        <mxCell id="FahEBECpcgJHgk5-wvUg-19" value="" style="endArrow=classic;html=1;rounded=0;strokeColor=#333333;strokeWidth=3;" parent="1" edge="1">
          <mxGeometry width="50" height="50" relative="1" as="geometry">
            <mxPoint x="100" y="460" as="sourcePoint" />
            <mxPoint x="170" y="460" as="targetPoint" />
          </mxGeometry>
        </mxCell>
        <mxCell id="FahEBECpcgJHgk5-wvUg-20" value="" style="endArrow=classic;html=1;rounded=0;strokeColor=#333333;strokeWidth=3;" parent="1" edge="1">
          <mxGeometry x="-0.7073" y="20" width="50" height="50" relative="1" as="geometry">
            <mxPoint x="100" y="460" as="sourcePoint" />
            <mxPoint x="60" y="510" as="targetPoint" />
            <mxPoint as="offset" />
          </mxGeometry>
        </mxCell>
        <mxCell id="FahEBECpcgJHgk5-wvUg-21" value="&lt;span style=&quot;font-size: 24px;&quot;&gt;X&lt;/span&gt;" style="text;html=1;resizable=1;autosize=1;align=center;verticalAlign=middle;points=[];fillColor=none;strokeColor=none;rounded=0;opacity=80;movable=1;rotatable=1;deletable=1;editable=1;connectable=1;fontFamily=Times New Roman;fontSize=24;" parent="1" vertex="1">
          <mxGeometry x="30" y="480" width="40" height="40" as="geometry" />
        </mxCell>
        <mxCell id="FahEBECpcgJHgk5-wvUg-22" value="Y" style="text;html=1;resizable=1;autosize=1;align=center;verticalAlign=middle;points=[];fillColor=none;strokeColor=none;rounded=0;opacity=80;movable=1;rotatable=1;deletable=1;editable=1;connectable=1;fontFamily=Times New Roman;fontSize=24;" parent="1" vertex="1">
          <mxGeometry x="130" y="420" width="40" height="40" as="geometry" />
        </mxCell>
        <mxCell id="FahEBECpcgJHgk5-wvUg-23" value="&lt;span style=&quot;color: rgb(0, 0, 0); font-family: &amp;quot;Times New Roman&amp;quot;; font-size: 24px; font-style: normal; font-variant-ligatures: normal; font-variant-caps: normal; font-weight: 400; letter-spacing: normal; orphans: 2; text-align: center; text-indent: 0px; text-transform: none; widows: 2; word-spacing: 0px; -webkit-text-stroke-width: 0px; background-color: rgb(251, 251, 251); text-decoration-thickness: initial; text-decoration-style: initial; text-decoration-color: initial; float: none; display: inline !important;&quot;&gt;RX1&lt;/span&gt;" style="text;whiteSpace=wrap;html=1;" parent="1" vertex="1">
          <mxGeometry x="250" y="350" width="80" height="50" as="geometry" />
        </mxCell>
        <mxCell id="FahEBECpcgJHgk5-wvUg-24" value="&lt;span style=&quot;color: rgb(0, 0, 0); font-family: &amp;quot;Times New Roman&amp;quot;; font-size: 24px; font-style: normal; font-variant-ligatures: normal; font-variant-caps: normal; font-weight: 400; letter-spacing: normal; orphans: 2; text-align: center; text-indent: 0px; text-transform: none; widows: 2; word-spacing: 0px; -webkit-text-stroke-width: 0px; background-color: rgb(251, 251, 251); text-decoration-thickness: initial; text-decoration-style: initial; text-decoration-color: initial; float: none; display: inline !important;&quot;&gt;RX2&lt;/span&gt;" style="text;whiteSpace=wrap;html=1;" parent="1" vertex="1">
          <mxGeometry x="610" y="360" width="80" height="50" as="geometry" />
        </mxCell>
        <mxCell id="FahEBECpcgJHgk5-wvUg-25" value="&lt;div style=&quot;text-align: center;&quot;&gt;&lt;font face=&quot;Times New Roman&quot;&gt;&lt;span style=&quot;font-size: 24px;&quot;&gt;...&lt;/span&gt;&lt;/font&gt;&lt;/div&gt;" style="text;whiteSpace=wrap;html=1;" parent="1" vertex="1">
          <mxGeometry x="690" y="350" width="80" height="50" as="geometry" />
        </mxCell>
        <mxCell id="FahEBECpcgJHgk5-wvUg-26" style="rounded=1;orthogonalLoop=1;jettySize=auto;html=1;exitX=0.45;exitY=0.46;exitDx=0;exitDy=0;exitPerimeter=0;fontFamily=Times New Roman;fontSize=24;endArrow=classicThin;endFill=1;dashed=1;strokeColor=#000000;strokeWidth=3;dashPattern=1 1;entryX=-0.05;entryY=0.042;entryDx=0;entryDy=0;entryPerimeter=0;" parent="1" source="FahEBECpcgJHgk5-wvUg-1" target="FahEBECpcgJHgk5-wvUg-16" edge="1">
          <mxGeometry relative="1" as="geometry">
            <mxPoint x="242.35029999999983" y="562.3" as="targetPoint" />
          </mxGeometry>
        </mxCell>
        <mxCell id="FahEBECpcgJHgk5-wvUg-27" value="" style="endArrow=none;html=1;rounded=0;endFill=0;startArrow=classicThin;startFill=1;strokeWidth=3;strokeColor=#000000;dashed=1;dashPattern=1 1;entryX=0.51;entryY=0.46;entryDx=0;entryDy=0;entryPerimeter=0;exitX=0.977;exitY=0.085;exitDx=0;exitDy=0;exitPerimeter=0;" parent="1" source="FahEBECpcgJHgk5-wvUg-16" target="FahEBECpcgJHgk5-wvUg-2" edge="1">
          <mxGeometry width="50" height="50" relative="1" as="geometry">
            <mxPoint x="242.35029999999983" y="562.3" as="sourcePoint" />
            <mxPoint x="396" y="481.66796875" as="targetPoint" />
          </mxGeometry>
        </mxCell>
        <mxCell id="Rwx2ex5tq2O1yLGrzyxw-1" value="&lt;font face=&quot;宋体&quot; style=&quot;font-size: 24px;&quot;&gt;车道&lt;/font&gt;" style="text;html=1;align=center;verticalAlign=middle;resizable=0;points=[];autosize=1;strokeColor=none;fillColor=none;" parent="1" vertex="1">
          <mxGeometry x="625" y="430" width="70" height="40" as="geometry" />
        </mxCell>
        <mxCell id="Rwx2ex5tq2O1yLGrzyxw-3" value="" style="endArrow=classic;html=1;rounded=0;" parent="1" edge="1">
          <mxGeometry width="50" height="50" relative="1" as="geometry">
            <mxPoint x="350" y="430" as="sourcePoint" />
            <mxPoint x="400" y="430" as="targetPoint" />
          </mxGeometry>
        </mxCell>
        <mxCell id="Rwx2ex5tq2O1yLGrzyxw-4" value="" style="endArrow=classic;html=1;rounded=0;" parent="1" edge="1">
          <mxGeometry width="50" height="50" relative="1" as="geometry">
            <mxPoint x="400" y="500" as="sourcePoint" />
            <mxPoint x="370" y="500" as="targetPoint" />
          </mxGeometry>
        </mxCell>
        <mxCell id="Rwx2ex5tq2O1yLGrzyxw-5" value="&lt;font face=&quot;宋体&quot; style=&quot;font-size: 24px;&quot;&gt;路边单元&lt;/font&gt;" style="text;html=1;align=center;verticalAlign=middle;resizable=0;points=[];autosize=1;strokeColor=none;fillColor=none;" parent="1" vertex="1">
          <mxGeometry x="230" y="605" width="120" height="40" as="geometry" />
        </mxCell>
      </root>
    </mxGraphModel>
  </diagram>
</mxfile>
